<?xml version="1.0" encoding="UTF-8"?>
<svg width="30px" height="30px" viewBox="0 0 30 30" version="1.1" xmlns="http://www.w3.org/2000/svg" xmlns:xlink="http://www.w3.org/1999/xlink">
    <title>切片</title>
    <g id="页面-1" stroke="none" stroke-width="1" fill="none" fill-rule="evenodd">
        <g id="首页" transform="translate(-333.000000, -53.000000)" fill="#131313" fill-rule="nonzero">
            <g id="icon_home_news" transform="translate(333.000000, 53.000000)">
                <path d="M7.50063042,17.7984935 L7.50063042,12.4857462 C7.50063042,8.35149831 10.8581615,5 14.9999498,5 C19.1417381,5 22.4992691,8.35149828 22.4992691,12.4857462 L22.4992691,17.7984935 L23.9197823,20.634742 C24.1692846,21.1324918 23.8065312,21.7179915 23.2490261,21.7179915 L6.75087349,21.7179915 C6.19336833,21.7179915 5.83086499,21.1324918 6.08011728,20.634742 L7.50063042,17.7984935 Z M22.0357649,20.2209923 L21.078506,18.3099932 C21.0264233,18.2060886 20.9992879,18.0914704 20.9992553,17.9752434 L20.9992553,12.4857462 C20.9992553,9.17824787 18.3132304,6.49724924 14.9999498,6.49724924 C11.6866691,6.49724924 9.00064429,9.17824787 9.00064429,12.4857462 L9.00064429,17.9749934 C9.00064429,18.0912433 8.97339403,18.2057433 8.92139357,18.3099932 L7.9641347,20.2207422 L22.0357649,20.2207422 L22.0357649,20.2209923 Z M11.6456687,23.7909904 C11.4927056,23.6642571 11.3964773,23.4818521 11.3782307,23.28405 C11.3599841,23.0862479 11.4212201,22.8893177 11.5484179,22.736741 C11.8134911,22.418825 12.2858732,22.3754343 12.6044276,22.639741 C13.2772411,23.1990144 14.1250399,23.50435 14.9999498,23.5024906 C15.8746569,23.504303 16.7222558,23.1990642 17.3949719,22.639991 C17.7135264,22.3756843 18.1859084,22.419075 18.4509817,22.736991 C18.5781505,22.8895992 18.6393442,23.0865491 18.6210506,23.2843525 C18.602757,23.482156 18.5064809,23.6645428 18.3534808,23.7912404 C17.4114199,24.5739802 16.2247638,25.0016995 14.9999498,24.9999949 C13.7581883,24.9999949 12.5811774,24.56749 11.6456687,23.7907404 L11.6456687,23.7909904 Z" id="形状"></path>
            </g>
        </g>
    </g>
</svg>