<?xml version="1.0" encoding="UTF-8"?>
<svg width="28px" height="28px" viewBox="0 0 28 28" version="1.1" xmlns="http://www.w3.org/2000/svg" xmlns:xlink="http://www.w3.org/1999/xlink">
    <title>切片</title>
    <g id="页面-1" stroke="none" stroke-width="1" fill="none" fill-rule="evenodd">
        <g id="标签栏" transform="translate(-174.000000, -90.000000)">
            <g id="tabbar备份" transform="translate(0.000000, 87.000000)">
                <g id="tab备份" transform="translate(173.000000, 3.000000)">
                    <g id="tab/icon/" transform="translate(1.000000, 0.000000)">
                        <g id="编组" transform="translate(1.166667, 2.916667)">
                            <path d="M7.58333333,24.5 C8.54983165,24.5 9.33333333,23.7164983 9.33333333,22.75 C9.33333333,21.7835017 8.54983165,21 7.58333333,21 C6.61683502,21 5.83333333,21.7835017 5.83333333,22.75 C5.83333333,23.7164983 6.61683502,24.5 7.58333333,24.5 Z M20.4166667,24.5 C21.383165,24.5 22.1666667,23.7164983 22.1666667,22.75 C22.1666667,21.7835017 21.383165,21 20.4166667,21 C19.4501684,21 18.6666667,21.7835017 18.6666667,22.75 C18.6666667,23.7164983 19.4501684,24.5 20.4166667,24.5 Z" id="形状" fill="#999999" fill-rule="nonzero"></path>
                            <path d="M0.356558035,0.153561524 C0.537854947,0.023988416 0.761981816,-0.0264858987 0.979614769,0.0132465244 C2.20852484,0.237472658 3.53132543,1.03933716 4.15189166,2.39266141 L4.26522693,2.65331005 C4.68523417,3.68509172 4.9874616,6.46686945 6.69026873,16.0824144 C6.75297853,16.6272491 7.18109826,17.0517685 7.71473084,17.0982613 L7.80362125,17.1016758 L20.4354654,17.1016758 C20.9699191,17.1016758 21.4271492,16.7107029 21.5338177,16.1734707 L21.5482624,16.0824144 L21.5688183,15.9720087 L22.8294157,6.44922728 L22.8316379,6.42418681 L22.8338602,6.35134176 C22.8373046,5.7459857 22.3850391,5.24004242 21.7960645,5.19037399 L21.7127297,5.18695938 L4.08806198,5.18695938 C3.64343825,5.18703695 3.27706376,4.82953828 3.25554858,4.37461453 C3.23403341,3.91969078 3.56495621,3.52758748 4.00750504,3.48363751 L4.08806198,3.47965379 L21.7116186,3.47965379 C23.2533119,3.47965379 24.5,4.7669622 24.5,6.35134176 C24.5,6.43101602 24.4966666,6.50955209 24.4905554,6.58865724 L24.478333,6.70646133 L24.457777,6.8174362 L23.1921796,16.3567215 L23.1832905,16.4221682 C22.9655677,17.7493609 21.8744209,18.7417698 20.5621342,18.8061359 L20.4349099,18.8089814 L7.80306568,18.8089814 C6.39526363,18.8089814 5.2102432,17.7288261 5.04357369,16.3402176 L3.98077759,10.3874121 C3.15020772,5.80045118 2.93687072,3.75793676 2.64353231,3.11883538 C2.29074846,2.34997877 1.4346226,1.83095787 0.687387498,1.69494253 C0.469742528,1.65527926 0.276399943,1.52865756 0.149908882,1.34294323 C0.0234178213,1.15722889 -0.0258559016,0.927641022 0.0129314418,0.704705297 C0.0516512679,0.481188149 0.175261123,0.283134633 0.356558035,0.153561524 Z" id="路径" stroke="#999999" stroke-width="0.4" fill="#999999" fill-rule="nonzero"></path>
                            <path d="M7.83333333,12.0833333 L13.8333333,12.0833333 C14.3856181,12.0833333 14.8333333,12.5310486 14.8333333,13.0833333 C14.8333333,13.6356181 14.3856181,14.0833333 13.8333333,14.0833333 L7.83333333,14.0833333 C7.28104858,14.0833333 6.83333333,13.6356181 6.83333333,13.0833333 C6.83333333,12.5310486 7.28104858,12.0833333 7.83333333,12.0833333 Z" id="矩形" fill="#D8D8D8"></path>
                        </g>
                    </g>
                </g>
            </g>
        </g>
    </g>
</svg>