<?xml version="1.0" encoding="UTF-8"?>
<svg width="28px" height="28px" viewBox="0 0 28 28" version="1.1" xmlns="http://www.w3.org/2000/svg" xmlns:xlink="http://www.w3.org/1999/xlink">
    <title>切片</title>
    <g id="页面-1" stroke="none" stroke-width="1" fill="none" fill-rule="evenodd">
        <g id="三级类目商品列表" transform="translate(-147.000000, -372.000000)" fill="#F94227">
            <g id="商品图" transform="translate(12.000000, 143.000000)">
                <g id="ic_shopping" transform="translate(135.000000, 229.000000)">
                    <g id="编组" transform="translate(3.000000, 4.500000)">
                        <path d="M7,16 C8.1045695,16 9,16.8954305 9,18 C9,19.1045695 8.1045695,20 7,20 C5.8954305,20 5,19.1045695 5,18 C5,16.8954305 5.8954305,16 7,16 Z M7,17.5 C6.72385763,17.5 6.5,17.7238576 6.5,18 C6.5,18.2761424 6.72385763,18.5 7,18.5 C7.27614237,18.5 7.5,18.2761424 7.5,18 C7.5,17.7238576 7.27614237,17.5 7,17.5 Z M17,16 C18.1045695,16 19,16.8954305 19,18 C19,19.1045695 18.1045695,20 17,20 C15.8954305,20 15,19.1045695 15,18 C15,16.8954305 15.8954305,16 17,16 Z M17,17.5 C16.7238576,17.5 16.5,17.7238576 16.5,18 C16.5,18.2761424 16.7238576,18.5 17,18.5 C17.2761424,18.5 17.5,18.2761424 17.5,18 C17.5,17.7238576 17.2761424,17.5 17,17.5 Z" id="形状" fill-rule="nonzero"></path>
                        <path d="M0.305621173,0.131624164 C0.461018526,0.0205614994 0.653127271,-0.0227021989 0.839669802,0.0113541638 C1.8930213,0.203547993 3.02685036,0.890860424 3.55876428,2.05085263 L3.6559088,2.27426576 C4.015915,3.15865004 4.27496709,4.54303096 5.73451606,12.7849267 C5.78826731,13.2519278 6.15522708,13.6158016 6.61262643,13.6556525 L6.68881821,13.6585793 L17.5161132,13.6585793 C17.9742164,13.6585793 18.3661279,13.3234596 18.457558,12.8629749 L18.4699392,12.7849267 L18.4875585,12.6902931 L19.5680706,5.5279091 L19.5699754,5.50644583 L19.5718802,5.44400723 C19.5748326,4.9251306 19.1871764,4.49146493 18.682341,4.448892 L18.6109112,4.44596518 L6.50405313,4.44596518 C6.12294707,4.44603167 5.80891179,4.13960424 5.79047021,3.7496696 C5.77202864,3.35973496 6.05567675,3.02364641 6.43500432,2.98597501 L6.50405313,2.98256039 L18.6099588,2.98256039 C19.9314102,2.98256039 21,4.0859676 21,5.44400723 C21,5.51229944 20.9971428,5.57961608 20.9919046,5.64742049 L20.9814283,5.74839543 L20.9638089,5.84351674 L19.8790111,13.020047 L19.8713919,13.0761442 C19.6847723,14.2137379 18.7495036,15.0643741 17.6246865,15.1195451 L17.515637,15.1219841 L6.68834201,15.1219841 C5.48165454,15.1219841 4.46592275,14.1961366 4.32306316,13.0059008 L3.41209508,7.90349612 C2.70017804,3.9718153 2.51731776,3.22108865 2.26588484,2.67328747 C1.96349868,2.01426751 1.22967651,1.56939246 0.589189284,1.45280788 C0.402636452,1.41881079 0.236914237,1.31027791 0.128493328,1.1510942 C0.0200724182,0.99191048 -0.0221622014,0.795120876 0.0110840929,0.604033112 C0.0442725154,0.412446985 0.15022382,0.242686828 0.305621173,0.131624164 Z" id="路径" stroke="#F94227" stroke-width="0.1" fill-rule="nonzero"></path>
                        <path d="M4.75,9.5 L12.25,9.5 C12.6642136,9.5 13,9.83578644 13,10.25 C13,10.6642136 12.6642136,11 12.25,11 L4.75,11 C4.33578644,11 4,10.6642136 4,10.25 C4,9.83578644 4.33578644,9.5 4.75,9.5 Z" id="矩形"></path>
                    </g>
                </g>
            </g>
        </g>
    </g>
</svg>