<?xml version="1.0" encoding="UTF-8"?>
<svg width="28px" height="28px" viewBox="0 0 28 28" version="1.1" xmlns="http://www.w3.org/2000/svg" xmlns:xlink="http://www.w3.org/1999/xlink">
    <title>切片</title>
    <g id="页面-1" stroke="none" stroke-width="1" fill="none" fill-rule="evenodd">
        <g id="我的" transform="translate(-22.000000, -585.000000)" stroke="#131313" stroke-width="1.5">
            <g id="编组-3" transform="translate(12.000000, 519.000000)">
                <g id="mine/list备份" transform="translate(10.000000, 66.000000)">
                    <g id="编组" transform="translate(6.748656, 4.666667)">
                        <path d="M7.25262533,5.27894436 C7.68912469,5.27894436 8.08476617,5.45685205 8.37140858,5.74349445 C8.65805098,6.03013686 8.83595866,6.42577834 8.83595866,6.8622777 C8.83595866,7.29877706 8.65805098,7.69441854 8.37140858,7.98106094 C8.08476617,8.26770335 7.68912469,8.44561103 7.25262533,8.44561103 C6.81612597,8.44561103 6.42048449,8.26770335 6.13384209,7.98106094 C5.84719968,7.69441854 5.669292,7.29877706 5.669292,6.8622777 C5.669292,6.42576618 5.84717897,6.03010971 6.13382566,5.74346301 C6.4204569,5.45683178 6.81609482,5.27894436 7.25262533,5.27894436 Z" id="路径" fill-rule="nonzero"></path>
                        <circle id="椭圆形" cx="7.25134353" cy="7" r="6.25"></circle>
                        <path d="M6.58109299,13.0725881 C6.35643808,13.6342253 6.01945572,14.4766812 5.5701459,15.5999558 C5.39297199,16.0428906 4.96397844,16.3333333 4.48692309,16.3333333 L1.16666667,16.3333333 C0.522334459,16.3333333 0,15.8109989 0,15.1666667 C0,15.018244 0.0283210655,14.8711845 0.0834438606,14.7333775 L1.77679488,10.5" id="路径"></path>
                        <path d="M14.3185734,13.0725881 C14.0939184,13.6342253 13.7569361,14.4766812 13.3076263,15.5999558 C13.1304523,16.0428906 12.7014588,16.3333333 12.2244034,16.3333333 L8.90414703,16.3333333 C8.25981482,16.3333333 7.73748036,15.8109989 7.73748036,15.1666667 C7.73748036,15.018244 7.76580142,14.8711845 7.82092422,14.7333775 L9.51427524,10.5" id="路径" transform="translate(11.028027, 13.416667) scale(-1, 1) translate(-11.028027, -13.416667) "></path>
                    </g>
                </g>
            </g>
        </g>
    </g>
</svg>