<?xml version="1.0" encoding="UTF-8"?>
<svg width="34px" height="34px" viewBox="0 0 34 34" version="1.1" xmlns="http://www.w3.org/2000/svg" xmlns:xlink="http://www.w3.org/1999/xlink">
    <title>切片</title>
    <g id="页面-1" stroke="none" stroke-width="1" fill="none" fill-rule="evenodd">
        <g id="商品详情" transform="translate(-11.000000, -48.000000)">
            <g id="nav_back_ic" transform="translate(11.000000, 48.000000)">
                <g transform="translate(1.000000, 1.000000)" fill="#FFFFFF" fill-opacity="0.398519449" id="椭圆形">
                    <circle cx="16" cy="16" r="16"></circle>
                </g>
                <g id="icon_arrow_black_left" transform="translate(12.000000, 10.000000)" fill="#131313">
                    <path d="M0.778145052,14 C0.579039471,14 0.379933891,13.9237799 0.227493681,13.7728952 C-0.0758312269,13.4680148 -0.0758312269,12.9764729 0.227493681,12.6715925 L5.90044721,7.00019444 L0.227493681,1.32879642 C-0.0758312269,1.023916 -0.0758312269,0.532374101 0.227493681,0.227493681 C0.532374101,-0.0758312269 1.023916,-0.0758312269 1.32879642,0.227493681 L7.55084581,6.44954307 C7.85417072,6.75442349 7.85417072,7.24596539 7.55084581,7.55084581 L1.32879642,13.7728952 C1.17635621,13.9237799 0.977250632,14 0.778145052,14" id="Fill-1" transform="translate(3.889170, 7.000000) rotate(-180.000000) translate(-3.889170, -7.000000) "></path>
                </g>
            </g>
        </g>
    </g>
</svg>