<?xml version="1.0" encoding="UTF-8"?>
<svg width="34px" height="34px" viewBox="0 0 34 34" version="1.1" xmlns="http://www.w3.org/2000/svg" xmlns:xlink="http://www.w3.org/1999/xlink">
    <title>切片</title>
    <g id="页面-1" stroke="none" stroke-width="1" fill="none" fill-rule="evenodd">
        <g id="商品详情" transform="translate(-330.000000, -48.000000)">
            <g id="shop_nav_share_ic" transform="translate(330.000000, 48.000000)">
                <g id="shop_share_ic" transform="translate(1.000000, 1.000000)">
                    <circle id="椭圆形" fill-opacity="0.49609375" fill="#FFFFFF" cx="16" cy="16" r="16"></circle>
                    <g id="形状-2" transform="translate(8.000000, 8.000000)" fill="#131313" fill-rule="nonzero">
                        <path d="M15.2684954,0.0132890441 C15.4679967,0.0132890441 15.6408977,0.0797342695 15.7871986,0.225913653 C15.9334995,0.372093036 16,0.544850512 16,0.744186077 L16,5.10299007 C16,5.30232563 15.9334995,5.47508311 15.7871986,5.62126249 C15.6408978,5.76744188 15.4679967,5.8338871 15.2684954,5.8338871 C15.0689941,5.83388711 14.8960931,5.76744188 14.7497922,5.62126249 C14.6034913,5.47508311 14.5369908,5.30232564 14.5369908,5.10299007 L14.5369908,2.49833891 L8.51205319,8.51827242 C8.3657523,8.66445181 8.20615131,8.73089703 7.99334995,8.73089703 C7.7805486,8.73089703 7.60764752,8.66445181 7.47464671,8.51827242 C7.34164591,8.38538208 7.26184536,8.21262461 7.26184536,8 C7.26184536,7.78737539 7.32834582,7.62790696 7.47464671,7.48172758 L13.4995843,1.46179406 L10.9060681,1.46179406 C10.7065669,1.46179406 10.5336658,1.39534884 10.3873649,1.24916945 C10.241064,1.10299007 10.1745635,0.930232595 10.1745635,0.73089703 C10.1745635,0.531561466 10.241064,0.358803992 10.3873649,0.212624609 C10.5336658,0.0664452256 10.7065669,0 10.9060681,0 L15.2684954,0 L15.2684954,0.0132890441 Z M7.2086451,0.0531561803 C7.28844565,0.0531561803 7.36824609,0.0664452251 7.44804653,0.0797342693 C7.52784708,0.10631236 7.62094761,0.132890449 7.70074816,0.186046519 C7.79384869,0.239202699 7.86034915,0.318936858 7.91354952,0.411960174 C7.96674988,0.518272423 7.99335007,0.637873829 7.99334995,0.784053213 C7.99334995,0.97009973 7.9268495,1.12956816 7.80714878,1.2624585 C7.68744807,1.40863788 7.52784708,1.47508311 7.34164591,1.5016612 C6.53034087,1.58139547 5.7722361,1.80730901 5.05403159,2.16611301 C4.33582709,2.524917 3.69742313,3.00332229 3.15211971,3.61461792 C2.60681629,4.19933556 2.19451378,4.86378737 1.90191188,5.60797345 C1.59600999,6.37873761 1.4497091,7.17607976 1.4497091,8.01328904 C1.4497091,8.90365451 1.62261018,9.75415283 1.95511224,10.551495 C2.27431422,11.3222591 2.7398171,12.013289 3.35162098,12.6378737 C3.97672484,13.2491693 4.66832916,13.7142857 5.43973403,14.0465116 C6.25103906,14.3920266 7.08894428,14.551495 7.98004986,14.551495 C8.80465499,14.551495 9.61596013,14.4053156 10.3873649,14.0996678 C11.1321696,13.807309 11.7971737,13.3953488 12.3823774,12.8504983 C12.9808812,12.3189369 13.4729843,11.6677741 13.8320864,10.9501661 C14.1911886,10.2325581 14.4172901,9.47508311 14.4970905,8.66445181 C14.5103906,8.47840529 14.5901911,8.31893686 14.7364921,8.19933556 C14.8694929,8.07973427 15.042394,8.01328905 15.215295,8.01328904 C15.4413965,8.01328904 15.6142976,8.09302331 15.7605985,8.25249174 C15.9068994,8.41196017 15.9600997,8.59800669 15.9467996,8.81063119 C15.8536991,9.78073082 15.5743973,10.7242525 15.1354946,11.6013289 C14.6965919,12.4784053 14.1113882,13.2491693 13.3798836,13.9136213 C12.6616791,14.564784 11.837074,15.0830565 10.9326683,15.4418604 C9.98836237,15.8139535 9.01745634,16 7.99334995,16 C6.90274311,16 5.86533663,15.7873754 4.88113051,15.3754152 C3.95012466,14.9900331 3.09891935,14.4186046 2.34081468,13.6611295 C1.59600999,12.9036544 1.0241065,12.0531562 0.625103973,11.1229236 C0.199501264,10.1395349 0,9.10299007 0,8.01328904 C0,7.00332229 0.18620117,6.01993362 0.558603514,5.07641198 C0.917705766,4.15946843 1.43640901,3.34883724 2.08811305,2.63122925 C2.75311719,1.90033222 3.52452206,1.31561468 4.40232755,0.877076417 C5.29343313,0.42524922 6.23773897,0.146179385 7.2086451,0.0531561803 L7.2086451,0.0531561803 Z" id="形状"></path>
                    </g>
                </g>
            </g>
        </g>
    </g>
</svg>