<?xml version="1.0" encoding="UTF-8"?>
<svg width="18px" height="18px" viewBox="0 0 18 18" version="1.1" xmlns="http://www.w3.org/2000/svg" xmlns:xlink="http://www.w3.org/1999/xlink">
    <title>切片</title>
    <g id="页面-1" stroke="none" stroke-width="1" fill="none" fill-rule="evenodd">
        <g id="消息中心" transform="translate(-341.000000, -57.000000)" fill="#323232" fill-rule="nonzero">
            <g id="store_lie_ic" transform="translate(341.000000, 57.000000)">
                <g id="编组" transform="translate(1.500000, 1.000000)">
                    <path d="M13.3949845,6.18740684 C13.4929718,6.09063384 13.5539687,5.95713193 13.5539687,5.81301862 L13.5539687,4.96805439 C13.5539687,4.8212135 13.4935883,4.68773027 13.3961988,4.59155509 L13.3786003,4.57304119 C13.2815097,4.48658067 13.151053,4.43378521 13.0066408,4.43378521 L9.94897489,4.43378521 C9.25936449,4.43378521 8.85704661,4.17466522 8.61827137,3.73899988 C8.41893393,3.37492415 8.37919721,2.92801222 8.37919721,2.42559593 L8.37919721,1.6322189 C8.37919721,1.48020309 8.31730359,1.34186253 8.21840084,1.24204435 L8.20050343,1.22323153 C8.10492608,1.13617319 7.97719693,1.08214471 7.83853877,1.08214471 L7.27726143,1.08214471 C7.12950512,1.08214471 6.99359323,1.14342183 6.89620371,1.24112893 L6.89739937,1.24204435 C6.79849661,1.34186253 6.73660299,1.48020309 6.73660299,1.6322189 L6.73660299,2.42559593 C6.73660299,2.92801222 6.69686627,3.37492415 6.49752883,3.73899988 C6.25877227,4.17438499 5.8567533,4.43378521 5.16682531,4.43378521 L2.10921548,4.43378521 C1.95538751,4.43378521 1.81734586,4.49384799 1.71874202,4.59063967 C1.62226793,4.68773027 1.56188755,4.8212135 1.56188755,4.96805439 L1.56188755,5.81301862 C1.56188755,5.95713193 1.62286575,6.09063384 1.72087177,6.18740684 C1.82428154,6.28962574 1.96381162,6.34700757 2.10921548,6.34700757 L13.0066034,6.34700757 C13.1520324,6.34700757 13.2915701,6.28963029 13.3949845,6.18740684 Z M3.82218498,11.2684131 C3.82218498,11.0660305 4.0600448,10.9019087 4.35312875,10.9019087 C4.64621271,10.9019087 4.88407253,11.0660305 4.88407253,11.2684131 L4.88407253,14.0887857 L7.13861588,14.0887857 L7.13861588,10.2538472 C7.13861588,9.98716098 7.37647571,9.77082288 7.66955966,9.77082288 C7.96264361,9.77082288 8.20050343,9.98716098 8.20050343,10.2538472 L8.20050343,14.0887857 L10.2317464,14.0887857 L10.2317464,11.2684131 C10.2317464,11.0660305 10.4696062,10.9019087 10.7626901,10.9019087 C11.0557741,10.9019087 11.2936339,11.0660305 11.2936339,11.2684131 L11.2936339,14.0887857 L13.1137263,14.0887857 C12.543326,12.6318663 12.5430271,10.4965644 12.5430271,10.4901938 L12.5430271,7.40889512 L2.57310939,7.40889512 L2.57310939,10.4901751 C2.57310939,10.4965644 2.57281048,12.631885 2.00241022,14.0887857 L3.82218498,14.0887857 L3.82218498,11.2684131 Z M13.604952,10.4901751 C13.604952,10.4959292 13.6055498,12.5775389 14.1461896,13.8199697 L14.1537745,13.8363352 L14.1625737,13.8554656 L14.1747171,13.8800325 C14.2372085,14.0159631 14.3161028,14.1855587 14.3161028,14.3958065 C14.3161028,14.8120798 14.1143367,15.1506733 13.4004396,15.1506733 L1.71539793,15.1506733 C1.00181846,15.1506733 0.800052356,14.8129766 0.800052356,14.3958065 C0.800052356,14.1855587 0.878946641,14.0159631 0.941438088,13.8800325 L0.953581418,13.8554656 L0.962361981,13.8363352 L0.969965574,13.8199697 C1.51062401,12.5775389 1.51122184,10.4959479 1.51122184,10.4901751 L1.51122184,7.29297301 C1.31211048,7.21242297 1.13093112,7.09322201 0.97814831,6.94225495 C0.682934604,6.65068424 0.5,6.24868395 0.5,5.81299994 L0.5,4.96805439 C0.5,4.52599979 0.680823533,4.12581166 0.973290978,3.83666962 L0.975121819,3.83666962 C1.26575842,3.54965733 1.66686197,3.37186029 2.10921548,3.37186029 L5.16684399,3.37186029 C5.40137841,3.37186029 5.5193929,3.31816809 5.56854536,3.2286624 C5.65683672,3.06724952 5.67473412,2.77478207 5.67473412,2.42557725 L5.67473412,1.63220022 C5.67473412,1.18863238 5.85495983,0.786632094 6.14256994,0.495659213 C6.43595281,0.201977434 6.83795309,0.0202384815 7.27728011,0.0202384815 L7.83855746,0.0202384815 C8.26120141,0.0202384815 8.64954512,0.188638453 8.93777174,0.462909585 L8.97326763,0.495659213 C9.26089642,0.786632094 9.44110345,1.18863238 9.44110345,1.63220022 L9.44110345,2.42557725 C9.44110345,2.77478207 9.45900085,3.0672682 9.5472922,3.2286624 C9.59644467,3.31816809 9.71416024,3.37187898 9.94899357,3.37187898 L13.0066408,3.37187898 C13.4335255,3.37187898 13.8221682,3.53721509 14.1100959,3.80694649 L14.1425466,3.83666962 C14.4350327,4.12581166 14.6158562,4.52599979 14.6158562,4.96805439 L14.6158562,5.81299994 C14.6158562,6.24868395 14.432903,6.65070292 14.1377079,6.94225495 C13.9866075,7.0915245 13.805784,7.21196766 13.6049333,7.29297301 L13.604952,10.4901751 Z" id="形状"></path>
                </g>
            </g>
        </g>
    </g>
</svg>