<?xml version="1.0" encoding="UTF-8"?>
<svg width="14px" height="14px" viewBox="0 0 14 14" version="1.1" xmlns="http://www.w3.org/2000/svg" xmlns:xlink="http://www.w3.org/1999/xlink">
    <title>切片</title>
    <g id="页面-1" stroke="none" stroke-width="1" fill="none" fill-rule="evenodd">
        <g id="订单提交成功" transform="translate(-36.000000, -602.000000)" fill-rule="nonzero">
            <g id="编组" transform="translate(19.000000, 391.000000)">
                <g id="safe_ic" transform="translate(17.000000, 211.000000)">
                    <rect id="矩形" fill="#000000" opacity="0" x="0" y="0" width="14" height="14"></rect>
                    <path d="M12.5622813,3.2906749 C10.8665583,3.22935162 7.35436465,1.74663852 6.92058296,1.52293931 C6.89156407,1.50797441 6.8763219,1.5 6.8763219,1.5 L6.81170398,1.5 C6.81170398,1.5 3.27951544,3.22524927 1.47035288,3.2906749 C1.31958701,4.05400196 1.16027062,7.9259938 2.43100155,9.8015847 C3.27223219,11.0665223 6.027961,12.1925871 6.80093896,12.4786746 C6.80093896,12.4786746 6.84884535,12.5227791 6.95170483,12.4841337 C7.94978713,12.1090294 10.3360251,11.2191821 11.3482983,9.8015847 C12.7482512,7.66427729 12.7101644,4.07234287 12.5622813,3.2906749 Z M8.90459463,6.44064524 L7.42619597,6.44064524 L7.42619597,6.44064524 L7.42619597,7.30141164 L8.90809227,7.30141164 C9.10519001,7.30141164 9.2649693,7.46119093 9.2649693,7.65828868 C9.2649693,7.85538642 9.10519001,8.01516571 8.90809227,8.01516571 L7.42619597,8.01516571 L7.42619597,8.01516571 L7.42619597,9.21946221 C7.42619597,9.4604556 7.23083223,9.65581935 6.98983883,9.65581935 C6.74884543,9.65581935 6.55348168,9.4604556 6.55348168,9.21946221 L6.55348168,8.01516571 L6.55348168,8.01516571 L5.08687704,8.01516571 C4.88977929,8.01516571 4.73,7.85538642 4.73,7.65828868 C4.73,7.46119093 4.88977929,7.30141164 5.08687704,7.30141164 L6.55346769,7.30141164 L6.55346769,7.30141164 L6.55346769,6.44064524 L5.09037466,6.44064524 C4.89134523,6.44064524 4.73,6.27930001 4.73,6.08027058 C4.73,5.88124114 4.89134523,5.71989591 5.09037466,5.71989591 L6.21250486,5.71989591 L6.21250486,5.71989591 L5.55301504,4.61168321 C5.44621466,4.43221488 5.50512367,4.20014824 5.684592,4.09334785 C5.69086664,4.08961386 5.69724811,4.08606238 5.7037284,4.0826979 C5.90375477,3.97884653 6.1500613,4.04886915 6.26553351,4.24241973 C6.73001503,5.02090627 6.97203541,5.44719988 6.99159464,5.52130055 C7.01458321,5.44084469 7.25495697,5.0116753 7.71271595,4.2337924 C7.82312969,4.04621486 8.06208057,3.979469 8.25370605,4.0826979 C8.43871696,4.18236352 8.50790298,4.41313944 8.40823736,4.59815035 C8.40686035,4.60070652 8.40545413,4.60324684 8.40401897,4.60577082 L7.77051654,5.7198959 L7.77051654,5.7198959 L8.90459463,5.7198959 C9.10362407,5.7198959 9.2649693,5.88124113 9.2649693,6.08027057 C9.2649693,6.2793 9.10362407,6.44064524 8.90459463,6.44064524 Z" id="形状" fill="#BBBBBB"></path>
                </g>
            </g>
        </g>
    </g>
</svg>