<?xml version="1.0" encoding="UTF-8"?>
<svg width="18px" height="18px" viewBox="0 0 18 18" version="1.1" xmlns="http://www.w3.org/2000/svg" xmlns:xlink="http://www.w3.org/1999/xlink">
    <title>切片</title>
    <g id="页面-1" stroke="none" stroke-width="1" fill="none" fill-rule="evenodd">
        <g id="订单提交成功" transform="translate(-39.000000, -747.000000)">
            <g id="编组-3" transform="translate(39.000000, 746.000000)">
                <g id="zhifu_phone_ic" transform="translate(0.000000, 1.000000)">
                    <circle id="椭圆形" stroke="#333333" stroke-width="0.5" fill="#F7F7F7" cx="9" cy="9" r="8.75"></circle>
                    <g id="编组" transform="translate(4.000000, 4.000000)" fill="#131313" fill-rule="nonzero">
                        <path d="M7.73008964,5.85384498 C7.46945297,5.59384577 7.04755181,5.59384577 6.78691514,5.85384498 L6.3153279,6.32542995 C6.04856474,6.59219181 5.18475229,6.3266804 4.42906227,5.57091069 C3.67337225,4.81514098 3.40735938,3.95174953 3.67453934,3.68465421 L3.67512289,3.68407067 L4.1461266,3.21306926 C4.40612707,2.95243386 4.40612707,2.53053474 4.1461266,2.26989934 L2.07112604,0.194992216 C1.81051794,-0.0649974053 1.388643,-0.0649974053 1.12803491,0.194992216 L0.656447649,0.66657717 C0.307988268,1.01503486 0.0957448337,1.47336508 0.0254694139,2.02889667 C-0.039720829,2.54416389 0.020384237,3.12203677 0.204034004,3.74617617 C0.572417254,4.99995694 1.40321777,6.318094 2.54271328,7.45725052 C3.68220879,8.59640705 5.00010216,9.42753698 6.25347219,9.79591845 C6.71522255,9.93171691 7.15146367,10 7.55577659,10 C7.6946139,10.0002191 7.83332765,9.99169915 7.97109348,9.97448217 C8.52662776,9.90420709 8.98496021,9.69196469 9.33341959,9.343507 L9.80500684,8.87192203 C10.0649977,8.6113152 10.0649977,8.18944231 9.80500684,7.92883548 L7.73008964,5.85384498 Z" id="形状"></path>
                    </g>
                </g>
            </g>
        </g>
    </g>
</svg>