<?xml version="1.0" encoding="UTF-8"?>
<svg width="120px" height="120px" viewBox="0 0 120 120" version="1.1" xmlns="http://www.w3.org/2000/svg" xmlns:xlink="http://www.w3.org/1999/xlink">
    <title>切片</title>
    <defs>
        <linearGradient x1="50%" y1="100%" x2="56.4%" y2="-5.55111512e-14%" id="linearGradient-1">
            <stop stop-color="#EFE4E0" stop-opacity="0" offset="0%"></stop>
            <stop stop-color="#EFE4E0" offset="100%"></stop>
        </linearGradient>
        <linearGradient x1="50%" y1="0%" x2="50%" y2="100%" id="linearGradient-2">
            <stop stop-color="#D5D5D5" offset="0%"></stop>
            <stop stop-color="#6B6B6B" stop-opacity="0.059" offset="100%"></stop>
        </linearGradient>
    </defs>
    <g id="页面-1" stroke="none" stroke-width="1" fill="none" fill-rule="evenodd">
        <g id="订单提交成功" transform="translate(-128.000000, -88.000000)">
            <g id="img_pay_success" transform="translate(128.000000, 88.000000)">
                <g id="充值成功" transform="translate(1.666667, 1.666667)">
                    <circle id="椭圆形" fill="#FAF5F3" fill-rule="nonzero" cx="58.3333333" cy="58.3333333" r="58.3333333"></circle>
                    <path d="M47.8713768,115.792301 L47.8713768,64.039538 L68.1612319,64.039538 L68.1612319,115.792301 C61.4481776,116.958019 54.5844311,116.958019 47.8713768,115.792301 Z M12.3641304,94.7694746 L12.3641304,33.6047554 L40.2626812,33.6047554 L40.2626812,113.930707 C29.276166,110.436434 19.56919,103.769506 12.3641304,94.7694746 L12.3641304,94.7694746 Z M78.3061594,41.2134511 L108.740942,41.2134511 L108.740942,87.3202446 C101.925402,99.2014208 91.1537263,108.311677 78.3061594,113.060779 L78.3061594,41.2134511 Z" id="形状" fill="url(#linearGradient-1)" fill-rule="nonzero"></path>
                    <g id="编组" transform="translate(55.710461, 68.862176) rotate(-25.000000) translate(-55.710461, -68.862176) translate(27.005864, 37.159277)" fill-rule="nonzero">
                        <rect id="矩形" fill="#8E7878" x="7.9526721" y="0" width="49.4565217" height="63.4057971" rx="2.53623188"></rect>
                        <path d="M10.488904,0 L53.604846,0 C55.0055682,0 56.1410779,1.13550969 56.1410779,2.53623188 L56.1410779,60.8695652 C56.1410779,62.2702874 55.0055682,63.4057971 53.604846,63.4057971 L10.488904,63.4057971 C9.08818179,63.4057971 7.9526721,62.2702874 7.9526721,60.8695652 L7.9526721,2.53623188 C7.9526721,1.13550969 9.08818179,0 10.488904,0 Z" id="路径" fill="#AFA3A1"></path>
                        <rect id="矩形" fill="#E8E5DA" x="10.488904" y="2.53623188" width="43.115942" height="58.3333333" rx="1.26811594"></rect>
                        <path d="M11.7570199,2.53623188 L52.3367301,2.53623188 C53.0481339,2.54752464 53.6157874,3.13320121 53.6050016,3.84461051 C51.3856431,59.1874094 48.6135417,59.2349638 48.6135417,59.2349638 C48.6135417,59.2349638 35.1683424,59.4499094 23.0150362,58.0194746 C15.2473252,57.0586378 7.55671386,55.5532713 9.09494702e-13,53.5144928 C9.09494702e-13,53.5144928 5.41644022,50.2880888 7.9526721,44.4008605 C10.488904,38.5136322 10.488904,28.7015851 10.488904,28.7015851 L10.488904,3.84461051 C10.4779626,3.13320121 11.0456161,2.54752464 11.7570199,2.53623188 Z" id="路径" fill="url(#linearGradient-2)"></path>
                        <path d="M11.7570199,2.53623188 L52.3367301,2.53623188 C53.0370912,2.53623188 53.604846,3.10398673 53.604846,3.80434783 C51.3856431,57.4485054 50.1175272,58.0163043 50.1175272,58.0163043 C50.1175272,58.0163043 34.9793931,57.6200181 23.1700634,55.7971014 C15.4685624,54.5549333 7.84672508,52.8611917 0.343976449,50.7246377 C3.73632788,49.2201882 6.44822261,46.5082935 7.9526721,43.115942 C10.488904,37.4094203 10.488904,27.8985507 10.488904,27.8985507 L10.488904,3.80434783 C10.488904,3.46802257 10.6225087,3.14547232 10.8603265,2.90765444 C11.0981444,2.66983657 11.4206947,2.53623188 11.7570199,2.53623188 Z" id="路径" fill="#FFFFFF"></path>
                        <rect id="矩形" fill="#F4ECE9" x="15.5613678" y="12.6811594" width="12.6811594" height="12.6811594" rx="0.634057971"></rect>
                        <rect id="矩形" fill="#F4ECE9" x="33.3149909" y="12.6811594" width="15.2173913" height="5.07246377" rx="0.634057971"></rect>
                        <rect id="矩形" fill="#F4ECE9" x="33.3149909" y="20.2898551" width="15.2173913" height="5.07246377" rx="0.634057971"></rect>
                        <path d="M15.5613678,30.4347826 C15.5613678,30.4347826 23.8041214,31.0688406 32.046875,31.0688406 C40.2896286,31.0688406 48.5323822,30.4347826 48.5323822,30.4347826 L48.2153533,34.2391304 C48.2153533,34.2391304 41.4784873,34.8731884 33.3149909,34.8731884 C25.1514946,34.8731884 15.2443388,34.2391304 15.2443388,34.2391304 L15.5613678,30.4347826 Z" id="路径" fill="#F4ECE9"></path>
                        <path d="M15.5613678,36.3790761 C15.5613678,36.3790761 19.9997736,37.1519928 28.2425272,37.2509058 C36.4852808,37.3498188 48.2153533,36.7753623 48.2153533,36.7753623 L47.5812953,41.2137681 C47.5812953,41.2137681 36.3267663,41.9270833 28.2425272,41.9270833 C20.158288,41.9270833 14.7687953,40.5797101 14.7687953,40.5797101 L15.5613678,36.3790761 Z" id="路径" fill="#F4ECE9"></path>
                        <path d="M14.4517663,43.115942 C18.1740016,43.7305162 21.9347152,44.0835995 25.7062953,44.1725996 C32.046875,44.3311141 47.2642663,43.75 47.2642663,43.75 L46.3131793,49.1394928 C46.3131793,49.1394928 34.1338768,50.0113225 25.7062953,49.7735507 C17.2787138,49.535779 13.0251359,48.1884058 13.0251359,48.1884058 L14.4517663,43.115942 Z" id="路径" fill="#F4ECE9"></path>
                    </g>
                    <g id="编组" transform="translate(57.655480, 27.911889) rotate(15.008914) translate(-57.655480, -27.911889) translate(56.545747, 22.838824)" fill-rule="nonzero">
                        <rect id="矩形" fill="#8E7878" x="0.317066551" y="0" width="1.90239931" height="10.1461296" rx="0.634057971"></rect>
                        <rect id="矩形" fill="#D9CFCE" x="9.09494702e-13" y="1.59161573e-12" width="1.90239931" height="10.1461296" rx="0.634057971"></rect>
                    </g>
                    <circle id="椭圆形" fill="#8E7878" fill-rule="nonzero" cx="58.2835145" cy="27.4485507" r="1"></circle>
                    <path d="M10.7155797,25.4812047 C70.6172554,33.9617301 102.47962,20.4087409 102.47962,20.4087409" id="路径" stroke="#E2D3CF" stroke-width="1.16666667" stroke-linecap="round"></path>
                    <g id="编组" transform="translate(55.271739, 21.885643)" fill-rule="nonzero">
                        <rect id="矩形" fill="#8E7878" x="0.317028986" y="0" width="2.53623188" height="12.6811594" rx="0.634057971"></rect>
                        <rect id="矩形" fill="#BCABA9" x="0" y="0" width="2.53623188" height="12.6811594" rx="0.634057971"></rect>
                    </g>
                    <g id="编组" transform="translate(15.450408, 22.347056)" fill-rule="nonzero">
                        <g transform="translate(6.327423, 4.557609) rotate(-40.986533) translate(-6.327423, -4.557609) translate(5.217621, -0.515771)" id="矩形">
                            <rect fill="#8E7878" x="0.317086204" y="1.00044417e-11" width="1.90251722" height="10.1467585" rx="0.634057971"></rect>
                            <rect fill="#D9CFCE" x="-4.54747351e-13" y="0" width="1.90251722" height="10.1467585" rx="0.634057971"></rect>
                        </g>
                        <circle id="椭圆形" fill="#8E7878" transform="translate(6.283624, 3.770500) rotate(-56.000000) translate(-6.283624, -3.770500) " cx="6.28362409" cy="3.77049959" r="1"></circle>
                        <g transform="translate(6.054340, 5.527777) rotate(-56.000000) translate(-6.054340, -5.527777) translate(4.627710, -0.812802)" id="矩形">
                            <rect fill="#8E7878" x="0.317028986" y="0" width="2.53623188" height="12.6811594" rx="0.634057971"></rect>
                            <rect fill="#BCABA9" x="0" y="0" width="2.53623188" height="12.6811594" rx="0.634057971"></rect>
                        </g>
                    </g>
                    <g id="编组" transform="translate(60.068620, 68.435516) rotate(30.000000) translate(-60.068620, -68.435516) translate(52.817533, 57.558886)" fill="#F94227" fill-rule="nonzero">
                        <rect id="矩形" x="-4.54747351e-13" y="16.9192029" width="14.5021739" height="4.83405797"></rect>
                        <polygon id="矩形" transform="translate(12.085145, 10.876630) rotate(90.000000) translate(-12.085145, -10.876630) " points="1.20851449 8.45960145 22.9617754 8.45960145 22.9617754 13.2936594 1.20851449 13.2936594"></polygon>
                    </g>
                </g>
            </g>
        </g>
    </g>
</svg>