<?xml version="1.0" encoding="UTF-8"?>
<svg width="18px" height="18px" viewBox="0 0 18 18" version="1.1" xmlns="http://www.w3.org/2000/svg" xmlns:xlink="http://www.w3.org/1999/xlink">
    <title>common_icon_16_delete_1</title>
    <g id="页面-1" stroke="none" stroke-width="1" fill="none" fill-rule="evenodd" opacity="0.7">
        <g id="搜索" transform="translate(-341.000000, -108.000000)" fill="#131313" fill-rule="nonzero">
            <g id="编组" transform="translate(341.000000, 108.000000)">
                <path d="M12,1.3 C12.8894691,1.3 13.6193901,1.98310681 13.69376,2.85331749 L13.7,3 L13.7,3.799 L16,3.8 C16.3865993,3.8 16.7,4.11340068 16.7,4.5 C16.7,4.85438271 16.4366564,5.14725823 16.0949859,5.19360983 L16,5.2 L15.699,5.199 L15.7,14 C15.7,15.4338162 14.5823676,16.6065953 13.1707522,16.6946881 L13,16.7 L5,16.7 C3.56618382,16.7 2.39340467,15.5823676 2.30531192,14.1707523 L2.3,14 L2.299,5.199 L2,5.2 C1.61340068,5.2 1.3,4.88659932 1.3,4.5 C1.3,4.14561729 1.56334362,3.85274177 1.90501415,3.80639017 L2,3.8 L4.3,3.799 L4.3,3 C4.3,2.11053088 4.98310681,1.3806099 5.85331749,1.30624001 L6,1.3 L12,1.3 Z M14.299,5.199 L3.699,5.199 L3.7,14 C3.7,14.673097 4.21154965,15.2267153 4.86708255,15.2932882 L5,15.3 L13,15.3 C13.673097,15.3 14.2267153,14.7884503 14.2932882,14.1329174 L14.3,14 L14.299,5.199 Z M7.25,7 C7.60438271,7 7.89725823,7.26334362 7.94360983,7.60501415 L7.95,7.7 L7.95,12.7 C7.95,13.0865993 7.63659932,13.4 7.25,13.4 C6.89561729,13.4 6.60274177,13.1366564 6.55639017,12.7949859 L6.55,12.7 L6.55,7.7 C6.55,7.31340068 6.86340068,7 7.25,7 Z M10.75,7 C11.1043827,7 11.3972582,7.26334362 11.4436098,7.60501415 L11.45,7.7 L11.45,12.7 C11.45,13.0865993 11.1365993,13.4 10.75,13.4 C10.3956173,13.4 10.1027418,13.1366564 10.0563902,12.7949859 L10.05,12.7 L10.05,7.7 C10.05,7.31340068 10.3634007,7 10.75,7 Z M12,2.7 L6,2.7 C5.85798392,2.7 5.73901581,2.7986801 5.70792321,2.93121275 L5.7,3 L5.7,3.799 L12.3,3.799 L12.3,3 C12.3,2.85798392 12.2013199,2.73901581 12.0687872,2.70792321 L12,2.7 Z" id="形状结合"></path>
            </g>
        </g>
    </g>
</svg>