<?xml version="1.0" encoding="UTF-8"?>
<svg width="22px" height="22px" viewBox="0 0 22 22" version="1.1" xmlns="http://www.w3.org/2000/svg" xmlns:xlink="http://www.w3.org/1999/xlink">
    <title>切片</title>
    <g id="页面-1" stroke="none" stroke-width="1" fill="none" fill-rule="evenodd">
        <g id="地址管理" transform="translate(-336.000000, -130.000000)" fill="#323232" fill-rule="nonzero">
            <g id="编组-7备份" transform="translate(0.000000, 108.000000)">
                <g id="icon_bianji" transform="translate(336.000000, 22.000000)">
                    <g id="编组-4" transform="translate(3.000000, 3.000000)">
                        <path d="M0,14.7501583 C0.000260575155,14.3361124 0.275837975,14.000492 0.615953916,14 L15.3840461,14 C15.7241258,14.0005711 15.9996614,14.3361277 16,14.7501295 C15.9996091,15.1640631 15.7240698,15.4995083 15.3840461,15.5 L0.615953916,15.5 C0.275939404,15.4995083 0.000403903244,15.1640806 0,14.7501583 Z" id="形状"></path>
                        <path d="M6.04168972,11.7784804 C5.78478968,11.5008219 5.79315725,11.0698007 6.06064024,10.8023223 L13.3661488,3.49693686 L13.3661488,3.49693686 L11.503134,1.63395728 L2.57060456,10.5662195 L1.87799135,12.7636488 L1.50259399,14.1065674 L3.74434768,14.0658729 L0.88043089,14.9685935 C0.814584947,14.989402 0.745938265,15 0.676882591,15 C0.461238985,15 0.258459051,14.8974204 0.130947221,14.7235166 C0.00343539081,14.5496128 0.0238491886,14.4827871 0.0888061523,14.2771606 C0.878490001,11.379637 1.34765414,9.86268043 1.49629856,9.72629086 L11.0244341,0.198216541 C11.2887582,-0.0660721802 11.7172765,-0.0660721802 11.9816007,0.198216541 L14.8017822,3.01849651 C15.0660726,3.28281896 15.0660726,3.71133455 14.8017822,3.975657 L6.980682,11.796707 C6.72622629,12.0511611 6.31367339,12.0511597 6.05921932,11.796704 C6.05325879,11.7907435 6.04741449,11.7846678 6.04168972,11.7784804 Z" id="路径"></path>
                    </g>
                </g>
            </g>
        </g>
    </g>
</svg>