<?xml version="1.0" encoding="UTF-8"?>
<svg width="22px" height="22px" viewBox="0 0 22 22" version="1.1" xmlns="http://www.w3.org/2000/svg" xmlns:xlink="http://www.w3.org/1999/xlink">
    <title>切片</title>
    <g id="页面-1" stroke="none" stroke-width="1" fill="none" fill-rule="evenodd">
        <g id="商品详情" transform="translate(-24.000000, -1229.000000)" fill="#333333" fill-rule="nonzero">
            <g id="icon_kefu" transform="translate(24.000000, 1229.000000)">
                <path d="M18.7928,9.7586 C18.7124,5.4668 15.3854,2 11.3,2 L10.7,2 C6.6146,2 3.2876,5.4668 3.2072,9.758 C2.4896,10.1738 2,10.9412 2,11.8286 L2,13.0286 C2,14.3522 3.0764,15.4286 4.4,15.4286 C5.7236,15.4286 6.8,14.3522 6.8,13.0286 L6.8,11.8286 C6.79809354,10.5131734 5.73816231,9.44414632 4.4228,9.431 C4.6574,5.954 7.3796,3.2 10.7,3.2 L11.3,3.2 C14.621,3.2 17.3426,5.954 17.5772,9.431 C16.2618377,9.44414632 15.2019065,10.5131734 15.2,11.8286 L15.2,13.0286 C15.2,14.1122 15.926,15.0194 16.9136,15.3164 C16.0222927,16.4896315 14.7495336,17.3150788 13.3148,17.6504 C13.1116686,17.0412391 12.5421352,16.6299094 11.9,16.6286 C11.0715729,16.6286 10.4,17.3001729 10.4,18.1286 C10.4,18.9570271 11.0715729,19.6286 11.9,19.6286 C12.4196041,19.6279087 12.9015296,19.3572942 13.1726,18.914 C15.3612279,18.5311099 17.2698573,17.2030814 18.3896,15.284 C19.3244,14.9564 20,14.0744 20,13.0286 L20,11.8286 C20,10.9412 19.5104,10.1738 18.7928,9.7586 Z M5.6,11.8286 L5.6,13.0286 C5.6,13.6904 5.0618,14.2286 4.4,14.2286 C3.7382,14.2286 3.2,13.6904 3.2,13.0286 L3.2,11.8286 C3.2,11.1668 3.7382,10.6286 4.4,10.6286 C5.0618,10.6286 5.6,11.1668 5.6,11.8286 Z M18.8,13.0286 C18.8,13.6718 18.29,14.1944 17.654,14.2232 L17.6072,14.201 C17.603,14.2106 17.5964,14.2184 17.5922,14.2274 C16.9329741,14.2231153 16.4006453,13.6878395 16.4,13.0286 L16.4,11.8286 C16.4,11.1668 16.9382,10.6286 17.6,10.6286 C18.2618,10.6286 18.8,11.1668 18.8,11.8286 L18.8,13.0286 Z" id="形状"></path>
            </g>
        </g>
    </g>
</svg>