<?xml version="1.0" encoding="UTF-8"?>
<svg width="20px" height="20px" viewBox="0 0 20 20" version="1.1" xmlns="http://www.w3.org/2000/svg" xmlns:xlink="http://www.w3.org/1999/xlink">
    <title>切片</title>
    <g id="页面-1" stroke="none" stroke-width="1" fill="none" fill-rule="evenodd">
        <g id="确认订单-未设置收货地址" transform="translate(-24.000000, -115.000000)" stroke="#333333">
            <g id="编组-4" transform="translate(12.000000, 100.000000)">
                <g id="order_add_ic" transform="translate(12.000000, 15.000000)">
                    <ellipse id="椭圆形" fill="#D8D8D8" cx="10" cy="17.25" rx="3.5" ry="1"></ellipse>
                    <path d="M10,2.165 C11.7526156,2.165 13.3404376,2.8445879 14.4893667,3.94685637 C15.6281096,5.03935226 16.335,6.54790171 16.335,8.21571381 C16.335,9.78541931 15.7088272,11.2140479 14.6813144,12.2918462 L14.4840075,12.4897709 L10.0895912,16.8015765 L5.51063326,12.4845712 C4.37189039,11.3920754 3.665,9.88352591 3.665,8.21571381 C3.665,6.54790171 4.37189039,5.03935226 5.51063326,3.94685637 C6.6595624,2.8445879 8.24738438,2.165 10,2.165 Z M10,6.835 C9.57388934,6.835 9.14777868,6.99755574 8.82266721,7.32266721 C8.49755574,7.64777868 8.335,8.07388934 8.335,8.5 C8.335,8.92611066 8.49755574,9.35222132 8.82266721,9.67733279 C9.14777868,10.0024443 9.57388934,10.165 10,10.165 C10.4261107,10.165 10.8522213,10.0024443 11.1773328,9.67733279 C11.5024443,9.35222132 11.665,8.92611066 11.665,8.5 C11.665,8.07388934 11.5024443,7.64777868 11.1773328,7.32266721 C10.8522213,6.99755574 10.4261107,6.835 10,6.835 Z" id="形状" stroke-width="1.33"></path>
                </g>
            </g>
        </g>
    </g>
</svg>