<?xml version="1.0" encoding="UTF-8"?>
<svg width="28px" height="28px" viewBox="0 0 28 28" version="1.1" xmlns="http://www.w3.org/2000/svg" xmlns:xlink="http://www.w3.org/1999/xlink">
    <title>切片</title>
    <g id="页面-1" stroke="none" stroke-width="1" fill="none" fill-rule="evenodd">
        <g id="我的" transform="translate(-22.000000, -693.000000)">
            <g id="编组-3" transform="translate(12.000000, 519.000000)">
                <g id="mine/list备份-3" transform="translate(10.000000, 174.000000)">
                    <g id="编组" transform="translate(8.166667, 7.000000)">
                        <path d="M11.6666667,11.6666667 C11.6666667,12.9553311 10.6219977,14 9.33333333,14 L2.33333333,14 C1.04466892,14 0,12.9553311 0,11.6666667 L0,2.33333333 C0,1.04466892 1.04466892,0 2.33333333,0 L9.33333333,0 C10.6219977,0 11.6666667,1.04466892 11.6666667,2.33333333" id="路径" stroke="#131313" stroke-width="1.5" stroke-linecap="round"></path>
                        <path d="M13.7119142,7.54545455 L9.17691139,7.54545455 C8.87639916,7.54545455 8.63052551,7.30000001 8.63052551,6.99999999 C8.63052551,6.69999998 8.87639916,6.45454545 9.17691139,6.45454545 L13.7119142,6.45454545 C14.0124265,6.45454545 14.2583001,6.69999999 14.2583001,6.99999999 C14.2583001,7.29999999 14.0124265,7.54545455 13.7119142,7.54545455 Z" id="路径" fill="#131313" fill-rule="nonzero"></path>
                        <path d="M7.75,6.23115234 L14,6.23115234 L14,6.23115234 L14,7.73115234 L7.75,7.73115234 C7.33578644,7.73115234 7,7.3953659 7,6.98115234 C7,6.56693878 7.33578644,6.23115234 7.75,6.23115234 Z" id="矩形" fill="#131313"></path>
                        <path d="M12.4552267,10.1909091 C12.3186302,10.1909091 12.1820338,10.1363636 12.1000759,10.0545454 C11.8815215,9.86363636 11.8542022,9.5090909 12.0454373,9.29090909 L14.0670651,7.02727272 L14.0943844,6.99999999 L14.0670651,6.97272726 L11.9907987,4.65454545 C11.7995636,4.43636364 11.7995636,4.08181818 12.0454373,3.89090908 C12.2639916,3.7 12.6191425,3.7 12.8103775,3.94545454 L14.8593246,6.23636364 C15.269114,6.64545455 15.269114,7.32727272 14.8593246,7.73636363 L12.8376968,10 C12.7557389,10.1363636 12.5918232,10.1909091 12.4552267,10.1909091 L12.4552267,10.1909091 Z" id="路径" stroke="#131313" stroke-width="0.3" fill="#131313" fill-rule="nonzero"></path>
                    </g>
                </g>
            </g>
        </g>
    </g>
</svg>