<?xml version="1.0" encoding="UTF-8"?>
<svg width="60px" height="19px" viewBox="0 0 60 19" version="1.1" xmlns="http://www.w3.org/2000/svg" xmlns:xlink="http://www.w3.org/1999/xlink">
    <title>未实名</title>
    <defs>
        <linearGradient x1="95.0106316%" y1="50.7031592%" x2="15.9431791%" y2="48.0655611%" id="linearGradient-1">
            <stop stop-color="#FF8756" offset="0%"></stop>
            <stop stop-color="#F93147" offset="100%"></stop>
        </linearGradient>
        <linearGradient x1="71.3489355%" y1="69.5956251%" x2="7.08772131%" y2="60.0331985%" id="linearGradient-2">
            <stop stop-color="#D68D00" offset="0%"></stop>
            <stop stop-color="#F5A107" offset="100%"></stop>
        </linearGradient>
        <linearGradient x1="84.9222712%" y1="89.5840796%" x2="16.6436858%" y2="14.5294012%" id="linearGradient-3">
            <stop stop-color="#FF828A" offset="0%"></stop>
            <stop stop-color="#FEE5B1" offset="100%"></stop>
        </linearGradient>
        <linearGradient x1="18.6517401%" y1="18.1925187%" x2="89.3515803%" y2="81.2848687%" id="linearGradient-4">
            <stop stop-color="#F9364B" offset="0%"></stop>
            <stop stop-color="#FB374F" offset="100%"></stop>
        </linearGradient>
        <linearGradient x1="86.4505902%" y1="88.7314356%" x2="13.997373%" y2="11.8946146%" id="linearGradient-5">
            <stop stop-color="#FFD5BB" offset="0%"></stop>
            <stop stop-color="#FF9590" offset="100%"></stop>
        </linearGradient>
        <path d="M9,15.5 C8.12274146,15.5 7.27138479,15.3280293 6.46964749,14.9890784 L6.4696474,14.9890784 C5.69738185,14.662815 4.9957804,14.1897644 4.40376597,13.5961618 L4.40376647,13.5961623 C3.81013068,13.0041581 3.33711,12.3025092 3.01096775,11.5301674 C2.67188508,10.7285612 2.5,9.87733851 2.5,8.99995175 C2.5,8.12269206 2.67188508,7.27146807 3.01096775,6.46973607 C3.33846071,5.69560649 3.80697944,5.00051668 4.40375377,4.40374121 C5.00053445,3.80696446 5.69562376,3.33832049 6.46963519,3.01096438 C7.2713763,2.67188394 8.12272915,2.5 9,2.5 C9.87726011,2.5 10.7283499,2.67188394 11.5300999,3.01096438 L11.5301003,3.01096451 C12.3024459,3.33716179 13.0041324,3.81017046 13.5962358,4.40374134 L13.5962357,4.40374118 C14.1897152,4.99587495 14.662713,5.69749592 14.9890217,6.46973604 C15.3281043,7.27147186 15.5,8.12255226 15.5,8.99995173 L15.5,9.00005038 C15.501549,9.86923507 15.3277462,10.7298047 14.9889837,11.5302534 L14.9889836,11.5302536 C14.6626444,12.3025572 14.1896517,13.0042633 13.5961976,13.5965153 L13.5961974,13.5965155 C13.0040547,14.1900126 12.3023706,14.6629705 11.5300619,14.9891652 C10.7284516,15.3283765 9.87723475,15.5 8.99995656,15.5 L9,15.5 Z" id="path-6"></path>
        <filter x="-17.3%" y="-17.3%" width="134.6%" height="134.6%" filterUnits="objectBoundingBox" id="filter-7">
            <feGaussianBlur stdDeviation="1" in="SourceAlpha" result="shadowBlurInner1"></feGaussianBlur>
            <feOffset dx="0" dy="-0.5" in="shadowBlurInner1" result="shadowOffsetInner1"></feOffset>
            <feComposite in="shadowOffsetInner1" in2="SourceAlpha" operator="arithmetic" k2="-1" k3="1" result="shadowInnerInner1"></feComposite>
            <feColorMatrix values="0 0 0 0 0.800951087   0 0 0 0 0   0 0 0 0 0.0845224765  0 0 0 1 0" type="matrix" in="shadowInnerInner1"></feColorMatrix>
        </filter>
        <linearGradient x1="31.9025975%" y1="27.5328433%" x2="38.6935134%" y2="53.8023362%" id="linearGradient-8">
            <stop stop-color="#FFEFD2" offset="0%"></stop>
            <stop stop-color="#FCA175" offset="100%"></stop>
        </linearGradient>
        <path d="M0.289875467,0 L2.48870967,0 C3.51957026,-6.33455229e-16 4.46234035,0.581236371 4.92537605,1.50225293 L6.33497819,4.30606897 L6.33497819,4.30606897 L9.30396362,0.927100739 C9.8217641,0.337797964 10.5682475,1.47637265e-15 11.3527187,0 L12.6168316,0 C12.717247,6.29541874e-16 12.7986498,0.0814027728 12.7986498,0.181818182 C12.7986498,0.223724965 12.7841735,0.264345244 12.7576701,0.296806732 L5.33145277,9.39247194 C5.15681011,9.60637507 4.8418315,9.63820198 4.62792837,9.46355931 C4.57145443,9.41745079 4.52574705,9.35954989 4.49400943,9.29391434 L0.126189122,0.260967607 C0.082476101,0.170566135 0.120324569,0.061844857 0.210726042,0.0181318363 C0.235404971,0.00619850676 0.262462807,-1.05986679e-16 0.289875467,0 Z" id="path-9"></path>
        <linearGradient x1="29.5670069%" y1="63.8250032%" x2="72.7041411%" y2="11.424772%" id="linearGradient-11">
            <stop stop-color="#FFC88E" offset="0%"></stop>
            <stop stop-color="#FFE4B5" offset="100%"></stop>
        </linearGradient>
    </defs>
    <g id="页面-1" stroke="none" stroke-width="1" fill="none" fill-rule="evenodd">
        <g id="我的" transform="translate(-74.000000, -125.000000)">
            <g id="未实名" transform="translate(74.000000, 125.000000)">
                <path d="M8.5,2 L52.5,2 C56.6421356,2 60,5.35786438 60,9.5 C60,13.6421356 56.6421356,17 52.5,17 L8.5,17 C4.35786438,17 1,13.6421356 1,9.5 C1,5.35786438 4.35786438,2 8.5,2 Z" id="矩形" fill="url(#linearGradient-1)" fill-rule="nonzero"></path>
                <text id="实名认证" font-family="PingFangSC-Semibold, PingFang SC" font-size="9" font-weight="500" line-spacing="9" fill="#FFFFFF">
                    <tspan x="19" y="15">实名认证</tspan>
                </text>
                <g id="编组-9" transform="translate(0.000000, 0.500000)">
                    <g id="编组-10" fill-rule="nonzero">
                        <polygon id="路径" fill="url(#linearGradient-2)" points="5.82740552 14.0742481 6.48211617 14.3979513 11.3034061 16.8472105 15.2836734 13.6698506 16.6596602 8.78330948 14.2011174 7.60288116 6.14244183 13.1603719 5.54402543 13.6275106"></polygon>
                        <path d="M9,18 C7.78533432,18 6.60653278,17.7618867 5.49643499,17.2925701 L5.49643486,17.2925701 C4.4271441,16.8408208 3.45569594,16.1858277 2.63598365,15.3639163 L2.63598435,15.363917 C1.8140271,14.544219 1.15907538,13.5727051 0.70749381,12.5033088 C0.23799472,11.3933925 0,10.2147764 0,8.9999332 C0,7.78526593 0.23799472,6.6066481 0.70749381,5.49655763 C1.1609456,4.42468591 1.80966384,3.46225387 2.63596675,2.63594937 C3.46227847,1.8096431 4.42470982,1.16075145 5.49641796,0.707489143 C6.60652103,0.23799315 7.78531729,0 9,0 C10.2146679,0 11.3930999,0.23799315 12.5032153,0.707489143 L12.5032157,0.707489325 C13.5726173,1.15914709 14.5441834,1.81408217 15.3640188,2.63594955 L15.3640186,2.63594933 C16.1857594,3.45582686 16.8406795,4.42730205 17.2924915,5.4965576 C17.7619906,6.60665334 18,7.78507236 18,8.99993316 L18,9.00006976 C18.0021447,10.2035562 17.7614947,11.3951142 17.292439,12.5034277 L17.2924389,12.503428 C16.8405846,13.5727715 16.1856716,14.5443646 15.3639659,15.3644058 L15.3639657,15.364406 C14.5440757,16.1861714 13.5725132,16.8410361 12.5031626,17.2926903 C11.3932407,17.7623675 10.2146327,18 8.99993985,18 L9,18 Z" id="路径" fill="url(#linearGradient-3)"></path>
                        <g id="路径">
                            <use fill="url(#linearGradient-4)" xlink:href="#path-6"></use>
                            <use fill="black" fill-opacity="1" filter="url(#filter-7)" xlink:href="#path-6"></use>
                            <path stroke="url(#linearGradient-5)" stroke-width="1" d="M9,2 C9.82674523,2 10.6318678,2.14191525 11.3987147,2.42200208 C12.464557,2.86228296 13.126955,3.29059316 13.705601,3.81700147 C14.5981944,4.69645607 15.1006315,5.44927334 15.4495286,6.27497122 C15.8147124,7.13842112 16,8.05499228 15.9999992,8.99906079 C16.0014594,9.81854489 15.8582772,10.6308161 15.5779568,11.3988067 C15.1375363,12.4646632 14.7092527,13.1270413 14.1829573,13.7057661 C13.3034662,14.5985062 12.550554,15.1009155 11.7249153,15.4496347 C10.969278,15.769392 10.172733,15.9509724 9.35224964,15.9913584 C8.16038825,16.0005419 7.36194454,15.8558265 6.60108992,15.5780199 C5.53523129,15.1376869 4.87290251,14.7093285 4.29433015,14.18288 C3.40164012,13.3035826 2.89915645,12.5506833 2.55047209,11.724959 C2.18528474,10.8616402 2,9.94490768 2,8.99995175 C2,8.05514244 2.18527725,7.1384165 2.55047913,6.27492788 C2.90312785,5.44133499 3.40757921,4.69281022 4.05020154,4.05018665 C4.69284259,3.40754984 5.44138947,2.90296521 6.27487255,2.55045649 C7.13832381,2.18527697 8.05518342,2 9,2 Z"></path>
                        </g>
                    </g>
                    <g id="路径-2" transform="translate(2.845639, 5.705634)">
                        <mask id="mask-10" fill="white">
                            <use xlink:href="#path-9"></use>
                        </mask>
                        <use id="蒙版" fill="url(#linearGradient-8)" fill-rule="nonzero" xlink:href="#path-9"></use>
                        <path d="M10.2603184,-0.302457086 L5.34989977,5.43531201 C5.01158899,5.83062435 4.52012648,6.06205387 3.99989054,6.07103088 L1.52839958,6.11367805 L1.52839958,6.11367805 L4.57144385,11.9283747 L14.3596751,-0.550492723 L10.2603184,-0.302457086 Z" fill="url(#linearGradient-11)" mask="url(#mask-10)"></path>
                    </g>
                </g>
            </g>
        </g>
    </g>
</svg>