<?xml version="1.0" encoding="UTF-8"?>
<svg width="28px" height="28px" viewBox="0 0 28 28" version="1.1" xmlns="http://www.w3.org/2000/svg" xmlns:xlink="http://www.w3.org/1999/xlink">
    <title>切片</title>
    <g id="页面-1" stroke="none" stroke-width="1" fill="none" fill-rule="evenodd">
        <g id="标签栏" transform="translate(-291.000000, -90.000000)">
            <g id="tabbar备份" transform="translate(0.000000, 87.000000)">
                <g id="tab/icon/" transform="translate(291.000000, 3.000000)">
                    <path d="M14,3.33333333 C15.6568542,3.33333333 17.1568542,4.00490621 18.2426407,5.09069265 C19.3284271,6.17647908 20,7.67647908 20,9.33333333 C20,11.1229684 19.2164027,12.7295276 17.9737843,13.8288886 C17.3426912,14.387225 16.5961798,14.812101 15.7819532,15.0664759 C16.623266,15.1306447 17.489083,15.2891649 18.3607662,15.5391118 C20.4484229,16.1377274 22.229651,17.1632429 23.46603,18.5140543 C24.5863106,19.7380219 25.25,21.2308424 25.25,22.8961224 C25.25,23.2025081 25.0348275,23.4427536 24.7626633,23.6675089 C24.2554001,24.0864107 23.5017174,24.4253321 22.5929813,24.7133484 C20.333321,25.4295288 17.1656537,25.7786572 14,25.7786572 C10.8343463,25.7786572 7.66667902,25.4295288 5.40701868,24.7133484 C4.49828262,24.4253321 3.74459991,24.0864107 3.23733668,23.6675089 C2.96517249,23.4427536 2.75,23.2025081 2.75,22.8961224 C2.75,21.2308751 3.41366088,19.7380801 4.53383116,18.5141003 C5.77014539,17.1632132 7.55126725,16.1376045 9.63868729,15.5388708 C10.510017,15.2889477 11.3755158,15.1303832 12.2159135,15.0660244 C11.4019672,14.8114367 10.6561367,14.386669 10.0256873,13.8287563 C8.78358995,12.729569 8,11.1229851 8,9.33333333 C8,7.67647908 8.67157288,6.17647908 9.75735931,5.09069265 C10.8431458,4.00490621 12.3431458,3.33333333 14,3.33333333 Z" id="形状结合" stroke="#999999" stroke-width="2"></path>
                    <rect id="矩形" fill="#D8D8D8" x="13" y="19" width="2" height="5" rx="1"></rect>
                </g>
            </g>
        </g>
    </g>
</svg>