<?xml version="1.0" encoding="UTF-8"?>
<svg width="28px" height="28px" viewBox="0 0 28 28" version="1.1" xmlns="http://www.w3.org/2000/svg" xmlns:xlink="http://www.w3.org/1999/xlink">
    <title>切片</title>
    <g id="页面-1" stroke="none" stroke-width="1" fill="none" fill-rule="evenodd">
        <g id="我的" transform="translate(-40.000000, -437.000000)">
            <g id="编组-2备份" transform="translate(12.000000, 389.000000)">
                <g id="mine/myorder" transform="translate(21.000000, 48.000000)">
                    <g id="mine/icon/myorder_dfk" transform="translate(7.000000, 0.000000)">
                        <rect x="0" y="0" width="28" height="28"></rect>
                        <g id="编组" transform="translate(3.000000, 3.000000)">
                            <path d="M14,21 L4,21 C1.790861,21 0,19.209139 0,17 L0,4 C0,1.790861 1.790861,0 4,0 L14,0 C16.209139,0 18,1.790861 18,4 L18,4.14195963 L18,4.14195963" id="路径" stroke="#3A2931" stroke-width="2"></path>
                            <path d="M6.05092542,4 L18,4 C20.209139,4 22,5.790861 22,8 L22,19 M17,21 L4,21 C1.790861,21 0,19.209139 0,17 L0,8" id="形状" stroke="#3A2931" stroke-width="2" stroke-linecap="round"></path>
                            <path d="M21.9986626,10.7441745 L21.9986626,14.0521477 L15.287281,14.0521477 C14.8397675,14.0521477 14.4351211,13.8678973 14.1420183,13.5715712 C13.8449786,13.2712648 13.662164,12.8561483 13.662164,12.3981611 C13.662164,11.9401739 13.8449786,11.5250574 14.1420183,11.224751 C14.4351211,10.9284248 14.8397675,10.7441745 15.287281,10.7441745 L15.287281,10.7441745 L21.9986626,10.7441745 Z" id="路径" stroke="#3A2931" stroke-width="2" fill-rule="nonzero"></path>
                            <g transform="translate(15.000000, 16.000000)" fill="#F99627" fill-rule="nonzero" id="形状结合">
                                <path d="M5.54399243,0 C5.86187323,0 6.16461684,0.162447257 6.33112583,0.443037975 L7.87511826,3.05696203 C8.04162725,3.33755274 8.04162725,3.66244726 7.87511826,3.94303797 L6.33112583,6.55696203 C6.16461684,6.82278481 5.86187323,7 5.54399243,7 L2.45600757,7 C2.13812677,7 1.83538316,6.83755274 1.66887417,6.55696203 L0.124881741,3.94303797 C-0.0416272469,3.66244726 -0.0416272469,3.33755274 0.124881741,3.05696203 L1.66887417,0.443037975 C1.83538316,0.162447257 2.13812677,0 2.45600757,0 L5.54399243,0 Z M4,2 C3.17157288,2 2.5,2.67157288 2.5,3.5 C2.5,4.32842712 3.17157288,5 4,5 C4.82842712,5 5.5,4.32842712 5.5,3.5 C5.5,2.67157288 4.82842712,2 4,2 Z"></path>
                            </g>
                        </g>
                    </g>
                </g>
            </g>
        </g>
    </g>
</svg>