<?xml version="1.0" encoding="UTF-8"?>
<svg width="28px" height="28px" viewBox="0 0 28 28" version="1.1" xmlns="http://www.w3.org/2000/svg" xmlns:xlink="http://www.w3.org/1999/xlink">
    <title>切片</title>
    <g id="v1.2" stroke="none" stroke-width="1" fill="none" fill-rule="evenodd">
        <g id="我的" transform="translate(-22.000000, -801.000000)" stroke="#131313" stroke-width="1.5">
            <g id="编组-3" transform="translate(12.000000, 519.000000)">
                <g id="mine/list备份-6" transform="translate(10.000000, 282.000000)">
                    <g id="编组-2" transform="translate(5.000000, 5.500000)">
                        <path d="M6.67857143,7.6656519 L8.76190476,9.74898523 L10.8452381,7.6656519 M6.26190476,9.74898523 L11.2619048,9.74898523 M6.26190476,12.0943387 L11.2619048,12.0943387 M8.76190476,9.74898523 L8.76190476,14.7489852" id="形状结合" stroke-linecap="round" stroke-linejoin="round"></path>
                        <path d="M16,5.75 C16.345178,5.75 16.657678,5.88991102 16.8838835,6.11611652 C17.110089,6.34232203 17.25,6.65482203 17.25,7 L17.25,7 L17.25,15.5 C17.25,15.845178 17.110089,16.157678 16.8838835,16.3838835 C16.657678,16.610089 16.345178,16.75 16,16.75 L16,16.75 L2,16.75 C1.65482203,16.75 1.34232203,16.610089 1.11611652,16.3838835 C0.889911016,16.157678 0.75,15.845178 0.75,15.5 L0.75,15.5 L0.75,7 C0.75,6.65482203 0.889911016,6.34232203 1.11611652,6.11611652 C1.34232203,5.88991102 1.65482203,5.75 2,5.75 L2,5.75 Z" id="形状结合"></path>
                    </g>
                </g>
            </g>
        </g>
    </g>
</svg>