<?xml version="1.0" encoding="UTF-8"?>
<svg width="28px" height="28px" viewBox="0 0 28 28" version="1.1" xmlns="http://www.w3.org/2000/svg" xmlns:xlink="http://www.w3.org/1999/xlink">
    <title>切片</title>
    <g id="页面-1" stroke="none" stroke-width="1" fill="none" fill-rule="evenodd">
        <g id="我的" transform="translate(-308.000000, -307.000000)">
            <g id="编组-2" transform="translate(12.000000, 259.000000)">
                <g id="mine/myorder备份-4" transform="translate(278.500000, 48.000000)">
                    <g id="mine/icon/myorder_dfk" transform="translate(17.500000, 0.000000)">
                        <rect x="0" y="0" width="28" height="28"></rect>
                        <polygon id="路径" fill="#FAE7E3" fill-rule="nonzero" points="22.769025 4.79163474 23.9788685 4.79163474 23.9788685 23.7916347 22.769025 23.7916347"></polygon>
                        <polygon id="路径" fill="#FAE7E3" fill-rule="nonzero" points="3.47465561 22.7386307 24.1337435 22.7386307 24.1337435 23.9617794 3.47465561 23.9617794"></polygon>
                        <path d="M17.4856932,9.67261675 C17.8560791,10.0445164 17.8560257,10.6458974 17.4855738,11.0177313 L15.6667444,12.8433459 L15.6667444,12.8433459 L17.1660426,12.8433459 C17.691387,12.8433459 18.1172628,13.2692217 18.1172628,13.7945662 C18.1172628,14.3199106 17.691387,14.7457864 17.1660426,14.7457864 L15.2751552,14.7457864 L15.2751552,14.7457864 L15.2751552,16.0140899 L17.1660426,16.0140899 C17.691387,16.0140899 18.1172628,16.4399658 18.1172628,16.9653102 C18.1172628,17.4906546 17.691387,17.9165304 17.1660426,17.9165304 L15.2751552,17.9165304 L15.2751552,17.9165304 L15.2751552,19.5057386 C15.2751552,20.0289562 14.8510036,20.4531078 14.327786,20.4531078 C13.8045685,20.4531078 13.3804168,20.0289562 13.3804168,19.5057386 L13.3804168,17.9165304 L13.3804168,17.9165304 L11.4895295,17.9165304 C10.964185,17.9165304 10.5383092,17.4906546 10.5383092,16.9653102 C10.5383092,16.4399658 10.964185,16.0140899 11.4895295,16.0140899 L13.3804168,16.0140899 L13.3804168,16.0140899 L13.3804168,14.7457864 L11.4895295,14.7457864 C10.964185,14.7457864 10.5383092,14.3199106 10.5383092,13.7945662 C10.5383092,13.2692217 10.964185,12.8433459 11.4895295,12.8433459 L12.988206,12.8433459 L12.988206,12.8433459 L11.1699102,11.0177891 C10.7994953,10.645895 10.7994879,10.0445051 11.1698936,9.67260188 C11.5383566,9.30264934 12.1369606,9.30144176 12.5069131,9.66990469 C12.5078258,9.67081366 12.5087366,9.67172449 12.5096455,9.67263718 L14.327786,11.4983205 L14.327786,11.4983205 L16.1459521,9.67263326 C16.5143919,9.30266943 17.1129862,9.30143389 17.48295,9.66987361 C17.4838663,9.67078611 17.4847807,9.67170049 17.4856932,9.67261675 Z" id="路径" fill="#F94227"></path>
                        <path d="M4,11.4623398 L4,8 C4,5.790861 5.790861,4 8,4 L21,4 C23.209139,4 25,5.790861 25,8 L25,21 C25,23.209139 23.209139,25 21,25 L8,25 C5.790861,25 4,23.209139 4,21 L4,17.0480332" id="路径" stroke="#3A2931" stroke-width="2" stroke-linecap="round" stroke-linejoin="round"></path>
                        <path d="M5.5269169,12.4142136 L3.5269169,12.4142136 C2.97463216,12.4142136 2.5269169,11.9664983 2.5269169,11.4142136 L2.5269169,9.41421356 L2.5269169,9.41421356" id="路径" stroke="#3A2931" stroke-width="2" stroke-linecap="round" transform="translate(4.026917, 10.914214) rotate(-45.000000) translate(-4.026917, -10.914214) "></path>
                    </g>
                </g>
            </g>
        </g>
    </g>
</svg>