<?xml version="1.0" encoding="UTF-8"?>
<svg width="28px" height="28px" viewBox="0 0 28 28" version="1.1" xmlns="http://www.w3.org/2000/svg" xmlns:xlink="http://www.w3.org/1999/xlink">
    <title>切片</title>
    <g id="页面-1" stroke="none" stroke-width="1" fill="none" fill-rule="evenodd">
        <g id="我的" transform="translate(-174.000000, -437.000000)">
            <g id="编组-2备份" transform="translate(12.000000, 389.000000)">
                <g id="mine/myorder备份-2" transform="translate(155.000000, 48.000000)">
                    <g id="mine/icon/myorder_dfk" transform="translate(7.000000, 0.000000)">
                        <rect x="0" y="0" width="28" height="28"></rect>
                        <g id="编组" transform="translate(1.000000, 3.000000)" fill-rule="nonzero">
                            <path d="M17.4494986,8.125 L17.4498304,11.5000785 L22.1344986,11.5 L22.1354535,13.1258052 L15.6934986,13.1258052 L15.6934986,8.12580516 L17.4494986,8.125 Z" id="形状结合" fill="#3A2931"></path>
                            <path d="M14.3564662,1 C14.9087509,1 15.4087509,1.22385763 15.7706798,1.58578644 C16.1326086,1.94771525 16.3564662,2.44771525 16.3564662,3 L16.3564662,3 L16.3564662,5.5569543 L19.0506144,5.5569543 C20.6918963,5.5569543 22.1805836,6.21770781 23.2587675,7.28529204 C24.3331659,8.34912815 25,9.81756328 25,11.4380207 L25,11.4380207 L25,17.7834851 C25,18.3357698 24.7761424,18.8357698 24.4142136,19.1976987 C24.0522847,19.5596275 23.5522847,19.7834851 23,19.7834851 L23,19.7834851 L21.2907982,19.7834851 C21.2120307,20.5457323 20.8038185,21.1761805 20.229762,21.567178 C19.8234442,21.8439264 19.3340276,22.0008521 18.8167596,22.0001538 C18.2953827,22.0001538 17.8070864,21.8422947 17.4034896,21.5673996 C16.823329,21.1722446 16.4179449,20.5358399 16.3450437,19.7834851 L16.3450437,19.7834851 L10.2834902,19.7834851 C10.2047228,20.5457323 9.79651055,21.1761805 9.22245406,21.567178 C8.81613621,21.8439264 8.32671968,22.0008521 7.80945163,22.0001538 C7.28807477,22.0001538 6.79977845,21.8422947 6.39618169,21.5673996 C5.81602099,21.1722446 5.4106369,20.5358399 5.33773576,19.7834851 L5.33773576,19.7834851 L3,19.7834851 C2.44771525,19.7834851 1.94771525,19.5596275 1.58578644,19.1976987 C1.22385763,18.8357698 1,18.3357698 1,17.7834851 L1,17.7834851 L1,3 C1,2.44771525 1.22385763,1.94771525 1.58578644,1.58578644 C1.94771525,1.22385763 2.44771525,1 3,1 L3,1 Z" id="形状" stroke="#3A2931" stroke-width="2"></path>
                        </g>
                        <path d="M23.5439924,26 L20.4560076,26 C20.1381268,26 19.8353832,25.8375527 19.6688742,25.556962 L18.1248817,22.943038 C17.9583728,22.6624473 17.9583728,22.3375527 18.1248817,22.056962 L19.6688742,19.443038 C19.8353832,19.1624473 20.1381268,19 20.4560076,19 L23.5439924,19 C23.8618732,19 24.1646168,19.1624473 24.3311258,19.443038 L25.8751183,22.056962 C26.0416272,22.3375527 26.0416272,22.6624473 25.8751183,22.943038 L24.3311258,25.556962 C24.1646168,25.8227848 23.8618732,26 23.5439924,26 Z" id="形状" fill="#F99627" fill-rule="nonzero"></path>
                        <circle id="椭圆形" fill="#FFFFFF" fill-rule="nonzero" cx="22" cy="22.5" r="1.5"></circle>
                    </g>
                </g>
            </g>
        </g>
    </g>
</svg>