<?xml version="1.0" encoding="UTF-8"?>
<svg width="28px" height="28px" viewBox="0 0 28 28" version="1.1" xmlns="http://www.w3.org/2000/svg" xmlns:xlink="http://www.w3.org/1999/xlink">
    <title>切片</title>
    <g id="页面-1" stroke="none" stroke-width="1" fill="none" fill-rule="evenodd">
        <g id="我的" transform="translate(-174.000000, -307.000000)">
            <g id="编组-2" transform="translate(12.000000, 259.000000)">
                <g id="mine/myorder备份-2" transform="translate(155.000000, 48.000000)">
                    <g id="mine/icon/myorder_dfk" transform="translate(7.000000, 0.000000)">
                        <rect x="0" y="0" width="28" height="28"></rect>
                        <g id="编组" transform="translate(1.000000, 3.000000)">
                            <path d="M22.1354535,13.1258052 L15.6934986,13.1258052 L15.6934986,8.12580516 L18.1354535,8.12580516 C20.3445925,8.12580516 22.1354535,9.91666616 22.1354535,12.1258052 L22.1354535,13.1258052 L22.1354535,13.1258052 Z" id="路径" fill="#F94227" fill-rule="nonzero"></path>
                            <path d="M1,18.3075279 C1,18.3260081 1.01617519,18.3420243 1.03483887,18.3420243 L6.06121687,18.3420243 L6.16946622,18.6868297 C6.32375264,19.5627911 7.0877193,20.1985099 7.98606445,20.1985099 C8.88440961,20.1985099 9.64713201,19.5627911 9.80266269,18.6868297 L9.90966779,18.3420243 L16.68757,18.3420243 L16.7958193,18.6868297 C16.9501058,19.5627911 17.7140724,20.1985099 18.6124176,20.1985099 C19.5107627,20.1985099 20.2734851,19.5627911 20.4290158,18.6868297 L20.5372651,18.3420243 L23.9651611,18.3420243 C23.9838248,18.3420243 24,18.3260081 24,18.3075279 L24,11.5181394 C24,8.69929319 21.6844594,5.55378145 18.837626,5.55378145" id="路径" stroke="#FAE7E3" stroke-width="2"></path>
                            <path d="M14.3564662,1 C14.9087509,1 15.4087509,1.22385763 15.7706798,1.58578644 C16.1326086,1.94771525 16.3564662,2.44771525 16.3564662,3 L16.3564662,3 L16.3564662,5.5569543 L19.0506144,5.5569543 C20.6918963,5.5569543 22.1805836,6.21770781 23.2587675,7.28529204 C24.3331659,8.34912815 25,9.81756328 25,11.4380207 L25,11.4380207 L25,17.7834851 C25,18.3357698 24.7761424,18.8357698 24.4142136,19.1976987 C24.0522847,19.5596275 23.5522847,19.7834851 23,19.7834851 L23,19.7834851 L21.2907982,19.7834851 C21.2120307,20.5457323 20.8038185,21.1761805 20.229762,21.567178 C19.8234442,21.8439264 19.3340276,22.0008521 18.8167596,22.0001538 C18.2953827,22.0001538 17.8070864,21.8422947 17.4034896,21.5673996 C16.823329,21.1722446 16.4179449,20.5358399 16.3450437,19.7834851 L16.3450437,19.7834851 L10.2834902,19.7834851 C10.2047228,20.5457323 9.79651055,21.1761805 9.22245406,21.567178 C8.81613621,21.8439264 8.32671968,22.0008521 7.80945163,22.0001538 C7.28807477,22.0001538 6.79977845,21.8422947 6.39618169,21.5673996 C5.81602099,21.1722446 5.4106369,20.5358399 5.33773576,19.7834851 L5.33773576,19.7834851 L3,19.7834851 C2.44771525,19.7834851 1.94771525,19.5596275 1.58578644,19.1976987 C1.22385763,18.8357698 1,18.3357698 1,17.7834851 L1,17.7834851 L1,3 C1,2.44771525 1.22385763,1.94771525 1.58578644,1.58578644 C1.94771525,1.22385763 2.44771525,1 3,1 L3,1 Z" id="形状" stroke="#3A2931" stroke-width="2" fill-rule="nonzero"></path>
                        </g>
                    </g>
                </g>
            </g>
        </g>
    </g>
</svg>