<?xml version="1.0" encoding="UTF-8"?>
<svg width="28px" height="28px" viewBox="0 0 28 28" version="1.1" xmlns="http://www.w3.org/2000/svg" xmlns:xlink="http://www.w3.org/1999/xlink">
    <title>mine/icon/cardmanage_28备份</title>
    <g id="mine/icon/cardmanage_28备份" stroke="none" stroke-width="1" fill="none" fill-rule="evenodd">
        <g id="编组-3" transform="translate(6.000000, 12.000000)" stroke="#131313" stroke-width="1.5">
            <path d="M5.92857143,1.9156519 L8.01190476,3.99898523 L10.0952381,1.9156519 M5.51190476,3.99898523 L10.5119048,3.99898523 M5.51190476,6.3443387 L10.5119048,6.3443387 M8.01190476,3.99898523 L8.01190476,8.99898523" id="形状结合" stroke-linecap="round" stroke-linejoin="round"></path>
            <path d="M15.25,0 C15.595178,0 15.907678,0.13991102 16.1338835,0.36611652 C16.360089,0.59232203 16.5,0.90482203 16.5,1.25 L16.5,1.25 L16.5,9.75 C16.5,10.095178 16.360089,10.407678 16.1338835,10.6338835 C15.907678,10.860089 15.595178,11 15.25,11 L15.25,11 L1.25,11 C0.90482203,11 0.59232203,10.860089 0.36611652,10.6338835 C0.139911016,10.407678 0,10.095178 0,9.75 L0,9.75 L0,1.25 C0,0.90482203 0.139911016,0.59232203 0.36611652,0.36611652 C0.59232203,0.13991102 0.90482203,0 1.25,0 L1.25,0 L15.25,0 Z" id="形状结合"></path>
        </g>
        <rect id="矩形" stroke="#131313" stroke-width="1.5" x="9.75" y="6.25" width="8.5" height="1" rx="0.5"></rect>
        <rect id="矩形备份" stroke="#131313" stroke-width="1.5" x="7.75" y="8.75" width="12.5" height="1" rx="0.5"></rect>
    </g>
</svg>