<?xml version="1.0" encoding="UTF-8"?>
<svg width="220px" height="220px" viewBox="0 0 220 220" version="1.1" xmlns="http://www.w3.org/2000/svg" xmlns:xlink="http://www.w3.org/1999/xlink">
    <title>切片</title>
    <defs>
        <linearGradient x1="50%" y1="18.2888224%" x2="50%" y2="52.0238478%" id="linearGradient-1">
            <stop stop-color="#ECECEC" offset="0%"></stop>
            <stop stop-color="#FFFFFF" stop-opacity="0" offset="100%"></stop>
        </linearGradient>
        <linearGradient x1="120.9414%" y1="50%" x2="-25.044602%" y2="50%" id="linearGradient-2">
            <stop stop-color="#C6C6C6" offset="0%"></stop>
            <stop stop-color="#A0A0A0" offset="100%"></stop>
        </linearGradient>
        <filter x="-32.7%" y="-144.0%" width="165.5%" height="388.0%" filterUnits="objectBoundingBox" id="filter-3">
            <feGaussianBlur stdDeviation="2.4" in="SourceGraphic"></feGaussianBlur>
        </filter>
        <filter x="-32.7%" y="-144.0%" width="165.5%" height="388.0%" filterUnits="objectBoundingBox" id="filter-4">
            <feGaussianBlur stdDeviation="2.4" in="SourceGraphic"></feGaussianBlur>
        </filter>
        <filter x="-32.7%" y="-144.0%" width="165.5%" height="388.0%" filterUnits="objectBoundingBox" id="filter-5">
            <feGaussianBlur stdDeviation="2.4" in="SourceGraphic"></feGaussianBlur>
        </filter>
        <filter x="-32.7%" y="-144.0%" width="165.5%" height="388.0%" filterUnits="objectBoundingBox" id="filter-6">
            <feGaussianBlur stdDeviation="2.4" in="SourceGraphic"></feGaussianBlur>
        </filter>
        <linearGradient x1="42.237335%" y1="100%" x2="42.237335%" y2="0%" id="linearGradient-7">
            <stop stop-color="#FFFFFF" stop-opacity="0" offset="0%"></stop>
            <stop stop-color="#E3E3E3" offset="100%"></stop>
        </linearGradient>
        <linearGradient x1="42.237335%" y1="99.70967%" x2="42.237335%" y2="2.857167%" id="linearGradient-8">
            <stop stop-color="#FFFFFF" stop-opacity="0" offset="0%"></stop>
            <stop stop-color="#EAEAEA" offset="100%"></stop>
        </linearGradient>
        <linearGradient x1="42.237335%" y1="99.70967%" x2="42.237335%" y2="2.857167%" id="linearGradient-9">
            <stop stop-color="#EAEAEA" stop-opacity="0" offset="0%"></stop>
            <stop stop-color="#EAEAEA" offset="100%"></stop>
        </linearGradient>
        <linearGradient x1="30.4510688%" y1="43.1277746%" x2="44.473309%" y2="57.8270717%" id="linearGradient-10">
            <stop stop-color="#B8B8B8" offset="0%"></stop>
            <stop stop-color="#F7F7F7" stop-opacity="0" offset="100%"></stop>
        </linearGradient>
        <filter x="-2.2%" y="-5.7%" width="104.5%" height="111.4%" filterUnits="objectBoundingBox" id="filter-11">
            <feGaussianBlur stdDeviation="1.06666667" in="SourceGraphic"></feGaussianBlur>
        </filter>
        <linearGradient x1="0.0456570156%" y1="49.9949298%" x2="99.9799555%" y2="49.9949298%" id="linearGradient-12">
            <stop stop-color="#CECECE" offset="0%"></stop>
            <stop stop-color="#C1C1C1" offset="100%"></stop>
        </linearGradient>
        <linearGradient x1="-0.0440060698%" y1="50.008982%" x2="99.9863429%" y2="50.008982%" id="linearGradient-13">
            <stop stop-color="#E4E4E4" offset="0%"></stop>
            <stop stop-color="#B8B8B8" offset="100%"></stop>
        </linearGradient>
        <linearGradient x1="0.0671755725%" y1="50.0082394%" x2="99.9312977%" y2="50.0082394%" id="linearGradient-14">
            <stop stop-color="#FBFBFB" offset="0%"></stop>
            <stop stop-color="#BBBBBB" offset="100%"></stop>
        </linearGradient>
        <linearGradient x1="12.3355248%" y1="21.9964433%" x2="100%" y2="81.3784474%" id="linearGradient-15">
            <stop stop-color="#E7E7E7" offset="0%"></stop>
            <stop stop-color="#BABABA" offset="100%"></stop>
        </linearGradient>
        <linearGradient x1="0.00403713288%" y1="50.0042715%" x2="94.7276579%" y2="72.6615239%" id="linearGradient-16">
            <stop stop-color="#FFFFFF" offset="0%"></stop>
            <stop stop-color="#DDDDDD" offset="100%"></stop>
        </linearGradient>
        <linearGradient x1="-0.0105698529%" y1="49.9976577%" x2="100.005285%" y2="49.9976577%" id="linearGradient-17">
            <stop stop-color="#DEDEDE" offset="0%"></stop>
            <stop stop-color="#C6C6C6" offset="100%"></stop>
        </linearGradient>
        <linearGradient x1="-0.0105698529%" y1="49.9976577%" x2="100.005285%" y2="49.9976577%" id="linearGradient-18">
            <stop stop-color="#DEDEDE" offset="0%"></stop>
            <stop stop-color="#C6C6C6" offset="100%"></stop>
        </linearGradient>
        <linearGradient x1="40.8414317%" y1="29.8479876%" x2="66.8581555%" y2="69.7890839%" id="linearGradient-19">
            <stop stop-color="#ECECEC" offset="0%"></stop>
            <stop stop-color="#CCCCCC" offset="100%"></stop>
        </linearGradient>
        <linearGradient x1="0.00194327731%" y1="49.999948%" x2="99.999895%" y2="49.999948%" id="linearGradient-20">
            <stop stop-color="#F0F0F0" offset="0%"></stop>
            <stop stop-color="#E6E6E6" offset="57.6622937%"></stop>
            <stop stop-color="#D9D9D9" offset="100%"></stop>
        </linearGradient>
        <path d="M4.77573209,30.3911566 L0,0 L0,0 L56.7648971,30.6137199 C61.907731,33.3872874 68.1120177,33.3370706 73.2092829,30.4806209 L100.684365,15.0838961 L100.684365,15.0838961 L91.430314,40.6036986 C90.2839473,43.7650223 88.1041347,46.4468945 85.243796,48.2151102 L61.5784496,62.8446488 C58.9832741,64.4489448 55.7290199,64.5456204 53.043186,63.0982098 L12.4436175,41.2188798 C8.33660029,39.0055857 5.49998062,35.0000313 4.77573209,30.3911566 Z" id="path-21"></path>
        <linearGradient x1="8.20719638%" y1="30.2574936%" x2="70.7987331%" y2="74.8738507%" id="linearGradient-23">
            <stop stop-color="#DCDCDC" offset="0%"></stop>
            <stop stop-color="#D9D9D9" stop-opacity="0" offset="100%"></stop>
        </linearGradient>
        <linearGradient x1="26.5922068%" y1="50%" x2="81.3732252%" y2="34.0989123%" id="linearGradient-24">
            <stop stop-color="#FFFFFF" stop-opacity="0" offset="0%"></stop>
            <stop stop-color="#D7D7D7" offset="100%"></stop>
        </linearGradient>
        <filter x="-81.7%" y="-22.5%" width="263.4%" height="145.1%" filterUnits="objectBoundingBox" id="filter-25">
            <feGaussianBlur stdDeviation="3.2" in="SourceGraphic"></feGaussianBlur>
        </filter>
        <filter x="-26.5%" y="-90.0%" width="152.9%" height="280.0%" filterUnits="objectBoundingBox" id="filter-26">
            <feGaussianBlur stdDeviation="3.2" in="SourceGraphic"></feGaussianBlur>
        </filter>
        <linearGradient x1="3.88180115%" y1="46.1370895%" x2="95.6600531%" y2="52.5505346%" id="linearGradient-27">
            <stop stop-color="#D5D5D5" offset="0%"></stop>
            <stop stop-color="#ECECEC" offset="100%"></stop>
        </linearGradient>
        <path d="M34.9003519,1.38951953 L4.81049147,10.9273895 C3.68735772,11.2833999 3.06548139,12.4824832 3.4214918,13.6056169 C3.58921279,14.1347394 3.95655918,14.5776574 4.4455393,14.8403347 L61.703819,45.5991496 C66.4132467,48.1290268 72.0750346,48.139725 76.7939893,45.6276633 L103.373068,31.4787064 C104.933107,30.6482441 105.524546,28.71036 104.694083,27.1503212 C104.340233,26.4856071 103.763299,25.9669751 103.064785,25.6856708 L43.5496419,1.71785938 C40.792144,0.607365677 37.7341044,0.49127797 34.9003519,1.38951953 Z" id="path-28"></path>
        <filter x="-54.5%" y="-50.0%" width="209.1%" height="200.0%" filterUnits="objectBoundingBox" id="filter-30">
            <feGaussianBlur stdDeviation="2" in="SourceGraphic"></feGaussianBlur>
        </filter>
        <filter x="-54.5%" y="-50.0%" width="209.1%" height="200.0%" filterUnits="objectBoundingBox" id="filter-31">
            <feGaussianBlur stdDeviation="2" in="SourceGraphic"></feGaussianBlur>
        </filter>
        <linearGradient x1="93.2600345%" y1="52.8814467%" x2="5.89740279%" y2="45.4336665%" id="linearGradient-32">
            <stop stop-color="#F5F5F5" offset="0%"></stop>
            <stop stop-color="#CDCDCD" offset="100%"></stop>
        </linearGradient>
        <path d="M28.5435632,1.39619488 L2.40626182,9.68824963 C1.84473868,9.86639276 1.53394777,10.4660107 1.7120909,11.0275339 C1.79605642,11.2922007 1.97991737,11.5136945 2.22460346,11.6449479 L55.1964736,40.0598887 C59.8705635,42.5671438 65.4833839,42.59508 70.1821999,40.134476 L95.091428,27.0903928 C95.6133058,26.8171039 95.8148268,26.1724939 95.5415379,25.6506162 C95.4243332,25.4268001 95.2314893,25.2518518 94.9973518,25.1569298 L37.2233287,1.7346876 C34.4579745,0.613581754 31.3878276,0.49385244 28.5435632,1.39619488 Z" id="path-33"></path>
        <filter x="-73.0%" y="-22.5%" width="246.0%" height="145.1%" filterUnits="objectBoundingBox" id="filter-35">
            <feGaussianBlur stdDeviation="3" in="SourceGraphic"></feGaussianBlur>
        </filter>
        <linearGradient x1="0.0623229462%" y1="49.9975978%" x2="99.9745042%" y2="49.9975978%" id="linearGradient-36">
            <stop stop-color="#D4D4D4" offset="0%"></stop>
            <stop stop-color="#BCBCBC" offset="100%"></stop>
        </linearGradient>
        <linearGradient x1="97.0436855%" y1="53.5271578%" x2="5.106753%" y2="41.6078583%" id="linearGradient-37">
            <stop stop-color="#C4C4C4" offset="0%"></stop>
            <stop stop-color="#EDEDED" offset="21.9490573%"></stop>
            <stop stop-color="#B8B8B8" offset="100%"></stop>
        </linearGradient>
        <linearGradient x1="3.07051416%" y1="64.601245%" x2="95.7630399%" y2="28.5249397%" id="linearGradient-38">
            <stop stop-color="#D9D9D9" offset="0%"></stop>
            <stop stop-color="#B8B8B8" offset="100%"></stop>
        </linearGradient>
        <linearGradient x1="100%" y1="44.4775618%" x2="0%" y2="69.7199864%" id="linearGradient-39">
            <stop stop-color="#E2E2E2" offset="0%"></stop>
            <stop stop-color="#D0D0D0" offset="100%"></stop>
        </linearGradient>
        <linearGradient x1="99.9904954%" y1="50.005647%" x2="0%" y2="62.7878099%" id="linearGradient-40">
            <stop stop-color="#D8D8D8" offset="0%"></stop>
            <stop stop-color="#BBBBBB" offset="100%"></stop>
        </linearGradient>
        <linearGradient x1="17.2750472%" y1="50.0010019%" x2="81.5247649%" y2="87.0643819%" id="linearGradient-41">
            <stop stop-color="#DEDEDE" offset="0%"></stop>
            <stop stop-color="#CFCFCF" offset="100%"></stop>
        </linearGradient>
        <linearGradient x1="12.3355248%" y1="21.9957875%" x2="100%" y2="81.3791822%" id="linearGradient-42">
            <stop stop-color="#E7E7E7" offset="0%"></stop>
            <stop stop-color="#BABABA" offset="100%"></stop>
        </linearGradient>
        <linearGradient x1="0.00403713288%" y1="50.0042693%" x2="94.7276579%" y2="72.649901%" id="linearGradient-43">
            <stop stop-color="#FFFFFF" offset="0%"></stop>
            <stop stop-color="#DDDDDD" offset="100%"></stop>
        </linearGradient>
        <linearGradient x1="12.3355248%" y1="21.9896635%" x2="100%" y2="81.3860442%" id="linearGradient-44">
            <stop stop-color="#E7E7E7" offset="0%"></stop>
            <stop stop-color="#BABABA" offset="100%"></stop>
        </linearGradient>
        <linearGradient x1="30.8142422%" y1="33.7872385%" x2="70.6573178%" y2="77.601661%" id="linearGradient-45">
            <stop stop-color="#F0F0F0" offset="0%"></stop>
            <stop stop-color="#D5D5D5" offset="100%"></stop>
        </linearGradient>
        <linearGradient x1="100%" y1="39.0095844%" x2="0%" y2="62.1462353%" id="linearGradient-46">
            <stop stop-color="#CBCBCB" offset="0%"></stop>
            <stop stop-color="#E7EAF0" offset="100%"></stop>
        </linearGradient>
        <linearGradient x1="30.8142422%" y1="33.7832789%" x2="70.6573178%" y2="77.6084021%" id="linearGradient-47">
            <stop stop-color="#F0F0F0" offset="0%"></stop>
            <stop stop-color="#D5D5D5" offset="100%"></stop>
        </linearGradient>
        <linearGradient x1="100%" y1="39.0121822%" x2="0%" y2="62.1433643%" id="linearGradient-48">
            <stop stop-color="#CBCBCB" offset="0%"></stop>
            <stop stop-color="#E7EAF0" offset="100%"></stop>
        </linearGradient>
        <linearGradient x1="100%" y1="46.3265056%" x2="0%" y2="54.0598216%" id="linearGradient-49">
            <stop stop-color="#CBCBCB" offset="0%"></stop>
            <stop stop-color="#E7EAF0" offset="100%"></stop>
        </linearGradient>
        <linearGradient x1="-27.7186867%" y1="74.5%" x2="113.974602%" y2="31.6571627%" id="linearGradient-50">
            <stop stop-color="#CECECE" offset="0%"></stop>
            <stop stop-color="#F7F7F7" offset="100%"></stop>
        </linearGradient>
        <linearGradient x1="79.0730044%" y1="102.896384%" x2="24.4259213%" y2="5.33006025%" id="linearGradient-51">
            <stop stop-color="#FFFFFF" stop-opacity="0" offset="0%"></stop>
            <stop stop-color="#D5D5D5" offset="100%"></stop>
        </linearGradient>
        <linearGradient x1="10.2238422%" y1="49.996716%" x2="100.015426%" y2="49.996716%" id="linearGradient-52">
            <stop stop-color="#E6E6E6" offset="0%"></stop>
            <stop stop-color="#B8B8B8" offset="100%"></stop>
        </linearGradient>
        <linearGradient x1="79.1066658%" y1="102.896384%" x2="24.3963111%" y2="5.33006025%" id="linearGradient-53">
            <stop stop-color="#FFFFFF" stop-opacity="0" offset="0%"></stop>
            <stop stop-color="#D5D5D5" offset="100%"></stop>
        </linearGradient>
        <linearGradient x1="10.2238422%" y1="49.996716%" x2="100.015426%" y2="49.996716%" id="linearGradient-54">
            <stop stop-color="#E6E6E6" offset="0%"></stop>
            <stop stop-color="#B8B8B8" offset="100%"></stop>
        </linearGradient>
    </defs>
    <g id="页面-1" stroke="none" stroke-width="1" fill="none" fill-rule="evenodd">
        <g id="购物车-暂无商品" transform="translate(-78.000000, -200.000000)">
            <g id="img_noshoppingcart" transform="translate(78.000000, 200.000000)">
                <g id="编组">
                    <polygon id="矩形" points="0 0 220 0 220 220 0 220"></polygon>
                    <path d="M219.2,194.800652 C219.2,180.444811 170.309495,149.167532 110,149.167532 C49.6905053,149.167532 0.8,180.444811 0.8,194.800652 C0.8,209.156493 219.2,209.156493 219.2,194.800652 Z" id="椭圆形" fill="url(#linearGradient-1)"></path>
                    <path d="M102.425876,185.732724 C102.425876,187.114542 97.5018756,188.232724 91.4258756,188.232724 C85.3498756,188.232724 80.4258756,187.114542 80.4258756,185.732724 C80.4258756,184.350905 85.3498756,183.232724 91.4258756,183.232724 C97.5018756,183.232724 102.425876,184.350905 102.425876,185.732724 Z" id="椭圆形" fill-opacity="0.33098492" fill="url(#linearGradient-2)" opacity="0.551008358" filter="url(#filter-3)" transform="translate(91.425876, 185.732724) rotate(-13.000000) translate(-91.425876, -185.732724) "></path>
                    <path d="M74.4258756,176.732724 C74.4258756,178.114542 69.5018756,179.232724 63.4258756,179.232724 C57.3498756,179.232724 52.4258756,178.114542 52.4258756,176.732724 C52.4258756,175.350905 57.3498756,174.232724 63.4258756,174.232724 C69.5018756,174.232724 74.4258756,175.350905 74.4258756,176.732724 Z" id="椭圆形" fill-opacity="0.33098492" fill="url(#linearGradient-2)" opacity="0.551008358" filter="url(#filter-4)" transform="translate(63.425876, 176.732724) rotate(-13.000000) translate(-63.425876, -176.732724) "></path>
                    <path d="M167.425876,170.732724 C167.425876,172.114542 162.501876,173.232724 156.425876,173.232724 C150.349876,173.232724 145.425876,172.114542 145.425876,170.732724 C145.425876,169.350905 150.349876,168.232724 156.425876,168.232724 C162.501876,168.232724 167.425876,169.350905 167.425876,170.732724 Z" id="椭圆形" fill-opacity="0.33098492" fill="url(#linearGradient-2)" opacity="0.551008358" filter="url(#filter-5)" transform="translate(156.425876, 170.732724) rotate(-13.000000) translate(-156.425876, -170.732724) "></path>
                    <path d="M132.425876,166.732724 C132.425876,168.114542 127.501876,169.232724 121.425876,169.232724 C115.349876,169.232724 110.425876,168.114542 110.425876,166.732724 C110.425876,165.350905 115.349876,164.232724 121.425876,164.232724 C127.501876,164.232724 132.425876,165.350905 132.425876,166.732724 Z" id="椭圆形" fill-opacity="0.33098492" fill="url(#linearGradient-2)" filter="url(#filter-6)" transform="translate(121.425876, 166.732724) rotate(-13.000000) translate(-121.425876, -166.732724) "></path>
                    <path d="M57.9333333,57.4 C57.6266667,57.4 57.3266667,57.38 57.0266667,57.34 C56.6666667,57.38 56.3066667,57.4 55.9333333,57.4 C50.2266667,57.4 45.6,52.7733333 45.6,47.0666667 C45.6,41.36 50.2266667,36.7333333 55.9333333,36.7333333 C56.5933333,36.7333333 57.2333333,36.7933333 57.86,36.9133333 C60.1933333,32.4466667 64.8733333,29.4 70.2666667,29.4 C78,29.4 84.2666667,35.6666667 84.2666667,43.4 L84.2666667,43.4 L92.6,43.4 C96.4666667,43.4 99.6,46.5333333 99.6,50.4 C99.6,54.2666667 96.4666667,57.4 92.6,57.4 L57.9333333,57.4 Z" id="形状结合" fill-opacity="0.7" fill="url(#linearGradient-7)"></path>
                    <g transform="translate(10.200000, 77.828000)">
                        <polygon id="路径" fill="url(#linearGradient-8)" points="0 76.372 3.51163462 71.23 6.83038462 66.922 9.96759615 63.364 12.9459615 60.472 15.7654808 58.168 18.4545192 56.386 21.0244231 55.066 23.4978846 54.16 25.8919231 53.632 28.2349038 53.458 30.5495192 53.626 32.9719231 54.136 35.5248077 55.024 38.2308654 56.326 41.1184615 58.096 44.2102885 60.4 47.5176923 63.298 51.0747115 66.868 54.8983654 71.2 59 76.372"></polygon>
                        <polygon id="路径-2" points="39.56 45.372 42.878 39.45 46.112 34.35 49.256 29.982 52.322 26.286 55.31 23.19 58.226 20.634 61.082 18.564 63.878 16.932 66.644 15.708 69.386 14.85 72.122 14.34 74.87 14.172 77.858 14.346 81.416 14.916 85.646 15.96 90.644 17.574 96.524 19.854 103.388 22.908 111.362 26.856 120.566 31.824 131.15 37.95 143.24 45.372"></polygon>
                        <polygon id="路径-3" fill="url(#linearGradient-9)" points="198.6 22 195.955882 17.4775972 193.448235 13.6267848 191.068529 10.3771541 188.808235 7.67454456 186.658824 5.45937962 184.616029 3.67749877 182.658529 2.29098966 180.782059 1.26193993 178.973824 0.547021172 177.216765 0.13540128 175.502353 0 173.527794 0.162481536 171.216324 0.693254554 168.516765 1.66814377 165.369412 3.1629739 161.710294 5.26981782 157.475441 8.09699655 152.596618 11.741999 146.997059 16.3348104 140.6 22"></polygon>
                    </g>
                </g>
                <g id="编组" transform="translate(51.955005, 70.109722)">
                    <polygon id="路径" fill="url(#linearGradient-10)" opacity="0.351880451" filter="url(#filter-11)" points="13.8876868 99.2040531 56.4911739 148.890278 156.224742 133.099123 83.6617827 96.6230014 19.9699963 92.5741701"></polygon>
                    <polygon id="路径" fill="url(#linearGradient-12)" fill-rule="nonzero" points="23.096056 87.3073795 23.6470703 94.2235556 22.4415367 94.6627109 20.5803022 90.2983925 20.7373972 85.9340741"></polygon>
                    <polygon id="路径" fill="url(#linearGradient-13)" fill-rule="nonzero" points="85.4000732 89.1932585 85.4000732 94.9452682 83.3133158 94.9452682 83.3133158 90.4652853"></polygon>
                    <polygon id="路径" fill="url(#linearGradient-14)" fill-rule="nonzero" points="83.6617827 90.2983925 83.6617827 98.1487187 81.4248861 96.7972098 81.4248861 91.6805401"></polygon>
                    <path d="M85.966341,101.712615 C83.8865395,103.489662 80.3758073,103.040293 78.1286654,100.708345 C75.8815236,98.3763963 75.7449192,95.0469864 77.8247207,93.2699395 C79.9045222,91.4928925 83.4152545,91.9422607 85.6623963,94.2742093 C87.9095382,96.6061579 88.0495576,99.9355677 85.966341,101.712615 Z" id="路径" fill="url(#linearGradient-15)" fill-rule="nonzero"></path>
                    <path d="M84.4363721,101.498143 C82.5956283,103.070932 79.4503127,102.635181 77.4149076,100.521108 C75.3795025,98.4104393 75.2224075,95.4214599 77.0631514,93.8486713 C78.9038952,92.2758826 82.0492108,92.7116336 84.0846159,94.8257067 C86.1200209,96.9397798 86.277116,99.9253548 84.4363721,101.498143 Z" id="路径" fill="url(#linearGradient-16)" fill-rule="nonzero"></path>
                    <path d="M3.10246327,13.4511332 L9.35727005,18.341959 C10.3617093,19.1273609 11.0515345,20.2466252 11.301718,21.4968902 L13.7485175,33.724507 L13.7485175,33.724507 L14.794253,32.9857729 L12.2354297,20.3001934 C11.9867886,19.067534 11.3105925,17.9623736 10.3262432,17.1798597 L2.58522324,11.0260929 L2.58522324,11.0260929 L2.20879395,10.0480824 L2.28510297,11.8603198 C2.31139474,12.4847144 2.61015176,13.0661797 3.10246327,13.4511332 Z" id="路径" fill="url(#linearGradient-17)" fill-rule="nonzero"></path>
                    <path d="M4.92939205,10.2625261 L6.17411687,11.4359922 L24.6559313,4.99023668 C25.6919105,4.62892644 26.8407696,4.82356278 27.69993,5.505942 L33.8841862,10.4177233 C34.8717763,11.2021064 35.5494438,12.3110916 35.796864,13.5477703 L38.0672207,24.8956788 L38.0672207,24.8956788 L39.1019988,24.5075881 L36.671782,12.6944601 C36.4214932,11.4778225 35.7543998,10.3866996 34.7855986,9.60934785 L26.319935,2.81662527 L26.319935,2.81662527 L4.92939205,10.2625261 Z" id="路径" fill="url(#linearGradient-18)" fill-rule="nonzero"></path>
                    <path d="M28.9586807,1.64974527 L37.3781879,7.78553653 C38.60563,8.68004594 39.4749501,9.98192172 39.8307605,11.4584583 L42.6537124,23.1731008 L42.6537124,23.1731008 L39.1019988,24.5075881 L36.7678401,13.1613924 C36.4562184,11.6466194 35.6066475,10.2959154 34.3762288,9.35905076 L28.0486846,4.54113607 C26.9051564,3.67043156 25.4000959,3.43397802 24.0446623,3.91208149 L7.86270386,9.61996025 C7.30714811,9.815922 7.01563957,10.4251473 7.21160132,10.9807031 C7.28290547,11.1828519 7.41346071,11.358828 7.58624605,11.4856887 L13.2221364,15.6236155 C14.2373381,16.3689867 14.956004,17.4495815 15.2508604,18.6740293 L18.3767026,31.6546899 L18.3767026,31.6546899 L14.794253,32.9857729 L12.2479061,20.3620461 C11.9917181,19.0919725 11.2819501,17.9585889 10.2511745,17.1735916 L3.15030973,11.7658578 C2.21297033,11.0520177 2.03178833,9.71347227 2.74562842,8.77613287 C2.99837318,8.44425514 3.34287397,8.19376077 3.73650611,8.05564314 L24.051763,0.92742633 C25.7066752,0.346750786 27.5412981,0.616814998 28.9586807,1.64974527 Z" id="路径" fill="url(#linearGradient-19)" fill-rule="nonzero"></path>
                    <g id="路径-+-路径-+-矩形-蒙版" transform="translate(10.906296, 34.362265)">
                        <mask id="mask-22" fill="white">
                            <use xlink:href="#path-21"></use>
                        </mask>
                        <use id="蒙版" fill="url(#linearGradient-20)" fill-rule="nonzero" xlink:href="#path-21"></use>
                        <polygon id="路径" fill="url(#linearGradient-23)" fill-rule="nonzero" mask="url(#mask-22)" points="0 0 5.92521444 37.7060767 57.3840797 65.4375412 65.2598139 32.7187706"></polygon>
                        <polygon id="路径" fill="url(#linearGradient-24)" fill-rule="nonzero" mask="url(#mask-22)" points="89.6602767 45.4849125 100.684365 15.0838961 65.7512328 32.0957829 57.3840797 65.4375412"></polygon>
                        <polygon id="矩形" fill="#FFFFFF" opacity="0.681004724" filter="url(#filter-25)" mask="url(#mask-22)" transform="translate(57.005365, 45.349441) rotate(13.000000) translate(-57.005365, -45.349441) " points="51.1497989 24.0641875 62.8818069 24.0584469 62.8609321 66.6346948 51.128924 66.6404354"></polygon>
                        <polygon id="矩形" fill="#FFFFFF" opacity="0.771121003" filter="url(#filter-26)" mask="url(#mask-22)" transform="translate(73.855861, 56.313000) rotate(-16.000000) translate(-73.855861, -56.313000) " points="55.7224487 50.9799429 91.982965 51.001392 91.9892735 61.6460581 55.7287573 61.6246089"></polygon>
                    </g>
                    <g id="椭圆形" transform="translate(6.688695, 19.781776)">
                        <mask id="mask-29" fill="white">
                            <use xlink:href="#path-28"></use>
                        </mask>
                        <use id="蒙版" fill="url(#linearGradient-27)" fill-rule="nonzero" xlink:href="#path-28"></use>
                        <ellipse fill="#FFFFFF" opacity="0.412336483" filter="url(#filter-30)" mask="url(#mask-29)" cx="63.8562999" cy="45.1085018" rx="5.5" ry="6"></ellipse>
                        <ellipse id="椭圆形备份" fill="#FFFFFF" opacity="0.272688045" filter="url(#filter-31)" mask="url(#mask-29)" cx="66.8562999" cy="15.1085018" rx="5.5" ry="6"></ellipse>
                    </g>
                    <g id="矩形" transform="translate(13.260405, 22.389473)">
                        <mask id="mask-34" fill="white">
                            <use xlink:href="#path-33"></use>
                        </mask>
                        <use id="蒙版" fill="url(#linearGradient-32)" fill-rule="nonzero" xlink:href="#path-33"></use>
                        <polygon fill="#C2C2C2" opacity="0.451535247" filter="url(#filter-35)" mask="url(#mask-34)" points="26.3845901 -2.1374565 36.3845901 -2.1374565 38.7158935 37.816695 28.7158935 37.816695"></polygon>
                    </g>
                    <polygon id="路径" fill="url(#linearGradient-36)" fill-rule="nonzero" points="22.1136862 74.6811893 23.096056 83.619928 20.6849889 83.9875929 19.8877725 73.0746554"></polygon>
                    <polygon id="路径" fill="url(#linearGradient-37)" fill-rule="nonzero" points="61.0059483 95.8746433 52.8540827 100.460241 23.096056 83.619928 20.6849889 83.9875929 52.8540827 102.220267 62.716918 96.7972098"></polygon>
                    <polygon id="矩形" fill="#D9D9D9" points="52.4449953 103.827724 54.9783124 103.827724 54.9783124 111.640278 52.4449953 111.640278"></polygon>
                    <polygon id="路径" fill="url(#linearGradient-38)" fill-rule="nonzero" points="66.0526602 98.2679407 52.8540827 106.036492 52.8540827 102.220267 62.716918 96.7972098"></polygon>
                    <polygon id="路径" fill="url(#linearGradient-39)" fill-rule="nonzero" points="23.096056 83.619928 31.2405852 79.8134851 30.1784862 79.241562 22.9892356 82.4195958"></polygon>
                    <polygon id="路径" fill="url(#linearGradient-40)" fill-rule="nonzero" points="26.001229 85.2915927 33.9282761 81.2637188 31.2405852 79.8134851 23.096056 83.619928"></polygon>
                    <polygon id="路径" fill="url(#linearGradient-41)" fill-rule="nonzero" points="20.6849889 83.9875929 19.8877725 73.0746554 16.8315109 68.3160307 18.5858784 95.4082536 21.4919143 96.7972098 20.9252282 87.3400519 49.5704552 104.468911 49.5704552 111.355819 52.8540827 112.841697 52.8540827 106.036492 52.8540827 102.220267"></polygon>
                    <path d="M23.096056,99.7998064 C21.0162545,101.576853 17.5055223,101.127485 15.2583804,98.7955366 C13.0112386,96.463588 12.8746342,93.1341782 14.9544357,91.3571312 C17.0342372,89.5800843 20.5449695,90.0294525 22.7921113,92.361401 C25.0426683,94.6933496 25.1758575,98.0227594 23.096056,99.7998064 Z" id="路径" fill="url(#linearGradient-42)" fill-rule="nonzero"></path>
                    <path d="M21.562672,99.5887395 C19.7219281,101.161528 16.5766126,100.725777 14.5412075,98.6117041 C12.5058024,96.5010353 12.3487074,93.512056 14.1894513,91.9392673 C16.0301951,90.3664786 19.1755107,90.8022296 21.2109158,92.9163027 C23.2497359,95.0269715 23.406831,98.0159508 21.562672,99.5887395 Z" id="路径" fill="url(#linearGradient-43)" fill-rule="nonzero"></path>
                    <path d="M54.7904496,117.903898 C52.7106481,119.680945 49.1999158,119.231576 46.952774,116.899628 C44.7056321,114.567679 44.5690278,111.23827 46.6488293,109.461223 C48.7286308,107.684176 52.239363,108.133544 54.4865049,110.465492 C56.7336467,112.797441 56.8702511,116.126851 54.7904496,117.903898 Z" id="路径" fill="url(#linearGradient-44)" fill-rule="nonzero"></path>
                    <path d="M53.2570655,117.689427 C51.4163217,119.262215 48.2710061,118.826464 46.235601,116.712391 C44.200196,114.598318 44.0431009,111.612743 45.8838448,110.039954 C47.7245887,108.467166 50.8699042,108.902917 52.9053093,111.01699 C54.9407144,113.131063 55.0978094,116.116638 53.2570655,117.689427 Z" id="路径" fill="url(#linearGradient-16)" fill-rule="nonzero"></path>
                </g>
                <g id="编组-3" transform="translate(33.914795, 30.000000)">
                    <path d="M143.828354,27.4512509 C126.768731,28.9998339 113.475286,26.9722147 103.94802,21.3683933 C96.4110599,16.7343796 98.698766,7.49300788 105.873936,7.4868376 C113.049106,7.48067982 117.396898,12.0334908 117.390826,19.1128375 C117.384754,26.1921846 112.690607,34.4323387 105.8477,38.0768839" id="路径-20" stroke="#E1E1E1" stroke-linecap="round" stroke-dasharray="4,3" transform="translate(121.555448, 22.781861) rotate(-23.000000) translate(-121.555448, -22.781861) "></path>
                    <path d="M104.055357,54.8734221 C101.593984,51.6836257 98.5508299,51.6853323 94.9258933,54.8785418 C93.0087048,56.6794895 91.7432926,59.5586073 88.9038,59.5601997 C97.80678,62.6662719 102.857299,61.1040125 104.055357,54.8734221 Z" id="路径-18" fill="url(#linearGradient-45)" transform="translate(96.479578, 56.796261) rotate(-14.000000) translate(-96.479578, -56.796261) "></path>
                    <path d="M107.330611,51.145588 C106.416592,52.9283799 102.61055,54.7127941 95.9124847,56.4988302" id="路径-19" stroke="url(#linearGradient-46)" stroke-width="0.5" stroke-linecap="round" transform="translate(101.621548, 53.822209) rotate(-14.000000) translate(-101.621548, -53.822209) "></path>
                    <path d="M15.7838466,92.0422552 C13.3221566,88.8518685 10.2792084,88.8531117 6.65500168,92.045985 C4.738217,93.8467632 3.47332785,96.7258833 0.634027695,96.7270434 C9.53687677,99.8346818 14.5868161,98.2730857 15.7838466,92.0422552 Z" id="路径-18备份" fill="url(#linearGradient-47)" transform="translate(8.208937, 93.964336) rotate(-10.000000) translate(-8.208937, -93.964336) "></path>
                    <path d="M19.2535074,88.6808889 C18.3398212,90.4636623 14.5343076,92.2476178 7.83696691,94.0327549" id="路径-19备份" stroke="url(#linearGradient-48)" stroke-width="0.5" stroke-linecap="round" transform="translate(13.545237, 91.356822) rotate(-10.000000) translate(-13.545237, -91.356822) "></path>
                    <path d="M20.7628406,77.7064711 C13.045035,81.1827607 6.62789185,82.9221485 1.51141019,82.9246345" id="路径-22" stroke="url(#linearGradient-49)" stroke-width="0.5" stroke-linecap="round" transform="translate(11.137125, 80.315553) rotate(-12.000000) translate(-11.137125, -80.315553) "></path>
                    <path d="M125.199101,108.963277 C124.179225,119.687007 130.326246,138.527359 144.443885,142.297322" id="路径-11备份" stroke="#E1E1E1" stroke-width="0.75" stroke-linecap="round" stroke-dasharray="4,3" transform="translate(134.767212, 125.630299) rotate(-65.000000) translate(-134.767212, -125.630299) "></path>
                    <path d="M154.699415,120.770941 C155.155216,118.223992 156.326884,117.2788 157.713482,116.899498 C159.448846,116.423437 160.963619,116.764795 162.42731,116.086318 C163.31164,115.676401 163.275168,116.412195 163.259617,116.530398 C163.035684,118.233511 162.120563,119.855804 160.164432,120.625904 C158.030876,121.465399 155.925195,119.911033 154.397664,122.356209 C154.386418,122.374207 154.366552,122.385295 154.345093,122.385295 L154.152273,122.385295 C154.106292,122.385295 154.076556,122.337527 154.097228,122.297077 C154.670361,121.175865 155.496646,120.210493 156.55151,119.440873 C157.502048,118.748148 158.639281,118.210274 159.943893,117.781614 C160.049511,117.746912 160.004928,117.591 159.896495,117.615888 C158.896127,117.845485 157.992159,118.145374 157.153065,118.616492 C156.276154,119.108768 155.469538,119.789192 154.699446,120.770941 L154.699415,120.770941 Z" id="路径备份" fill="url(#linearGradient-50)" transform="translate(158.677695, 119.174286) scale(-1, 1) rotate(269.000000) translate(-158.677695, -119.174286) "></path>
                </g>
                <g id="编组" opacity="0.748978016" transform="translate(11.338389, 148.599927)" fill-rule="nonzero">
                    <g opacity="0.767918786" id="路径">
                        <path d="M9.18083083,37.1376364 C9.18083083,37.1376364 8.22929705,38.4881339 9.81967928,40.4990544 C11.2375455,42.2889354 13.4775584,41.9412025 14.2215338,41.3670388 C14.4506567,42.9250979 16.3618109,46.2083434 19.3862327,44.3510723 C22.2300518,42.6070166 20.8607058,39.9545424 19.952301,38.9113437 C21.7286771,38.4099614 23.0521986,34.1536029 18.9765071,32.6844987 C19.5803133,30.926965 19.6881358,30.1317619 18.8039911,28.552138 C17.9521932,27.0318174 16.5531959,26.789213 14.3212697,27.7138052 L11.0919851,29.0750851 L9.03527042,25.2365452 L7.93548068,25.8727077 L10.3075762,29.538729 L7.16454963,31.1156573 C7.16454963,31.1156573 4.47707321,32.1669428 5.63616535,35.0512389 C6.71169503,37.7225824 9.18083083,37.1376364 9.18083083,37.1376364 Z" fill="url(#linearGradient-51)"></path>
                        <path d="M3.70883773,20.7701281 L13.4290383,20.7701281 C13.4290383,20.7701281 16.5693693,20.8588845 17.1947399,17.2710357 C17.8821085,13.3327585 15.0167249,12.7909421 15.0167249,12.7909421 C15.0167249,12.7909421 16.7418853,11.9984345 16.3672021,9.01979224 C15.9925188,6.04114995 13.3697359,5.66646101 12.2780328,5.80393681 C12.45594,4.03831627 12.8279277,0.0407357075 8.67676053,0.000301649252 C4.66845819,-0.040132409 4.69271826,3.9951866 4.99192577,5.5855929 C3.56327732,5.60176652 -0.752319206,7.74477161 2.28288485,12.4459048 C0.630504666,13.8610968 -0.0676461775,14.6778648 0.00513402629,16.7184369 C0.0779142301,18.7617047 1.32865551,20.7701281 3.70883773,20.7701281 Z" fill="url(#linearGradient-52)"></path>
                        <polygon fill="#C7C7C7" points="13.1918287 15.3167229 9.04605267 18.044674 8.93283902 15.4056778 11.5529264 12.3165158 8.89240558 14.4676077 8.5473735 6.40775208 8.29399057 14.5215198 5.49599607 12.294951 8.26703494 15.3463746 8.18077692 18.0608477 3.91909165 14.928556 8.15112572 19.0420475 7.93548068 25.8754033 9.3803025 25.8754033 9.08918168 19.0824815"></polygon>
                    </g>
                    <g transform="translate(166.993046, 31.519661)" id="路径">
                        <path d="M4.5420895,18.3679778 C4.5420895,18.3679778 4.07036596,19.0364876 4.85747039,20.0311654 C5.55831679,20.9180191 6.66619323,20.7455004 7.03548538,20.4597664 C7.14869903,21.2307091 8.09484167,22.8534627 9.5908792,21.9369574 C10.9979631,21.0743641 10.3213768,19.761605 9.87121776,19.2467447 C10.7499713,18.9987491 11.4049932,16.8934825 9.38871196,16.168365 C9.68791947,15.3003806 9.74183073,14.9068224 9.30245394,14.1250973 C8.8819461,13.3730238 8.18918638,13.2517216 7.08670107,13.7099743 L5.48823215,14.3838753 L4.47200486,12.4861701 L3.92750112,12.8015558 L5.10007107,14.6130016 L3.54473116,15.3920311 C3.54473116,15.3920311 2.21581855,15.9122827 2.78997349,17.3382571 C3.32099942,18.659103 4.5420895,18.3679778 4.5420895,18.3679778 Z" fill="url(#linearGradient-53)"></path>
                        <path d="M1.83574415,10.2731721 L6.64193316,10.2731721 C6.64193316,10.2731721 8.19457751,10.316209 8.50456727,8.54250165 C8.84420822,6.59358005 7.42634203,6.32671526 7.42634203,6.32671526 C7.42634203,6.32671526 8.28083553,5.9331571 8.09484167,4.46135738 C7.90884782,2.98955765 6.61228197,2.80356099 6.07316935,2.87095108 C6.16212293,1.99757543 6.34542122,0.0190021754 4.29140214,0.000132948261 C2.30746769,-0.0187362789 2.32094551,1.97601059 2.46920148,2.76312693 C1.76296395,2.77121374 -0.371922032,3.83058607 1.12950662,6.15689222 C0.312750996,6.85505362 -0.0349766444,7.26208981 0.00276123906,8.27024566 C0.0404991225,9.28109712 0.657783073,10.2731721 1.83574415,10.2731721 Z" fill="url(#linearGradient-54)"></path>
                        <polygon fill="#C7C7C7" points="6.52602395 7.57477986 4.47470043 8.92527741 4.42078917 7.62060513 5.71735502 6.09219772 4.39922466 7.15696126 4.22940418 3.17016312 4.10271272 7.1839173 2.71988885 6.08141531 4.09193047 7.59095348 4.04880146 8.93336422 1.94087111 7.38339198 4.03262808 9.41857292 3.92750112 12.7988602 4.64182534 12.7988602 4.4989605 9.43744214"></polygon>
                    </g>
                </g>
            </g>
        </g>
    </g>
</svg>