<?xml version="1.0" encoding="UTF-8"?>
<svg width="220px" height="220px" viewBox="0 0 220 220" version="1.1" xmlns="http://www.w3.org/2000/svg" xmlns:xlink="http://www.w3.org/1999/xlink">
    <title>切片</title>
    <defs>
        <linearGradient x1="50%" y1="18.2888224%" x2="50%" y2="52.0238478%" id="linearGradient-1">
            <stop stop-color="#ECECEC" offset="0%"></stop>
            <stop stop-color="#FFFFFF" stop-opacity="0" offset="100%"></stop>
        </linearGradient>
        <linearGradient x1="70.1870923%" y1="52.6493232%" x2="64.1864327%" y2="48.040802%" id="linearGradient-2">
            <stop stop-color="#C6C6C6" stop-opacity="0" offset="0%"></stop>
            <stop stop-color="#A0A0A0" offset="100%"></stop>
        </linearGradient>
        <filter x="-7.0%" y="-30.3%" width="113.9%" height="160.5%" filterUnits="objectBoundingBox" id="filter-3">
            <feGaussianBlur stdDeviation="2.4" in="SourceGraphic"></feGaussianBlur>
        </filter>
        <linearGradient x1="50%" y1="0%" x2="50%" y2="100%" id="linearGradient-4">
            <stop stop-color="#D5D5D5" offset="0%"></stop>
            <stop stop-color="#EAEAEA" offset="9.29279193%"></stop>
            <stop stop-color="#D5D5D5" offset="39.8818301%"></stop>
            <stop stop-color="#D4D4D4" offset="84.1137391%"></stop>
            <stop stop-color="#E7E7E7" offset="90.937436%"></stop>
            <stop stop-color="#C5C5C5" offset="100%"></stop>
        </linearGradient>
        <linearGradient x1="48.397932%" y1="-1.96606596%" x2="29.1718798%" y2="103.779594%" id="linearGradient-5">
            <stop stop-color="#ECECEC" offset="0%"></stop>
            <stop stop-color="#DCDCDC" offset="100%"></stop>
        </linearGradient>
        <linearGradient x1="100%" y1="80.2476482%" x2="57.1096686%" y2="72.6031944%" id="linearGradient-6">
            <stop stop-color="#C9C9C9" offset="0%"></stop>
            <stop stop-color="#B6B6B6" offset="100%"></stop>
        </linearGradient>
        <linearGradient x1="50%" y1="0%" x2="50%" y2="100%" id="linearGradient-7">
            <stop stop-color="#FFFFFF" offset="0%"></stop>
            <stop stop-color="#E8E8E8" offset="100%"></stop>
        </linearGradient>
        <linearGradient x1="91.9734896%" y1="20.5085414%" x2="13.5919284%" y2="84.7243253%" id="linearGradient-8">
            <stop stop-color="#D3D3D3" offset="0%"></stop>
            <stop stop-color="#DCDCDC" offset="100%"></stop>
        </linearGradient>
        <linearGradient x1="50%" y1="0%" x2="50%" y2="99.39955%" id="linearGradient-9">
            <stop stop-color="#E5E5E5" offset="0%"></stop>
            <stop stop-color="#DFDFDF" offset="100%"></stop>
        </linearGradient>
        <linearGradient x1="50%" y1="1.27618965%" x2="50%" y2="100%" id="linearGradient-10">
            <stop stop-color="#EAEAEA" offset="0%"></stop>
            <stop stop-color="#E6E6E6" offset="100%"></stop>
        </linearGradient>
        <linearGradient x1="50%" y1="0%" x2="50%" y2="100%" id="linearGradient-11">
            <stop stop-color="#EEEEEE" offset="0%"></stop>
            <stop stop-color="#D8D8D8" offset="100%"></stop>
        </linearGradient>
        <linearGradient x1="50%" y1="0%" x2="50%" y2="100%" id="linearGradient-12">
            <stop stop-color="#EEEEEE" offset="0%"></stop>
            <stop stop-color="#D8D8D8" offset="100%"></stop>
        </linearGradient>
        <linearGradient x1="50%" y1="0%" x2="50%" y2="99.39955%" id="linearGradient-13">
            <stop stop-color="#D5D5D5" offset="0%"></stop>
            <stop stop-color="#C1C1C1" offset="100%"></stop>
        </linearGradient>
        <linearGradient x1="50%" y1="1.27618965%" x2="50%" y2="100%" id="linearGradient-14">
            <stop stop-color="#DFDFDF" offset="0%"></stop>
            <stop stop-color="#D1D1D1" offset="100%"></stop>
        </linearGradient>
        <linearGradient x1="42.237335%" y1="100%" x2="42.237335%" y2="0%" id="linearGradient-15">
            <stop stop-color="#FFFFFF" stop-opacity="0" offset="0%"></stop>
            <stop stop-color="#E3E3E3" offset="100%"></stop>
        </linearGradient>
        <linearGradient x1="42.237335%" y1="100%" x2="42.237335%" y2="0%" id="linearGradient-16">
            <stop stop-color="#FFFFFF" stop-opacity="0" offset="0%"></stop>
            <stop stop-color="#E3E3E3" offset="100%"></stop>
        </linearGradient>
        <linearGradient x1="42.237335%" y1="99.70967%" x2="42.237335%" y2="2.857167%" id="linearGradient-17">
            <stop stop-color="#FFFFFF" stop-opacity="0" offset="0%"></stop>
            <stop stop-color="#EAEAEA" offset="100%"></stop>
        </linearGradient>
        <linearGradient x1="42.237335%" y1="99.70967%" x2="42.237335%" y2="2.857167%" id="linearGradient-18">
            <stop stop-color="#EAEAEA" stop-opacity="0" offset="0%"></stop>
            <stop stop-color="#EAEAEA" offset="100%"></stop>
        </linearGradient>
        <linearGradient x1="16.9937664%" y1="37.3503839%" x2="100%" y2="62.96357%" id="linearGradient-19">
            <stop stop-color="#F0F0F0" offset="0%"></stop>
            <stop stop-color="#CACACA" offset="100%"></stop>
        </linearGradient>
    </defs>
    <g id="页面-1" stroke="none" stroke-width="1" fill="none" fill-rule="evenodd">
        <g id="订单-暂无订单" transform="translate(-78.000000, -200.000000)">
            <g id="编组" transform="translate(78.000000, 200.000000)">
                <polygon id="矩形" points="0 0 220 0 220 220 0 220"></polygon>
                <path d="M219.2,201.395285 C219.2,183.832288 170.309495,145.567532 110,145.567532 C49.6905053,145.567532 0.8,183.832288 0.8,201.395285 C0.8,218.958282 219.2,218.958282 219.2,201.395285 Z" id="椭圆形" fill="url(#linearGradient-1)"></path>
                <path d="M137.782088,168.661397 C145.225068,166.933361 180.607772,186.9934 169.647722,190.940885 C150.235813,197.93248 72.0495065,177.040008 68.4816177,171.509863 C64.9137289,165.979717 130.339108,170.389433 137.782088,168.661397 Z" id="椭圆形" fill-opacity="0.33098492" fill="url(#linearGradient-2)" opacity="0.780682231" filter="url(#filter-3)" transform="translate(120.038644, 180.456294) rotate(-1.000000) translate(-120.038644, -180.456294) "></path>
                <g id="编组-2" transform="translate(64.217520, 70.000000)">
                    <path d="M11.4285714,10.7168568 L58.6666667,10.7168568 C64.9784924,10.7168568 70.0952381,15.8336026 70.0952381,22.1454283 L70.0952381,92.5714286 C70.0952381,98.8832543 64.9784924,104 58.6666667,104 L11.4285714,104 C5.11674572,104 6.10204623e-15,98.8832543 0,92.5714286 L0,22.1454283 C-7.72975716e-16,15.8336026 5.11674572,10.7168568 11.4285714,10.7168568 Z" id="矩形" fill="url(#linearGradient-4)"></path>
                    <ellipse id="椭圆形备份" fill="#E2E2E2" cx="38.4015273" cy="11.4753558" rx="11.4346667" ry="11.4753558"></ellipse>
                    <path d="M41.4477858,0.172619692 C47.0833445,0.172619692 51.6518674,4.75984452 51.6518674,10.4184731 C51.6518674,10.5184892 51.6504402,10.6181706 51.6476051,10.7174979 L66.5920035,10.7168568 C73.3246176,10.7168568 78.7824797,16.1747189 78.7824797,22.907333 L78.7824797,91.8095238 C78.7824797,98.5421379 73.3246176,104 66.5920035,104 L16.3062892,104 C9.57367512,104 4.11581303,98.5421379 4.11581303,91.8095238 L4.11581303,22.907333 C4.11581303,16.1747189 9.57367512,10.7168568 16.3062892,10.7168568 L31.2479665,10.7174979 C31.2451314,10.6181706 31.2437042,10.5184892 31.2437042,10.4184731 C31.2437042,4.75984452 35.8122271,0.172619692 41.4477858,0.172619692 Z" id="形状结合" fill="url(#linearGradient-5)"></path>
                    <ellipse id="椭圆形" fill="#EBEBEB" cx="41.8300987" cy="10.031761" rx="4.49219048" ry="4.50817551"></ellipse>
                    <ellipse id="椭圆形" fill="#FFFFFF" cx="41.4217178" cy="10.031761" rx="4.08380952" ry="4.09834137"></ellipse>
                    <path d="M75.1108869,94.8220688 C67.703922,96.1918323 59.2045146,96.7478167 40.0632679,96.4900233 C22.88801,97.5385239 13.6152663,96.982539 12.2450369,94.8220688 C10.1896928,91.5813634 9.80024061,48.8086574 10.2107801,45.2980438 C10.4949432,42.8681017 30.9503588,55.1099436 71.5770268,82.0235697 C73.0659406,88.8092375 74.2438938,93.0754046 75.1108869,94.8220688 Z" id="路径-11" fill="url(#linearGradient-6)" fill-rule="nonzero"></path>
                    <path d="M17.0679229,17.5984002 C17.6632409,17.5984002 18.2585589,17.5984002 18.853877,17.5984002 C29.7320829,17.5984002 45.5250099,17.5984002 66.2326582,17.5984002 C66.2326582,17.5984002 66.2326582,17.5984002 66.2326582,17.5984002 C69.9080018,17.5984002 72.8874564,20.5778549 72.8874564,24.2531984 C72.8874564,24.29956 72.886972,24.3459203 72.8860151,24.392272 C72.8643428,25.4290854 72.845959,26.3125866 72.8308637,27.0427756 C72.3485834,50.3715671 72.2815782,62.9405611 75.1108869,71.886131 C75.4805374,73.054874 77.4310122,76.3777221 80.9623112,81.8546755 L80.9642843,81.8534005 C81.2640334,82.3172635 81.1309928,82.9362934 80.6671298,83.2360426 C80.6572812,83.2424068 80.6473213,83.2485973 80.6372549,83.2546112 C75.4328475,86.3429853 71.9058984,88.4467544 70.0574108,89.5675978 C63.3637201,93.626364 51.9855348,96.0716146 43.9056324,96.4988541 C35.82573,96.9260936 25.0626506,94.4350124 19.2988828,88.9754117 C15.4866603,82.172965 17.8078105,89.2059075 13.1022491,76.2729779 C10.8055782,69.9607275 10.2107801,41.6513667 10.2107801,27.0158415 C10.2107801,26.1624087 10.2107801,25.3089759 10.2107801,24.455543 C10.2107801,20.6684476 13.2808275,17.5984002 17.0679229,17.5984002 Z" id="矩形" fill="url(#linearGradient-7)" fill-rule="nonzero"></path>
                    <path d="M34.7787856,75.3265599 C34.7257949,88.0081665 27.7993255,95.1728445 13.9993774,96.8205941 C16.3608362,93.6404588 24.6177747,91.8370097 22.6995702,84.2112622 C27.2002922,84.2112622 31.2266973,81.2496948 34.7787856,75.3265599 Z" id="路径" fill="url(#linearGradient-8)" fill-rule="nonzero" transform="translate(24.389081, 86.073577) scale(-1, 1) rotate(5.000000) translate(-24.389081, -86.073577) "></path>
                    <rect id="矩形" fill="#E9E9E9" x="20.115813" y="29.832255" width="42.6666667" height="6.88154335" rx="3.42857143"></rect>
                    <rect id="矩形备份" fill="#E4E4E4" x="20.115813" y="47.4184214" width="42.6666667" height="6.88154335" rx="3.42857143"></rect>
                    <rect id="矩形备份-2" fill="#E2E2E2" x="20.115813" y="65.0045877" width="25.9047619" height="6.88154335" rx="3.42857143"></rect>
                </g>
                <g id="编组备份-5" transform="translate(178.602574, 152.729032)">
                    <polygon id="路径" fill="#D8D8D8" fill-rule="nonzero" points="2.952 6.5144357 4.78057143 6.5144357 4.78057143 16.0674541 4.70742857 16.4333333 4.51314286 16.7278215 4.22285714 16.926378 3.86628571 17 3.86628571 17 3.50971429 16.926378 3.21942857 16.7278215 3.02514286 16.4333333 2.952 16.0674541"></polygon>
                    <polygon id="路径" fill="url(#linearGradient-9)" points="3.65714286 0 8 10.9496063 3.65714286 13.832021"></polygon>
                    <polygon id="路径" fill="url(#linearGradient-10)" points="3.65714286 0 0 12.1030184 3.65714286 13.832021"></polygon>
                    <path d="M8,26.9496063 L4.78,29.086 L4.78057143,32.0674541 L4.70742857,32.4333333 L4.51314286,32.7278215 L4.22285714,32.926378 L3.86628571,33 L3.50971429,32.926378 L3.21942857,32.7278215 L3.02514286,32.4333333 L2.952,32.0674541 L2.952,29.499 L2.25597319e-13,28.1030184 L3.65714286,16 L8,26.9496063 Z" id="形状结合" fill="url(#linearGradient-11)" fill-rule="nonzero" opacity="0.343068677" transform="translate(4.000000, 24.500000) scale(1, -1) translate(-4.000000, -24.500000) "></path>
                </g>
                <g id="编组备份-3" opacity="0.501294513" transform="translate(15.602574, 171.019355)">
                    <path d="M11.3452188,39.8322581 L6.779,42.922 L6.77957861,47.2322581 L6.67585089,47.7612903 L6.40032415,48.1870968 L5.98865478,48.4741935 L5.48298217,48.5806452 L4.97730956,48.4741935 L4.56564019,48.1870968 L4.29011345,47.7612903 L4.18638574,47.2322581 L4.186,43.518 L0,41.5 L5.18638574,24 L11.3452188,39.8322581 Z" id="形状结合" fill="url(#linearGradient-12)" fill-rule="nonzero" opacity="0.682117551" transform="translate(5.672609, 36.290323) scale(1, -1) translate(-5.672609, -36.290323) "></path>
                    <polygon id="路径" fill="#B6B6B6" fill-rule="nonzero" points="4.18638574 9.41935484 6.77957861 9.41935484 6.77957861 23.2322581 6.67585089 23.7612903 6.40032415 24.1870968 5.98865478 24.4741935 5.48298217 24.5806452 5.48298217 24.5806452 4.97730956 24.4741935 4.56564019 24.1870968 4.29011345 23.7612903 4.18638574 23.2322581"></polygon>
                    <polygon id="路径" fill="url(#linearGradient-13)" points="5.18638574 0 11.3452188 15.8322581 5.18638574 20"></polygon>
                    <polygon id="路径" fill="url(#linearGradient-14)" points="5.18638574 0 0 17.5 5.18638574 20"></polygon>
                </g>
                <path d="M47.9333333,56.4 C47.6266667,56.4 47.3266667,56.38 47.0266667,56.34 C46.6666667,56.38 46.3066667,56.4 45.9333333,56.4 C40.2266667,56.4 35.6,51.7733333 35.6,46.0666667 C35.6,40.36 40.2266667,35.7333333 45.9333333,35.7333333 C46.5933333,35.7333333 47.2333333,35.7933333 47.86,35.9133333 C50.1933333,31.4466667 54.8733333,28.4 60.2666667,28.4 C68,28.4 74.2666667,34.6666667 74.2666667,42.4 L74.2666667,42.4 L82.6,42.4 C86.4666667,42.4 89.6,45.5333333 89.6,49.4 C89.6,53.2666667 86.4666667,56.4 82.6,56.4 L47.9333333,56.4 Z" id="形状结合" fill-opacity="0.7" fill="url(#linearGradient-15)"></path>
                <path d="M165.647619,73.4 C165.439524,73.4 165.235952,73.3864286 165.032381,73.3592857 C164.788095,73.3864286 164.54381,73.4 164.290476,73.4 C160.418095,73.4 157.278571,70.2604762 157.278571,66.3880952 C157.278571,62.5157143 160.418095,59.3761905 164.290476,59.3761905 C164.738333,59.3761905 165.172619,59.4169048 165.597857,59.4983333 C167.18119,56.467381 170.356905,54.4 174.016667,54.4 C179.264286,54.4 183.516667,58.652381 183.516667,63.9 L183.516667,63.9 L189.171429,63.9 C191.795238,63.9 193.921429,66.0261905 193.921429,68.65 C193.921429,71.2738095 191.795238,73.4 189.171429,73.4 L165.647619,73.4 Z" id="形状结合备份" fill-opacity="0.7" fill="url(#linearGradient-16)" transform="translate(175.600000, 63.900000) scale(-1, 1) translate(-175.600000, -63.900000) "></path>
                <g transform="translate(2.200000, 92.000000)">
                    <polygon id="路径" fill="url(#linearGradient-17)" points="0 60.2 3.51163462 56.8339356 6.83038462 54.0138256 9.96759615 51.6846819 12.9459615 49.7915161 15.7654808 48.2832679 18.4545192 47.1167321 21.0244231 46.2526316 23.4978846 45.6595444 25.8919231 45.3139042 28.2349038 45.2 30.5495192 45.3099764 32.9719231 45.6438335 35.5248077 46.2251375 38.2308654 47.0774548 41.1184615 48.2361351 44.2102885 49.7443833 47.5176923 51.6414768 51.0747115 53.978476 54.8983654 56.8142969 59 60.2"></polygon>
                    <polygon id="路径-2" points="47.56 31.2 50.878 25.278 54.112 20.178 57.256 15.81 60.322 12.114 63.31 9.018 66.226 6.462 69.082 4.392 71.878 2.76 74.644 1.536 77.386 0.678 80.122 0.168 82.87 0 85.858 0.174 89.416 0.744 93.646 1.788 98.644 3.402 104.524 5.682 111.388 8.736 119.362 12.684 128.566 17.652 139.15 23.778 151.24 31.2"></polygon>
                    <polygon id="路径-3" fill="url(#linearGradient-18)" points="211.6 44.828 208.955882 41.3334161 206.448235 38.3577883 204.068529 35.84671 201.808235 33.7583299 199.658824 32.0466115 197.616029 30.6697036 195.658529 29.5983102 193.782059 28.8031354 191.973824 28.2506982 190.216765 27.9326283 188.502353 27.828 186.527794 27.9535539 184.216324 28.3636967 181.516765 29.1170202 178.369412 30.2721162 174.710294 31.900132 170.475441 34.0847701 165.596618 36.9013629 159.997059 40.4503535 153.6 44.828"></polygon>
                </g>
                <polygon id="路径" fill="url(#linearGradient-19)" fill-rule="nonzero" points="44.9564784 79.5261362 40.7878321 84 29 70 53 71.0555955 49.3790008 75.2125921 32.1988394 71.2926172 47.6490162 77.1854679 50.3727446 81.4392851"></polygon>
                <path d="M54.7110868,84.1301023 C74.4283004,92.9507117 49.7533596,109.682212 60.6868526,127.072073 C71.6203455,144.461933 97.0510721,141.681175 112.71032,135.004588 C128.369568,128.328 159.817449,126.506397 143,146.377702" id="路径-2" stroke="#B6B6B6" stroke-linecap="round" stroke-linejoin="round" stroke-dasharray="4,3"></path>
            </g>
        </g>
    </g>
</svg>