<?xml version="1.0" encoding="UTF-8"?>
<svg width="220px" height="220px" viewBox="0 0 220 220" version="1.1" xmlns="http://www.w3.org/2000/svg" xmlns:xlink="http://www.w3.org/1999/xlink">
    <title>切片</title>
    <defs>
        <linearGradient x1="50%" y1="18.2888224%" x2="50%" y2="52.0238478%" id="linearGradient-1">
            <stop stop-color="#ECECEC" offset="0%"></stop>
            <stop stop-color="#FFFFFF" stop-opacity="0" offset="100%"></stop>
        </linearGradient>
        <linearGradient x1="120.9414%" y1="50%" x2="-25.044602%" y2="50%" id="linearGradient-2">
            <stop stop-color="#C6C6C6" offset="0%"></stop>
            <stop stop-color="#A0A0A0" offset="100%"></stop>
        </linearGradient>
        <filter x="-10.9%" y="-109.1%" width="121.8%" height="318.2%" filterUnits="objectBoundingBox" id="filter-3">
            <feGaussianBlur stdDeviation="2.4" in="SourceGraphic"></feGaussianBlur>
        </filter>
        <linearGradient x1="42.237335%" y1="100%" x2="42.237335%" y2="0%" id="linearGradient-4">
            <stop stop-color="#FFFFFF" stop-opacity="0" offset="0%"></stop>
            <stop stop-color="#E3E3E3" offset="100%"></stop>
        </linearGradient>
        <linearGradient x1="42.237335%" y1="100%" x2="42.237335%" y2="0%" id="linearGradient-5">
            <stop stop-color="#FFFFFF" stop-opacity="0" offset="0%"></stop>
            <stop stop-color="#E3E3E3" offset="100%"></stop>
        </linearGradient>
        <linearGradient x1="42.237335%" y1="99.70967%" x2="42.237335%" y2="2.857167%" id="linearGradient-6">
            <stop stop-color="#FFFFFF" stop-opacity="0" offset="0%"></stop>
            <stop stop-color="#EAEAEA" offset="100%"></stop>
        </linearGradient>
        <linearGradient x1="42.237335%" y1="99.70967%" x2="42.237335%" y2="2.857167%" id="linearGradient-7">
            <stop stop-color="#EAEAEA" stop-opacity="0" offset="0%"></stop>
            <stop stop-color="#EAEAEA" offset="100%"></stop>
        </linearGradient>
        <linearGradient x1="50%" y1="0%" x2="50%" y2="99.39955%" id="linearGradient-8">
            <stop stop-color="#E5E5E5" offset="0%"></stop>
            <stop stop-color="#DFDFDF" offset="100%"></stop>
        </linearGradient>
        <linearGradient x1="50%" y1="1.27618965%" x2="50%" y2="100%" id="linearGradient-9">
            <stop stop-color="#EAEAEA" offset="0%"></stop>
            <stop stop-color="#E6E6E6" offset="100%"></stop>
        </linearGradient>
        <linearGradient x1="50%" y1="0%" x2="50%" y2="99.39955%" id="linearGradient-10">
            <stop stop-color="#D5D5D5" offset="0%"></stop>
            <stop stop-color="#C1C1C1" offset="100%"></stop>
        </linearGradient>
        <linearGradient x1="50%" y1="1.27618965%" x2="50%" y2="100%" id="linearGradient-11">
            <stop stop-color="#DFDFDF" offset="0%"></stop>
            <stop stop-color="#D1D1D1" offset="100%"></stop>
        </linearGradient>
        <linearGradient x1="77.9856585%" y1="7.88934441%" x2="23.3536321%" y2="100%" id="linearGradient-12">
            <stop stop-color="#ECECEC" offset="0%"></stop>
            <stop stop-color="#CCCCCC" offset="100%"></stop>
        </linearGradient>
        <path d="M94.9141005,47.0125882 C95.9037285,46.8664835 96.7623669,46.8946856 97.6437442,47.3729917 C98.2313291,47.6918625 99.2252836,48.9986097 100.625608,51.2932334 L101.267423,52.4222656 L101.721232,53.5577495 L101.996759,54.7093624 L102.103728,55.8932334 L102.032415,57.1190398 L101.779579,58.399685 L101.329011,59.7545237 L100.654781,61.1900076 L99.7309562,62.7222656 L98.5251216,64.3642011 L96.9951378,66.1287172 L94.3209076,69.1383947 L91.6272285,72.4319431 L89.0210697,75.8448463 L86.4829822,79.3609753 L84.0388979,82.9190398 L81.7471637,86.3932334 L79.5559157,89.8351689 L77.5980551,93.0093624 L74.2171799,98.6771043 L71.7893031,102.88033 L71.1053485,103.912588 L70.4440843,104.651298 L69.7925446,105.151298 L69.1474878,105.454524 L68.4927066,105.586782 L67.808752,105.554524 L67.0729335,105.348072 L66.2658023,104.931943 L65.3646677,104.260975 L64.350081,103.273879 L63.2090762,101.899685 L61.9254457,100.05775 L85.9481361,49.099685 C91.2656937,47.8056903 94.2543485,47.1099914 94.9141005,47.0125882 Z" id="path-13"></path>
        <filter x="-0.6%" y="-0.4%" width="101.2%" height="100.9%" filterUnits="objectBoundingBox" id="filter-14">
            <feOffset dx="-0.5" dy="-0.5" in="SourceAlpha" result="shadowOffsetInner1"></feOffset>
            <feComposite in="shadowOffsetInner1" in2="SourceAlpha" operator="arithmetic" k2="-1" k3="1" result="shadowInnerInner1"></feComposite>
            <feColorMatrix values="0 0 0 0 0.787675498   0 0 0 0 0.787675498   0 0 0 0 0.787675498  0 0 0 1 0" type="matrix" in="shadowInnerInner1"></feColorMatrix>
        </filter>
        <linearGradient x1="66.7930371%" y1="3.9272975%" x2="16.7213959%" y2="81.5846535%" id="linearGradient-15">
            <stop stop-color="#F2F2F2" offset="0%"></stop>
            <stop stop-color="#F2F2F2" offset="12.015133%"></stop>
            <stop stop-color="#CECECE" offset="100%"></stop>
        </linearGradient>
        <path d="M76.5056726,41.4706527 L85.5721232,43.6448463 L91.1247974,45.1351689 C94.3540605,45.869364 96.5891343,46.6505818 97.8300187,47.4788222 C95.843066,46.8072992 94.7298681,47.1556387 94.1102107,47.3867818 C93.6971058,47.5408772 93.2962414,47.7677589 92.9076175,48.0674269 L91.6466775,48.9351689 L90.1199352,50.2061366 L89.1377634,51.1609753 L88.0972447,52.3254914 L86.9983793,53.7319431 L86.0032415,55.199685 L85.0016207,56.9287172 L84,58.9545237 L83.1377634,61.0287172 L82.3273906,63.4254914 L81.5786062,66.1803302 L80.5251216,70.399685 L79.3128039,74.8029108 L77.9708266,79.1867818 L76.4927066,83.4706527 L75.4100486,86.283556 L74.2852512,88.9222656 L73.1150729,91.3932334 L71.8249595,93.8061366 L70.5121556,95.9287172 L69.1831442,97.7803302 L68.0615883,99.1061366 L66.9400324,100.209362 L65.8184765,101.115814 L64.6936791,101.838395 L63.7147488,102.312588 L62.732577,102.64162 L61.7309562,102.825491 L60.7066451,102.873879 L59.6466775,102.78033 L58.3824959,102.490008 L57.2155592,102.073879 L56.1426256,101.531943 L55.1474878,100.864201 L54.2236629,100.060975 L53.4197731,99.1674269 L52.7001621,98.1545237 L52.0680713,97.0093624 L51.5235008,95.7190398 L51.076175,94.2706527 L50.7747164,92.8545237 L50.5802269,91.3093624 L50.4991896,89.6222656 L50.541329,87.7738785 L50.7228525,85.7577495 L51.0988655,83.3738785 L51.7017828,80.7803302 L52.554295,77.9545237 C53.8985129,73.112631 55.3233148,69.1383188 56.8287007,66.0315871 C58.3340866,62.9248554 60.1959299,60.1163719 62.4142307,57.6061366 L65.1662567,53.7319431 L68.7293355,50.3416205 L71.3743922,47.099685 L73.9643436,44.1480721 L76.5056726,41.4706527 Z" id="path-16"></path>
        <filter x="-1.1%" y="-0.8%" width="102.1%" height="101.6%" filterUnits="objectBoundingBox" id="filter-17">
            <feOffset dx="-1" dy="-0.5" in="SourceAlpha" result="shadowOffsetInner1"></feOffset>
            <feComposite in="shadowOffsetInner1" in2="SourceAlpha" operator="arithmetic" k2="-1" k3="1" result="shadowInnerInner1"></feComposite>
            <feColorMatrix values="0 0 0 0 0.882302989   0 0 0 0 0.882302989   0 0 0 0 0.882302989  0 0 0 1 0" type="matrix" in="shadowInnerInner1"></feColorMatrix>
        </filter>
        <linearGradient x1="55.5514911%" y1="24.40261%" x2="43.9102236%" y2="92.21393%" id="linearGradient-18">
            <stop stop-color="#E9E9E9" offset="0%"></stop>
            <stop stop-color="#D6D6D6" offset="100%"></stop>
        </linearGradient>
        <linearGradient x1="66.5037432%" y1="24.40261%" x2="31.896016%" y2="92.21393%" id="linearGradient-19">
            <stop stop-color="#F3F3F3" offset="0%"></stop>
            <stop stop-color="#DADADA" offset="100%"></stop>
        </linearGradient>
        <linearGradient x1="100%" y1="50%" x2="0%" y2="0.691537553%" id="linearGradient-20">
            <stop stop-color="#D9D9D9" offset="0%"></stop>
            <stop stop-color="#FFFFFF" offset="100%"></stop>
        </linearGradient>
        <linearGradient x1="100%" y1="50%" x2="0.35152836%" y2="0.864870771%" id="linearGradient-21">
            <stop stop-color="#DBDBDB" offset="0%"></stop>
            <stop stop-color="#F8FAFF" offset="100%"></stop>
        </linearGradient>
        <linearGradient x1="99.0848995%" y1="49.548778%" x2="0%" y2="0.691537553%" id="linearGradient-22">
            <stop stop-color="#D5D5D5" offset="0%"></stop>
            <stop stop-color="#F0F0F0" offset="100%"></stop>
        </linearGradient>
        <linearGradient x1="100%" y1="50%" x2="0%" y2="0.691537553%" id="linearGradient-23">
            <stop stop-color="#D7D7D7" offset="0%"></stop>
            <stop stop-color="#E9E9E9" offset="100%"></stop>
        </linearGradient>
        <linearGradient x1="100%" y1="50%" x2="0%" y2="0.691537553%" id="linearGradient-24">
            <stop stop-color="#CACACA" offset="0%"></stop>
            <stop stop-color="#E1E1E1" offset="100%"></stop>
        </linearGradient>
        <linearGradient x1="99.47409%" y1="40.2006234%" x2="29.1695687%" y2="75.2108117%" id="linearGradient-25">
            <stop stop-color="#DDDDDD" stop-opacity="0" offset="0%"></stop>
            <stop stop-color="#BABABA" offset="100%"></stop>
        </linearGradient>
        <linearGradient x1="39.452466%" y1="52.372897%" x2="68.408734%" y2="66.10033%" id="linearGradient-26">
            <stop stop-color="#D6D6D6" offset="0%"></stop>
            <stop stop-color="#BCBCBC" offset="100%"></stop>
        </linearGradient>
        <linearGradient x1="37.5507347%" y1="52.541095%" x2="61.4070639%" y2="63.841015%" id="linearGradient-27">
            <stop stop-color="#E9E9E9" offset="0%"></stop>
            <stop stop-color="#D2D2D2" offset="100%"></stop>
        </linearGradient>
        <linearGradient x1="50%" y1="0%" x2="50%" y2="98.98093%" id="linearGradient-28">
            <stop stop-color="#F8F8F8" offset="0%"></stop>
            <stop stop-color="#C8C8C8" offset="100%"></stop>
        </linearGradient>
        <linearGradient x1="50%" y1="12.9773253%" x2="50%" y2="100%" id="linearGradient-29">
            <stop stop-color="#FFFFFF" offset="0%"></stop>
            <stop stop-color="#F1F1F1" offset="100%"></stop>
        </linearGradient>
        <radialGradient cx="76.3193773%" cy="9.32367065%" fx="76.3193773%" fy="9.32367065%" r="105.809112%" gradientTransform="translate(0.763194,0.093237),scale(0.881453,1.000000),rotate(126.869503),scale(1.000000,1.374238),translate(-0.763194,-0.093237)" id="radialGradient-30">
            <stop stop-color="#F4F3F3" offset="0%"></stop>
            <stop stop-color="#D1D1D1" offset="100%"></stop>
        </radialGradient>
        <polygon id="path-31" points="46.2917342 37.8677419 43.9319287 39.5129032 41.5753647 40.9322581 39.2188006 42.1354839 36.7844408 43.1741935 34.4181524 43.9870968 32.1199352 44.583871 30.350081 44.9129032 28.6612642 45.1129032 27.0470016 45.1935484 25.4975689 45.1612903 23.9351702 45.0032258 22.4797407 44.7258065 21.1247974 44.3322581 19.8573744 43.8258065 18.6482982 43.183871 17.5591572 42.4225806 16.5802269 41.5419355 15.7050243 40.5354839 14.9724473 39.4193548 14.3922204 38.2419355 13.9578606 36.9903226 13.6693679 35.6548387 13.5299838 34.3032258 13.5235008 32.9 13.6564019 31.4290323 13.9351702 29.8903226 14.3306321 28.4 14.8525122 26.8774194 15.5137763 25.316129 16.3176661 23.716129 17.5299838 21.6806452 18.9659643 19.6451613 20.6385737 17.6 22.4538088 15.6774194 24.4732577 13.816129 26.713128 12.0096774 29.0729335 10.3645161 31.4294976 8.94516129 33.7860616 7.73870968 36.2204214 6.70322581 38.5867099 5.89032258 40.8849271 5.29354839 42.6547812 4.96451613 44.3435981 4.76451613 45.9578606 4.68387097 47.5072934 4.71612903 49.0696921 4.87419355 50.5251216 5.1516129 51.8800648 5.54516129 53.1474878 6.0516129 54.356564 6.69354839 55.445705 7.4516129 56.4246353 8.33225806 57.2998379 9.34193548 58.0324149 10.4580645 58.6126418 11.6354839 59.0470016 12.8870968 59.3354943 14.2225806 59.4748784 15.5741935 59.4813614 16.9774194 59.3484603 18.4451613 59.0696921 19.9870968 58.6742301 21.4774194 58.1523501 23 57.4910859 24.5612903 56.6871961 26.1612903 55.4748784 28.1967742 54.0388979 30.2322581 52.3662885 32.2774194 50.5510535 34.2 48.5316045 36.0612903"></polygon>
        <filter x="-4.4%" y="-4.9%" width="108.7%" height="109.9%" filterUnits="objectBoundingBox" id="filter-32">
            <feGaussianBlur stdDeviation="2" in="SourceAlpha" result="shadowBlurInner1"></feGaussianBlur>
            <feOffset dx="0" dy="0" in="shadowBlurInner1" result="shadowOffsetInner1"></feOffset>
            <feComposite in="shadowOffsetInner1" in2="SourceAlpha" operator="arithmetic" k2="-1" k3="1" result="shadowInnerInner1"></feComposite>
            <feColorMatrix values="0 0 0 0 0   0 0 0 0 0   0 0 0 0 0  0 0 0 0.05 0" type="matrix" in="shadowInnerInner1"></feColorMatrix>
        </filter>
        <filter x="-11.9%" y="-13.8%" width="123.8%" height="127.5%" filterUnits="objectBoundingBox" id="filter-33">
            <feGaussianBlur stdDeviation="0.5" in="SourceGraphic"></feGaussianBlur>
        </filter>
        <radialGradient cx="24.042307%" cy="50%" fx="24.042307%" fy="50%" r="66.4911785%" gradientTransform="translate(0.240423,0.500000),scale(0.995161,1.000000),translate(-0.240423,-0.500000)" id="radialGradient-34">
            <stop stop-color="#F8F8F8" offset="0%"></stop>
            <stop stop-color="#C6C6C6" offset="100%"></stop>
        </radialGradient>
        <radialGradient cx="24.042307%" cy="50%" fx="24.042307%" fy="50%" r="66.4911785%" gradientTransform="translate(0.240423,0.500000),scale(0.995161,1.000000),translate(-0.240423,-0.500000)" id="radialGradient-35">
            <stop stop-color="#FFFFFF" offset="0%"></stop>
            <stop stop-color="#C6C6C6" offset="100%"></stop>
        </radialGradient>
    </defs>
    <g id="页面-1" stroke="none" stroke-width="1" fill="none" fill-rule="evenodd">
        <g id="搜索-结果-暂无搜索结果" transform="translate(-78.000000, -200.000000)">
            <g id="img_nosearch" transform="translate(78.000000, 200.000000)">
                <g id="编组">
                    <polygon id="矩形" points="0 0 220 0 220 220 0 220"></polygon>
                    <path d="M219.2,201.395285 C219.2,183.832288 170.309495,145.567532 110,145.567532 C49.6905053,145.567532 0.8,183.832288 0.8,201.395285 C0.8,218.958282 219.2,218.958282 219.2,201.395285 Z" id="椭圆形" fill="url(#linearGradient-1)"></path>
                    <path d="M120,174.5 C120,176.324 105.228,177.8 87,177.8 C68.772,177.8 54,176.324 54,174.5 C54,172.676 68.772,171.2 87,171.2 C105.228,171.2 120,172.676 120,174.5 Z" id="椭圆形" fill-opacity="0.33098492" fill="url(#linearGradient-2)" opacity="0.780682231" filter="url(#filter-3)" transform="translate(87.000000, 174.500000) rotate(-1.000000) translate(-87.000000, -174.500000) "></path>
                    <path d="M47.9333333,56.4 C47.6266667,56.4 47.3266667,56.38 47.0266667,56.34 C46.6666667,56.38 46.3066667,56.4 45.9333333,56.4 C40.2266667,56.4 35.6,51.7733333 35.6,46.0666667 C35.6,40.36 40.2266667,35.7333333 45.9333333,35.7333333 C46.5933333,35.7333333 47.2333333,35.7933333 47.86,35.9133333 C50.1933333,31.4466667 54.8733333,28.4 60.2666667,28.4 C68,28.4 74.2666667,34.6666667 74.2666667,42.4 L74.2666667,42.4 L82.6,42.4 C86.4666667,42.4 89.6,45.5333333 89.6,49.4 C89.6,53.2666667 86.4666667,56.4 82.6,56.4 L47.9333333,56.4 Z" id="形状结合" fill-opacity="0.7" fill="url(#linearGradient-4)"></path>
                    <path d="M165.647619,73.4 C165.439524,73.4 165.235952,73.3864286 165.032381,73.3592857 C164.788095,73.3864286 164.54381,73.4 164.290476,73.4 C160.418095,73.4 157.278571,70.2604762 157.278571,66.3880952 C157.278571,62.5157143 160.418095,59.3761905 164.290476,59.3761905 C164.738333,59.3761905 165.172619,59.4169048 165.597857,59.4983333 C167.18119,56.467381 170.356905,54.4 174.016667,54.4 C179.264286,54.4 183.516667,58.652381 183.516667,63.9 L183.516667,63.9 L189.171429,63.9 C191.795238,63.9 193.921429,66.0261905 193.921429,68.65 C193.921429,71.2738095 191.795238,73.4 189.171429,73.4 L165.647619,73.4 Z" id="形状结合备份" fill-opacity="0.7" fill="url(#linearGradient-5)" transform="translate(175.600000, 63.900000) scale(-1, 1) translate(-175.600000, -63.900000) "></path>
                    <g transform="translate(2.200000, 88.200000)">
                        <polygon id="路径" fill="url(#linearGradient-6)" points="0 15 3.51163462 11.6339356 6.83038462 8.81382561 9.96759615 6.48468185 12.9459615 4.5915161 15.7654808 3.08326787 18.4545192 1.91673213 21.0244231 1.05263158 23.4978846 0.459544383 25.8919231 0.113904163 28.2349038 0 30.5495192 0.109976434 32.9719231 0.443833464 35.5248077 1.02513747 38.2308654 1.87745483 41.1184615 3.03613511 44.2102885 4.54438335 47.5176923 6.44147683 51.0747115 8.77847604 54.8983654 11.6142969 59 15"></polygon>
                        <polygon id="路径-2" points="47.56 35 50.878 29.078 54.112 23.978 57.256 19.61 60.322 15.914 63.31 12.818 66.226 10.262 69.082 8.192 71.878 6.56 74.644 5.336 77.386 4.478 80.122 3.968 82.87 3.8 85.858 3.974 89.416 4.544 93.646 5.588 98.644 7.202 104.524 9.482 111.388 12.536 119.362 16.484 128.566 21.452 139.15 27.578 151.24 35"></polygon>
                        <polygon id="路径-3" fill="url(#linearGradient-7)" points="211.6 48.628 208.955882 45.1334161 206.448235 42.1577883 204.068529 39.64671 201.808235 37.5583299 199.658824 35.8466115 197.616029 34.4697036 195.658529 33.3983102 193.782059 32.6031354 191.973824 32.0506982 190.216765 31.7326283 188.502353 31.628 186.527794 31.7535539 184.216324 32.1636967 181.516765 32.9170202 178.369412 34.0721162 174.710294 35.700132 170.475441 37.8847701 165.596618 40.7013629 159.997059 44.2503535 153.6 48.628"></polygon>
                    </g>
                </g>
                <g id="编组" transform="translate(15.602574, 67.039025)">
                    <g id="编组备份-2" transform="translate(19.000000, 85.690008)">
                        <polygon id="路径" fill="#D8D8D8" fill-rule="nonzero" points="2.952 6.5144357 4.78057143 6.5144357 4.78057143 16.0674541 4.70742857 16.4333333 4.51314286 16.7278215 4.22285714 16.926378 3.86628571 17 3.86628571 17 3.50971429 16.926378 3.21942857 16.7278215 3.02514286 16.4333333 2.952 16.0674541"></polygon>
                        <polygon id="路径" fill="url(#linearGradient-8)" points="3.65714286 0 8 10.9496063 3.65714286 13.832021"></polygon>
                        <polygon id="路径" fill="url(#linearGradient-9)" points="3.65714286 0 0 12.1030184 3.65714286 13.832021"></polygon>
                    </g>
                    <g id="编组备份-5" transform="translate(163.000000, 85.690008)">
                        <polygon id="路径" fill="#D8D8D8" fill-rule="nonzero" points="2.952 6.5144357 4.78057143 6.5144357 4.78057143 16.0674541 4.70742857 16.4333333 4.51314286 16.7278215 4.22285714 16.926378 3.86628571 17 3.86628571 17 3.50971429 16.926378 3.21942857 16.7278215 3.02514286 16.4333333 2.952 16.0674541"></polygon>
                        <polygon id="路径" fill="url(#linearGradient-8)" points="3.65714286 0 8 10.9496063 3.65714286 13.832021"></polygon>
                        <polygon id="路径" fill="url(#linearGradient-9)" points="3.65714286 0 0 12.1030184 3.65714286 13.832021"></polygon>
                    </g>
                    <g id="编组备份-3" opacity="0.501294513" transform="translate(0.000000, 103.980330)">
                        <polygon id="路径" fill="#B6B6B6" fill-rule="nonzero" points="4.18638574 9.41935484 6.77957861 9.41935484 6.77957861 23.2322581 6.67585089 23.7612903 6.40032415 24.1870968 5.98865478 24.4741935 5.48298217 24.5806452 5.48298217 24.5806452 4.97730956 24.4741935 4.56564019 24.1870968 4.29011345 23.7612903 4.18638574 23.2322581"></polygon>
                        <polygon id="路径" fill="url(#linearGradient-10)" points="5.18638574 0 11.3452188 15.8322581 5.18638574 20"></polygon>
                        <polygon id="路径" fill="url(#linearGradient-11)" points="5.18638574 0 0 17.5 5.18638574 20"></polygon>
                    </g>
                    <g transform="translate(33.162075, 0.000000)">
                        <g transform="translate(16.505673, 0.000000)" id="路径">
                            <g>
                                <use fill="url(#linearGradient-12)" fill-rule="evenodd" xlink:href="#path-13"></use>
                                <use fill="black" fill-opacity="1" filter="url(#filter-14)" xlink:href="#path-13"></use>
                            </g>
                            <g>
                                <use fill="url(#linearGradient-15)" fill-rule="evenodd" xlink:href="#path-16"></use>
                                <use fill="black" fill-opacity="1" filter="url(#filter-17)" xlink:href="#path-16"></use>
                            </g>
                            <path d="M42.6211296,0 L44.0344197,0.674193548 L53.821718,4.99305529 L60.8265802,7.7545237 L64.6191248,9.28033015 L68.5640194,10.7932334 L72.5380875,12.2319431 L76.4473258,13.5448463 L80.3209076,14.7190398 L83.9027553,15.6577495 L86.2884927,16.1803302 L88.4343598,16.5480721 L90.363047,16.783556 L92.3111831,16.8803302 L93.9222042,16.7964592 L95.2512156,16.5674269 L95.7601297,16.499685 L96.0486224,16.5738785 L96.2009724,16.7480721 L96.2495948,17.0480721 L96.1393841,17.5738785 L95.7568882,18.4545237 L94.9854133,19.8029108 L93.6596434,21.7738785 L91.4294976,24.7803302 L88.2301459,28.8416205 L84.6645057,33.1932334 L80.2593193,38.4545237 L70.165316,50.2964592 L67.9124797,53.0448463 L65.8411669,55.7771043 L63.9513776,58.499685 L62.2333874,61.2093624 L60.6029173,64.0254914 L59.1604538,66.7706527 L57.8897893,69.4512979 L56.7876823,72.0674269 L55.7860616,74.783556 L54.9659643,77.3674269 L54.3144246,79.8351689 L53.821718,82.1867818 L53.452188,84.6222656 L53.2544571,86.8738785 L53.2123177,88.9512979 L53.3160454,90.8738785 L53.5883306,92.8351689 L54.0097245,94.5674269 L54.5705024,96.0964592 L55.2576985,97.4448463 L55.9513776,98.4642011 L56.732577,99.3416205 L57.6012966,100.086782 L58.5672609,100.706137 C59.3836639,101.187039 60.101778,101.506014 60.721603,101.663061 C61.3414281,101.820107 62.4180197,102.002208 63.9513776,102.209362 C62.5129582,102.883441 60.9159836,103.033346 59.1604538,102.659077 C57.404924,102.284809 54.1493865,100.868237 49.3938412,98.4093624 L43.2252836,96.7383947 L41.9286872,2.30936241 L40.8298217,0.754523701 L42.6211296,0 Z" fill="url(#linearGradient-18)"></path>
                            <polygon fill="url(#linearGradient-19)" points="40.8298217 0.754523701 42.2431118 1.42871725 46.0940032 3.22226564 51.815235 5.78033015 58.8265802 8.7545237 62.6191248 10.2803302 66.5640194 11.7932334 70.5380875 13.2319431 74.4473258 14.5448463 78.3209076 15.7190398 81.9027553 16.6577495 84.2884927 17.1803302 86.4343598 17.5480721 88.363047 17.783556 90.3111831 17.8803302 91.9222042 17.7964592 93.2512156 17.5674269 93.7601297 17.499685 94.0486224 17.5738785 94.2009724 17.7480721 94.2495948 18.0480721 94.1393841 18.5738785 93.7568882 19.4545237 92.9854133 20.8029108 91.6596434 22.7738785 89.4294976 25.7803302 86.2301459 29.8416205 82.6645057 34.1932334 78.2593193 39.4545237 68.165316 51.2964592 65.9124797 54.0448463 63.8411669 56.7771043 61.9513776 59.499685 60.2333874 62.2093624 58.6029173 65.0254914 57.1604538 67.7706527 55.8897893 70.4512979 54.7876823 73.0674269 53.7860616 75.783556 52.9659643 78.3674269 52.3144246 80.8351689 51.821718 83.1867818 51.452188 85.6222656 51.2544571 87.8738785 51.2123177 89.9512979 51.3160454 91.8738785 51.5883306 93.8351689 52.0097245 95.5674269 52.5705024 97.0964592 53.2576985 98.4448463 53.9513776 99.4642011 54.732577 100.34162 55.6012966 101.086782 56.5672609 101.706137 57.6401945 102.209362 56.2755267 101.835169 52.6385737 100.838395 47.3938412 99.4093624 41.2252836 97.7383947 34.7974068 96.015814 28.7941653 94.4319431 23.8800648 93.1738785 19.3711507 92.0932334 16.9465154 91.4674269 14.4408428 90.7287172 11.9708266 89.8609753 9.57860616 88.8254914 8.04213938 88.0222656 6.60615883 87.1222656 5.25769854 86.1222656 4.02269044 85.0029108 2.92706645 83.7512979 1.96758509 82.3609753 1.36790924 81.2545237 0.871961102 80.0448463 0.473257699 78.7254914 0.181523501 77.2803302 0.0291734198 75.8512979 0 74.2771043 0.116693679 72.5383947 0.385737439 70.6190398 0.991896272 67.6900076 1.76985413 64.6287172 2.726094 61.4254914 3.79902755 58.2577495 4.99513776 55.0512979 6.3273906 51.7964592 8.48298217 46.9867818 10.8103728 42.2867818 13.286872 37.7125882 15.7990276 33.4545237 17.5526742 30.6900076 19.2576985 28.1609753 20.917342 25.8577495 22.6612642 23.6029108 24.2820097 21.6771043 25.7860616 20.0480721 31.8573744 13.7738785 34.350081 11.0738785 36.2982172 8.8061366 37.4846029 7.29323338 38.4570502 5.9061366 39.2414911 4.63516886 39.9286872 3.30936241 40.4538088 2.01903983"></polygon>
                            <polygon fill="url(#linearGradient-20)" fill-rule="nonzero" opacity="0.57962391" points="37.7115073 15.8029108 76.560778 28.7254914 75.7893031 31.0093624 36.9400324 18.0900076"></polygon>
                            <polygon fill="url(#linearGradient-21)" fill-rule="nonzero" opacity="0.57962391" points="29.9513776 33.6254914 63.5202593 45.3416205 62.7163695 47.615814 29.1442464 35.8964592"></polygon>
                            <polygon fill="url(#linearGradient-22)" fill-rule="nonzero" opacity="0.57962391" points="25.6596434 45.3351689 56.4343598 55.3093624 55.6823339 57.599685 24.9076175 47.6254914"></polygon>
                            <polygon fill="url(#linearGradient-23)" fill-rule="nonzero" opacity="0.57962391" points="19.9546191 57.6448463 49.9773096 66.4383947 49.2901135 68.7512979 19.2706645 59.9545237"></polygon>
                            <polygon fill="url(#linearGradient-24)" fill-rule="nonzero" opacity="0.57962391" points="14.0907618 72.4125882 46.6807131 82.0642011 45.987034 84.3738785 13.3970827 74.7222656"></polygon>
                        </g>
                        <g transform="translate(0.000000, 19.964201)">
                            <polygon id="路径" fill-opacity="0.3" fill="url(#linearGradient-25)" fill-rule="nonzero" points="67.3905997 56.0032258 65.5299838 57.3 63.6564019 58.4419355 61.7601297 59.4354839 59.8444084 60.283871 57.8606159 61.0096774 55.8962723 61.5870968 53.9513776 62.0225806 52.0162075 62.316129 50.0518639 62.4774194 48.1458671 62.4935484 46.2884927 62.3741935 44.4797407 62.1193548 42.6871961 61.716129 40.9821718 61.1806452 39.3581848 60.5096774 37.808752 59.7032258 36.3403566 58.7580645 34.9821718 57.6774194 33.7277147 56.4548387 32.5737439 55.0870968 31.5688817 53.6064516 30.7358185 52.0677419 30.0648298 50.4709677 29.5559157 48.8064516 29.2058347 47.1032258 29.0048622 45.3645161 28.9562399 43.583871 29.0632091 41.7580645 29.3160454 39.9548387 29.7115073 38.1483871 30.2528363 36.3290323 30.9497569 34.4935484 31.7666126 32.7258065 32.7228525 30.983871 33.821718 29.2645161 35.0729335 27.5645161 36.4181524 25.9645161 37.8995138 24.4290323 39.5202593 22.9483871 41.286872 21.5290323 43.1442464 20.2290323 45.0210697 19.0870968 46.9141005 18.0935484 48.8298217 17.2483871 50.8168558 16.5193548 52.7779579 15.9419355 54.726094 15.5064516 56.6580227 15.2129032 58.6223663 15.0548387 60.5316045 15.0354839 62.3857374 15.1548387 64.1944895 15.4129032 65.9902755 15.8129032 67.6952998 16.3483871 69.3192869 17.0193548 70.8687196 17.8258065 72.3371151 18.7741935 73.6952998 19.8548387 74.9497569 21.0741935 76.1037277 22.4419355 77.10859 23.9258065 77.9416532 25.4612903 78.6094003 27.0580645 79.1183144 28.7225806 79.471637 30.4290323 79.6726094 32.1677419 79.7179903 33.9451613 79.6142626 35.7709677 79.3614263 37.5741935 78.9659643 39.3806452 78.4213938 41.2 77.7277147 43.0354839 76.910859 44.8064516 75.9546191 46.5483871 74.8525122 48.2677419 73.6045381 49.9645161 72.2560778 51.5645161 70.7779579 53.1032258 69.1572123 54.5806452"></polygon>
                            <polygon id="路径" fill="#C6C6C6" fill-rule="nonzero" points="53.6596434 46.1225806 51.5559157 47.6064516 49.445705 48.9225806 47.3290113 50.083871 45.1961102 51.0935484 42.9886548 51.983871 40.8168558 52.716129 38.6807131 53.2935484 36.5737439 53.7225806 34.4181524 54.0193548 32.3403566 54.1580645 30.3403566 54.1483871 28.4084279 53.9967742 26.4732577 53.6870968 24.6547812 53.2322581 22.9400324 52.6322581 21.3225284 51.8903226 19.7828201 50.9870968 18.3792545 49.9387097 17.102107 48.7419355 15.9384117 47.3870968 14.9497569 45.9 14.1458671 44.3451613 13.5202593 42.716129 13.0729335 40.9935484 12.8006483 39.2419355 12.6936791 37.4387097 12.7552674 35.5709677 12.9918963 33.6354839 13.3776337 31.7451613 13.9189627 29.8290323 14.6256078 27.8806452 15.5040519 25.9 16.4991896 24.0032258 17.6466775 22.1193548 18.9529984 20.2419355 20.4246353 18.3774194 21.9837925 16.616129 23.6888169 14.9096774 25.5429498 13.2548387 27.5559157 11.6516129 29.6596434 10.1677419 31.7666126 8.8516129 33.8865478 7.69032258 36.0162075 6.68064516 38.2269044 5.79032258 40.3954619 5.05806452 42.534846 4.48064516 44.6418152 4.0516129 46.7974068 3.75483871 48.8719611 3.61612903 50.8719611 3.62580645 52.8071313 3.77741935 54.7423015 4.08709677 56.560778 4.54193548 58.2755267 5.14193548 59.8930308 5.88387097 61.4294976 6.78709677 62.8330632 7.83548387 64.1134522 9.03225806 65.273906 10.3870968 66.2658023 11.8741935 67.0696921 13.4290323 67.6952998 15.0580645 68.1426256 16.7806452 68.4116694 18.5322581 68.5186386 20.3354839 68.4602917 22.2032258 68.2236629 24.1387097 67.8379254 26.0290323 67.2965964 27.9451613 66.5899514 29.8935484 65.7082658 31.8741935 64.713128 33.7709677 63.5656402 35.6548387 62.2625608 37.5322581 60.7909238 39.3967742 59.2285251 41.1580645 57.5235008 42.8645161 55.6693679 44.5193548"></polygon>
                            <polygon id="路径" fill="url(#linearGradient-26)" fill-rule="nonzero" points="23.2414911 46.1322581 23.5688817 45.6870968 23.9448947 45.3258065 24.376013 45.0387097 25.095624 44.7612903 25.8606159 44.6709677 26.376013 44.7193548 26.8784441 44.8612903 27.3743922 45.1 27.987034 45.583871 28.4343598 46.1774194 28.7228525 46.8612903 28.8363047 47.5903226 28.7682334 48.3258065 28.5089141 49.0548387 28.4084279 49.2354839 22.5575365 58.983871 22.2301459 59.4290323 21.8541329 59.7903226 21.4230146 60.0774194 20.7066451 60.3580645 19.9416532 60.4483871 19.4262561 60.3967742 18.923825 60.2548387 18.4246353 60.016129 17.8119935 59.5322581 17.3646677 58.9387097 17.0794165 58.2580645 16.9659643 57.5258065 17.0307942 56.7903226 17.2933549 56.0612903 17.3938412 55.883871"></polygon>
                            <polygon id="路径" fill="url(#linearGradient-27)" fill-rule="nonzero" points="13.6466775 56.4290323 14.3047002 55.5419355 15.0632091 54.8225806 15.9286872 54.2548387 16.8816856 53.8451613 17.8670989 53.6032258 18.897893 53.5322581 19.9286872 53.6354839 20.9303079 53.9258065 21.9254457 54.4096774 22.7876823 55.0483871 23.4910859 55.7806452 24.0518639 56.616129 24.4700162 57.5354839 24.7228525 58.4903226 24.8200972 59.4903226 24.7487844 60.4935484 24.5056726 61.4774194 24.0810373 62.4516129 23.9416532 62.6903226 11.1734198 83.7 10.5121556 84.5870968 9.75364668 85.3064516 8.88816856 85.8709677 7.93841167 86.283871 6.95299838 86.5225806 5.91896272 86.5967742 4.89141005 86.4903226 3.88654781 86.2032258 2.89465154 85.7193548 2.03241491 85.0806452 1.32576985 84.3451613 0.764991896 83.5096774 0.350081037 82.5935484 0.0972447326 81.6387097 0 80.6354839 0.0713128039 79.6354839 0.314424635 78.6516129 0.739059968 77.6774194 0.878444084 77.4387097"></polygon>
                            <polygon id="路径" fill="url(#linearGradient-28)" fill-rule="nonzero" points="50.0453809 42.5064516 47.9416532 43.9903226 45.8314425 45.3064516 43.7115073 46.4677419 41.5818476 47.4774194 39.3743922 48.3677419 37.2025932 49.1 35.0664506 49.6774194 32.9562399 50.1064516 30.8006483 50.4032258 28.726094 50.5419355 26.726094 50.5322581 24.7909238 50.3806452 22.8589951 50.0709677 21.0405186 49.616129 19.3257699 49.016129 17.7082658 48.2741935 16.1685575 47.3709677 14.7649919 46.3225806 13.4846029 45.1258065 12.3241491 43.7709677 11.3354943 42.283871 10.528363 40.7290323 9.90599676 39.1 9.4554295 37.3774194 9.18638574 35.6258065 9.07941653 33.8225806 9.14100486 31.9548387 9.37439222 30.0193548 9.76012966 28.1290323 10.3047002 26.2129032 11.0113452 24.2645161 11.8897893 22.283871 12.8849271 20.3870968 14.0324149 18.5 15.3387358 16.6258065 16.8071313 14.7580645 18.36953 13 20.0745543 11.2935484 21.9286872 9.63870968 23.9416532 8.03225806 26.0421394 6.5516129 28.1523501 5.23548387 30.2722853 4.07419355 32.4019449 3.06451613 34.6126418 2.17419355 36.7811994 1.44193548 38.9205835 0.864516129 41.0275527 0.435483871 43.1831442 0.138709677 45.2576985 0 47.2576985 0.00967741935 49.1928687 0.161290323 51.1280389 0.470967742 52.9465154 0.925806452 54.6580227 1.52580645 56.2787682 2.26774194 57.815235 3.17096774 59.2188006 4.21612903 60.4991896 5.41612903 61.6596434 6.77096774 62.6515397 8.25806452 63.4554295 9.80967742 64.0810373 11.4419355 64.528363 13.1645161 64.7974068 14.916129 64.904376 16.7193548 64.8427877 18.5870968 64.6094003 20.5225806 64.2236629 22.4129032 63.6790924 24.3290323 62.9724473 26.2774194 62.0940032 28.2580645 61.0988655 30.1548387 59.9513776 32.0387097 58.6482982 33.916129 57.1766613 35.7806452 55.6142626 37.5419355 53.9092382 39.2483871 52.0551053 40.9032258"></polygon>
                            <polygon id="路径" fill="url(#linearGradient-29)" fill-rule="nonzero" points="46.2917342 37.8677419 43.9319287 39.5129032 41.5753647 40.9322581 39.2188006 42.1354839 36.7844408 43.1741935 34.4181524 43.9870968 32.1199352 44.583871 30.350081 44.9129032 28.6612642 45.1129032 27.0470016 45.1935484 25.4975689 45.1612903 23.9351702 45.0032258 22.4797407 44.7258065 21.1247974 44.3322581 19.8573744 43.8258065 18.6482982 43.183871 17.5591572 42.4225806 16.5802269 41.5419355 15.7050243 40.5354839 14.9724473 39.4193548 14.3922204 38.2419355 13.9578606 36.9903226 13.6693679 35.6548387 13.5299838 34.3032258 13.5235008 32.9 13.6564019 31.4290323 13.9351702 29.8903226 14.3306321 28.4 14.8525122 26.8774194 15.5137763 25.316129 16.3176661 23.716129 17.5299838 21.6806452 18.9659643 19.6451613 20.6385737 17.6 22.4538088 15.6774194 24.4732577 13.816129 26.713128 12.0096774 29.0729335 10.3645161 31.4294976 8.94516129 33.7860616 7.73870968 36.2204214 6.70322581 38.5867099 5.89032258 40.8849271 5.29354839 42.6547812 4.96451613 44.3435981 4.76451613 45.9578606 4.68387097 47.5072934 4.71612903 49.0696921 4.87419355 50.5251216 5.1516129 51.8800648 5.54516129 53.1474878 6.0516129 54.356564 6.69354839 55.445705 7.4516129 56.4246353 8.33225806 57.2998379 9.34193548 58.0324149 10.4580645 58.6126418 11.6354839 59.0470016 12.8870968 59.3354943 14.2225806 59.4748784 15.5741935 59.4813614 16.9774194 59.3484603 18.4451613 59.0696921 19.9870968 58.6742301 21.4774194 58.1523501 23 57.4910859 24.5612903 56.6871961 26.1612903 55.4748784 28.1967742 54.0388979 30.2322581 52.3662885 32.2774194 50.5510535 34.2 48.5316045 36.0612903"></polygon>
                            <polygon id="路径" fill="#CCCCCC" points="26.713128 11.9419355 29.0632091 10.2967742 31.4068071 8.87741935 33.7504052 7.67419355 36.1750405 6.63870968 38.528363 5.83225806 40.8200972 5.23870968 42.5802269 4.91290323 44.2625608 4.71612903 45.8735818 4.63870968 47.4165316 4.67419355 48.9756888 4.83870968 50.4246353 5.11935484 51.7795786 5.51935484 53.0437601 6.02903226 54.2495948 6.67741935 55.3387358 7.44193548 56.3144246 8.32903226 57.1896272 9.34193548 57.8444084 10.3225806 58.3792545 11.3548387 58.8006483 12.4419355 59.10859 13.5935484 57.8897893 12.7258065 56.5510535 12.0064516 55.076175 11.4354839 53.452188 11.016129 51.8119935 10.7677419 50.0777958 10.6645161 48.2398703 10.716129 46.2820097 10.9258065 44.376013 11.2774194 42.4213938 11.7774194 40.4051864 12.4387097 38.3273906 13.2645161 36.3338736 14.2064516 34.3371151 15.2967742 32.3371151 16.5483871 30.3273906 17.9677419 28.0356564 19.8322581 25.9740681 21.7548387 24.1329011 23.7419355 22.4408428 25.8548387 21.0016207 27.9612903 19.7990276 30.0645161 19.0113452 31.7193548 18.3727715 33.3258065 17.8833063 34.8935484 17.5267423 36.4258065 17.2965964 38.0032258 17.2252836 39.5032258 17.2965964 40.9354839 17.5105348 42.3064516 16.6126418 41.4774194 15.8119935 40.5354839 15.0794165 39.416129 14.4991896 38.2290323 14.0648298 36.9741935 13.7730956 35.6322581 13.63047 34.2774194 13.6207455 32.8677419 13.7504052 31.3935484 14.0226904 29.8516129 14.4149109 28.3548387 14.9335494 26.8290323 15.5850891 25.2645161 16.3824959 23.6612903 17.5850891 21.6225806 19.0113452 19.5806452 20.6742301 17.5354839 22.4764992 15.6096774 24.4862237 13.7451613"></polygon>
                            <polygon id="路径" fill="#B9B9B9" points="57.1896272 9.34193548 57.3354943 9.53870968 56.0972447 8.76774194 54.7455429 8.13548387 53.273906 7.64193548 51.6564019 7.29354839 50.0388979 7.1 48.3306321 7.0483871 46.528363 7.13870968 44.6158833 7.38387097 42.7585089 7.75483871 40.8557536 8.27096774 38.897893 8.93225806 36.8816856 9.75483871 34.9465154 10.683871 33.0081037 11.7516129 31.0696921 12.9741935 29.1215559 14.3516129 27.0210697 16.0483871 25.1118314 17.7967742 23.3873582 19.6032258 21.7828201 21.516129 20.3922204 23.4322581 19.1928687 25.3516129 18.1458671 27.3516129 17.3192869 29.3 16.6969206 31.2032258 16.3468395 32.6741935 16.1264182 34.0870968 16.0259319 35.4483871 16.0453809 36.7645161 16.1880065 38.083871 16.4635332 39.3322581 16.8622366 40.516129 17.3873582 41.6451613 17.5105348 42.3064516 16.6126418 41.4774194 15.8119935 40.5354839 15.0794165 39.416129 14.4991896 38.2290323 14.0648298 36.9741935 13.7730956 35.6322581 13.63047 34.2774194 13.6207455 32.8677419 13.7504052 31.3935484 14.0226904 29.8516129 14.4149109 28.3548387 14.9335494 26.8290323 15.5850891 25.2645161 16.3824959 23.6612903 17.5850891 21.6225806 19.0113452 19.5806452 20.6742301 17.5354839 22.4764992 15.6096774 24.4862237 13.7451613 26.713128 11.9419355 29.0632091 10.2967742 31.4068071 8.87741935 33.7504052 7.67419355 36.1750405 6.63870968 38.528363 5.83225806 40.8200972 5.23870968 42.5802269 4.91290323 44.2625608 4.71612903 45.8735818 4.63870968 47.4165316 4.67419355 48.9756888 4.83870968 50.4246353 5.11935484 51.7795786 5.51935484 53.0437601 6.02903226 54.2495948 6.67741935 55.3387358 7.44193548 56.3144246 8.32903226"></polygon>
                            <polygon id="路径" fill="url(#radialGradient-30)" opacity="0.623841751" points="46.2917342 37.8677419 43.9319287 39.5129032 41.5753647 40.9322581 39.2188006 42.1354839 36.7844408 43.1741935 34.4181524 43.9870968 32.1199352 44.583871 30.350081 44.9129032 28.6612642 45.1129032 27.0470016 45.1935484 25.4975689 45.1612903 23.9351702 45.0032258 22.4797407 44.7258065 21.1247974 44.3322581 19.8573744 43.8258065 18.6482982 43.183871 17.5591572 42.4225806 16.5802269 41.5419355 15.7050243 40.5354839 14.9724473 39.4193548 14.3922204 38.2419355 13.9578606 36.9903226 13.6693679 35.6548387 13.5299838 34.3032258 13.5235008 32.9 13.6564019 31.4290323 13.9351702 29.8903226 14.3306321 28.4 14.8525122 26.8774194 15.5137763 25.316129 16.3176661 23.716129 17.5299838 21.6806452 18.9659643 19.6451613 20.6385737 17.6 22.4538088 15.6774194 24.4732577 13.816129 26.713128 12.0096774 29.0729335 10.3645161 31.4294976 8.94516129 33.7860616 7.73870968 36.2204214 6.70322581 38.5867099 5.89032258 40.8849271 5.29354839 42.6547812 4.96451613 44.3435981 4.76451613 45.9578606 4.68387097 47.5072934 4.71612903 49.0696921 4.87419355 50.5251216 5.1516129 51.8800648 5.54516129 53.1474878 6.0516129 54.356564 6.69354839 55.445705 7.4516129 56.4246353 8.33225806 57.2998379 9.34193548 58.0324149 10.4580645 58.6126418 11.6354839 59.0470016 12.8870968 59.3354943 14.2225806 59.4748784 15.5741935 59.4813614 16.9774194 59.3484603 18.4451613 59.0696921 19.9870968 58.6742301 21.4774194 58.1523501 23 57.4910859 24.5612903 56.6871961 26.1612903 55.4748784 28.1967742 54.0388979 30.2322581 52.3662885 32.2774194 50.5510535 34.2 48.5316045 36.0612903"></polygon>
                            <g id="路径" fill="black" fill-opacity="1">
                                <use filter="url(#filter-32)" xlink:href="#path-31"></use>
                            </g>
                            <path d="M48.648256,19.4136285 C48.5472329,19.4136285 48.4456391,19.3960951 48.3457575,19.358766 C47.9747688,19.2201956 47.5935066,19.0974618 47.2122443,18.9945238 C46.7562136,18.8700932 46.2836311,18.768852 45.8081948,18.6947592 C45.3413198,18.6212321 45.0222695,18.1862907 45.0964673,17.7242008 C45.170665,17.2604142 45.6118562,16.9431162 46.0758774,17.0189058 C46.6146672,17.1031792 47.1488909,17.2174291 47.6642798,17.3576963 C48.0963389,17.4742085 48.5295396,17.6139101 48.9507545,17.7717107 C49.3930871,17.9374296 49.6162511,18.4266679 49.4490208,18.8650029 C49.3200309,19.2049245 48.9935608,19.4136285 48.648256,19.4136285 M56.8259884,27.9043177 C56.4652732,27.9043177 56.1302419,27.6769492 56.0120962,27.3194941 C55.2170389,24.9089347 53.7313719,22.8066238 51.7154764,21.2399298 C51.3439169,20.9509116 51.2782805,20.4175569 51.5699347,20.04879 C51.8621596,19.6805886 52.4003786,19.616111 52.7725088,19.9045637 C55.0560869,21.679396 56.7392341,24.0611101 57.6398805,26.792361 C57.7871345,27.237483 57.5417112,27.7165407 57.0919587,27.8624638 C57.0040629,27.8907435 56.9138842,27.9043177 56.8259884,27.9043177" id="Fill-1" fill="#FFFFFF" opacity="0.960437863" filter="url(#filter-33)" transform="translate(51.384191, 22.456016) rotate(75.000000) translate(-51.384191, -22.456016) "></path>
                        </g>
                        <polygon id="椭圆形" fill="url(#radialGradient-34)" fill-rule="nonzero" points="108.445705 116.190008 108.393849 117.177538 108.250067 118.118156 108.016716 119.021242 107.696152 119.886798 107.288377 120.724205 106.814603 121.505316 106.267759 122.230131 105.650203 122.908032 104.969006 123.5226 104.240667 124.066798 103.455758 124.538279 102.614279 124.944082 101.744514 125.263094 100.837037 125.495316 99.8918462 125.638403 98.8995138 125.690008 97.9071813 125.638403 96.9619905 125.495316 96.0545131 125.263094 95.184749 124.944082 94.3432699 124.538279 93.5583608 124.066798 92.8300218 123.5226 92.1488245 122.908032 91.5312684 122.230131 90.9844248 121.505316 90.5106509 120.724205 90.1028753 119.886798 89.7823119 119.021242 89.5489605 118.118156 89.4051784 117.177538 89.3533225 116.190008 89.4051784 115.202477 89.5489605 114.261859 89.7823119 113.358773 90.1028753 112.493217 90.5106509 111.65581 90.9844248 110.874699 91.5312684 110.149884 92.1488245 109.471983 92.8300218 108.857415 93.5583608 108.313217 94.3432699 107.841736 95.184749 107.435933 96.0545131 107.116921 96.9619905 106.884699 97.9071813 106.741613 98.8995138 106.690008 99.8894892 106.741613 100.837037 106.884699 101.744514 107.116921 102.614279 107.435933 103.455758 107.841736 104.240667 108.313217 104.969006 108.857415 105.650203 109.471983 106.267759 110.149884 106.814603 110.874699 107.288377 111.65581 107.696152 112.493217 108.016716 113.358773 108.250067 114.261859 108.393849 115.202477"></polygon>
                        <polygon id="椭圆形备份" fill="url(#radialGradient-35)" fill-rule="nonzero" points="121.922204 46.3512979 121.845001 47.1722735 121.639862 47.9252003 121.304582 48.6232491 120.854599 49.2532491 120.316385 49.7888589 119.683322 50.2366637 118.981879 50.5703223 118.225292 50.7744686 117.400324 50.8512979 116.575357 50.7744686 115.818769 50.5703223 115.117326 50.2366637 114.484263 49.7888589 113.946049 49.2532491 113.496067 48.6232491 113.160786 47.9252003 112.955647 47.1722735 112.878444 46.3512979 112.955647 45.5303223 113.160786 44.7773955 113.496067 44.0793467 113.946049 43.4493467 114.484263 42.9137369 115.117326 42.465932 115.818769 42.1322735 116.575357 41.9281272 117.400324 41.8512979 118.225292 41.9281272 118.981879 42.1322735 119.683322 42.465932 120.316385 42.9137369 120.854599 43.4493467 121.304582 44.0793467 121.639862 44.7773955 121.845001 45.5303223"></polygon>
                    </g>
                </g>
            </g>
        </g>
    </g>
</svg>