<?xml version="1.0" encoding="UTF-8"?>
<svg width="50px" height="50px" viewBox="0 0 50 50" version="1.1" xmlns="http://www.w3.org/2000/svg" xmlns:xlink="http://www.w3.org/1999/xlink">
    <title>切片</title>
    <defs>
        <path d="M28.0000044,7.02363878 L28.0000044,3.6622842 C28.0000044,2.69098604 27.6143044,1.75946972 26.9277705,1.07265821 C26.2412367,0.385846691 25.310097,0 24.3391915,0 L3.67689765,0 C1.64622056,0 4.39770838e-06,1.64685485 4.39770838e-06,3.67835325 L4.39770838e-06,6.98711819 C-0.00114066776,7.29572238 0.221447715,7.55968908 0.525715314,7.61052457 C2.17911407,7.87809697 3.39424591,9.30616989 3.39424591,10.9817397 C3.39424591,12.6573095 2.17911407,14.0853824 0.525715314,14.3529548 C0.221447715,14.4037903 -0.00114066776,14.667757 4.39770838e-06,14.9763612 L4.39770838e-06,18.3377158 C4.39770838e-06,19.309014 0.385722211,20.2405303 1.07225606,20.9273418 C1.7587899,21.6141533 2.68992962,22 3.66083509,22 L24.3231289,22 C25.2982945,22 26.2335198,21.6124603 26.9230659,20.9226353 C27.6126121,20.2328102 28.0000044,19.2972067 28.0000044,18.3216467 L28.0000044,15.0128818 C28.0011673,14.7042776 27.7785789,14.4403109 27.4743113,14.3894754 C25.8209125,14.121903 24.6057807,12.6938301 24.6057807,11.0182603 C24.6057807,9.34269048 25.8209125,7.91461756 27.4743113,7.64704515 C27.7785789,7.59620966 28.0011673,7.33224297 28.0000044,7.02363878 Z" id="path-1"></path>
    </defs>
    <g id="v1.2" stroke="none" stroke-width="1" fill="none" fill-rule="evenodd">
        <g id="消息中心" transform="translate(-12.000000, -261.000000)">
            <g id="massage_gf_ic" transform="translate(12.000000, 261.000000)">
                <rect id="矩形" fill="#F99127" x="0" y="0" width="50" height="50" rx="25"></rect>
                <g id="编组" transform="translate(10.999972, 14.000000)">
                    <g id="矩形">
                        <mask id="mask-2" fill="white">
                            <use xlink:href="#path-1"></use>
                        </mask>
                        <use id="蒙版" fill="#FFFFFF" fill-rule="nonzero" xlink:href="#path-1"></use>
                        <rect fill="#FFCE9C" mask="url(#mask-2)" x="-0.999995602" y="-2" width="7" height="26"></rect>
                    </g>
                    <rect id="矩形" fill="#FFCE9C" x="9.0000044" y="6" width="8" height="3" rx="1.5"></rect>
                    <rect id="矩形备份-4" fill="#FFCE9C" x="9.0000044" y="13" width="12" height="3" rx="1.5"></rect>
                </g>
            </g>
        </g>
    </g>
</svg>