<?xml version="1.0" encoding="UTF-8"?>
<svg width="16px" height="16px" viewBox="0 0 16 16" version="1.1" xmlns="http://www.w3.org/2000/svg" xmlns:xlink="http://www.w3.org/1999/xlink">
    <title>切片</title>
    <g id="页面-1" stroke="none" stroke-width="1" fill="none" fill-rule="evenodd">
        <g id="订单详情-待付款" transform="translate(-12.000000, -128.000000)" fill="#FFFFFF" fill-rule="nonzero" stroke="#FFFFFF" stroke-width="0.5">
            <g id="order_time_ic" transform="translate(12.000000, 128.000000)">
                <g transform="translate(1.000000, 0.000000)" id="形状">
                    <path d="M7.01592598,5.33333333 C6.76518211,5.33246947 6.56017737,5.53494932 6.55555556,5.78803651 L6.55555556,8.81267343 C6.55850672,8.83300348 6.56266164,8.8531368 6.567998,8.8729652 C6.57078418,8.9046629 6.57747166,8.93588667 6.5879059,8.965915 C6.59816546,8.99175693 6.61153802,9.01622521 6.62772172,9.03876756 C6.64197904,9.06538168 6.65863966,9.09061029 6.67749151,9.11413226 C6.6998879,9.13674167 6.7247728,9.15181461 6.74965767,9.17442403 C6.7670771,9.18447265 6.77951954,9.20205776 6.79693897,9.21210638 L9.43224861,10.6113778 C9.49937386,10.6483701 9.57476331,10.6673967 9.65123562,10.6666667 C9.81919984,10.6668233 9.97422455,10.5756121 10.0568593,10.4279903 C10.1140728,10.321829 10.1266263,10.1969106 10.0916981,10.0813127 C10.056212,9.96554919 9.97651399,9.86882117 9.87022264,9.81251189 L7.47629641,8.54136049 L7.47629641,5.78803651 C7.47167459,5.53494932 7.26666985,5.33246947 7.01592598,5.33333333 L7.01592598,5.33333333 Z M12.8742138,8.08503945 C12.7871352,8.17187091 12.7381045,8.29133682 12.7383648,8.4160432 C12.7383648,11.5941963 10.1647799,14.1775771 7,14.1775771 C3.83522013,14.1775771 1.26415095,11.5941963 1.26415095,8.4160432 C1.26415095,5.23789007 3.83773585,2.65709524 7,2.65709524 C7.68436709,2.65995337 8.36296035,2.78598332 9.00503145,3.02947444 L8.39371069,3.19239035 C8.16797007,3.24781836 8.01954314,3.46971227 8.05000493,3.70622037 C8.08046672,3.94272847 8.27995434,4.11727431 8.51194969,4.11040854 C8.55268722,4.1106708 8.59328313,4.10545462 8.6327044,4.09489276 L10.1295598,3.69406791 C10.3282752,3.64236963 10.4985932,3.51106445 10.6025157,3.32944659 C10.7056446,3.15200268 10.7329518,2.93867265 10.6779874,2.73984617 L10.2779874,1.23481353 C10.2074962,0.98285432 9.95268721,0.836315486 9.70691824,0.906395749 C9.58925907,0.93580876 9.48838963,1.01333966 9.42767296,1.12103099 C9.36483153,1.22727232 9.34753148,1.35549779 9.37987421,1.47530843 L9.5836478,2.24334056 C8.76329679,1.8997552 7.88583314,1.72322671 7,1.72356123 C3.32452831,1.72356123 0.333333333,4.72586863 0.333333333,8.4160432 C0.333333333,12.1062178 3.32452831,15.1111111 7,15.1111111 C10.6754717,15.1111111 13.6666667,12.1088037 13.6666667,8.41862916 C13.6637648,8.15732444 13.4554674,7.94784045 13.2012579,7.95056917 C13.079056,7.948187 12.9611066,7.99668408 12.8742138,8.08503945 Z"></path>
                </g>
            </g>
        </g>
    </g>
</svg>