<?xml version="1.0" encoding="UTF-8"?>
<svg width="351px" height="2px" viewBox="0 0 351 2" version="1.1" xmlns="http://www.w3.org/2000/svg" xmlns:xlink="http://www.w3.org/1999/xlink">
    <title>切片</title>
    <g id="页面-1" stroke="none" stroke-width="1" fill="none" fill-rule="evenodd">
        <g id="订单详情-待付款" transform="translate(-12.000000, -255.000000)">
            <g id="编组-4" transform="translate(12.000000, 157.000000)">
                <g id="tiao_ic" transform="translate(0.000000, 98.000000)">
                    <g transform="translate(0.000000, 0.000200)">
                        <polygon id="Fill-1" fill="#4B8CF5" points="31.9998 0 29.9998 2 47.9998 2 49.9998 0"></polygon>
                        <polygon id="Fill-2" fill="#4B8CF5" points="92.0001 0 90.0001 2 108.0001 2 110.0001 0"></polygon>
                        <polygon id="Fill-3" fill="#4B8CF5" points="152.0004 0 149.9994 2 167.9994 2 170.0004 0"></polygon>
                        <polygon id="Fill-4" fill="#4B8CF5" points="211.9998 0 209.9998 2 227.9998 2 229.9998 0"></polygon>
                        <polygon id="Fill-5" fill="#4B8CF5" points="272.0001 0 270.0001 2 288.0001 2 290.0001 0"></polygon>
                        <polygon id="Fill-6" fill="#4B8CF5" points="332.0004 0 329.9994 2 348.9994 2 351.0004 0"></polygon>
                        <polygon id="Fill-8" fill="#FF003B" points="62.0004 0 59.9994 2 77.9994 2 80.0004 0"></polygon>
                        <polygon id="Fill-8备份" fill="#FF003B" points="2.001 0 0 2 18 2 20.001 0"></polygon>
                        <polygon id="Fill-9" fill="#FF003B" points="121.9998 0 119.9998 2 137.9998 2 139.9998 0"></polygon>
                        <polygon id="Fill-10" fill="#FF003B" points="182.0001 0 180.0001 2 198.0001 2 200.0001 0"></polygon>
                        <polygon id="Fill-11" fill="#F94227" points="242.0004 0 239.9994 2 257.9994 2 260.0004 0"></polygon>
                        <polygon id="Fill-12" fill="#FF003B" points="301.9998 0 299.9998 2 317.9998 2 319.9998 0"></polygon>
                    </g>
                </g>
            </g>
        </g>
    </g>
</svg>