<?xml version="1.0" encoding="UTF-8"?>
<svg width="90px" height="60px" viewBox="0 0 90 60" version="1.1" xmlns="http://www.w3.org/2000/svg" xmlns:xlink="http://www.w3.org/1999/xlink">
    <title>切片</title>
    <defs>
        <rect id="path-1" x="0" y="0" width="90" height="60"></rect>
        <linearGradient x1="93.4674235%" y1="62.1168826%" x2="10.3295262%" y2="39.0775315%" id="linearGradient-3">
            <stop stop-color="#FF5A2F" stop-opacity="0" offset="0%"></stop>
            <stop stop-color="#FFFFFF" offset="100%"></stop>
        </linearGradient>
        <linearGradient x1="93.4674235%" y1="63.7636542%" x2="10.3295262%" y2="37.5930894%" id="linearGradient-4">
            <stop stop-color="#FCD396" offset="0%"></stop>
            <stop stop-color="#FFFFFF" offset="100%"></stop>
        </linearGradient>
        <linearGradient x1="11.6436673%" y1="40.5422469%" x2="63.5485688%" y2="65.0192858%" id="linearGradient-5">
            <stop stop-color="#FD8B6B" stop-opacity="0" offset="0%"></stop>
            <stop stop-color="#B33A00" offset="100%"></stop>
        </linearGradient>
        <filter x="-6.9%" y="-11.7%" width="113.9%" height="123.4%" filterUnits="objectBoundingBox" id="filter-6">
            <feGaussianBlur stdDeviation="1.11111111" in="SourceGraphic"></feGaussianBlur>
        </filter>
        <linearGradient x1="28.4169408%" y1="100%" x2="28.4169408%" y2="0%" id="linearGradient-7">
            <stop stop-color="#FFB097" offset="0%"></stop>
            <stop stop-color="#FF906E" offset="100%"></stop>
        </linearGradient>
        <linearGradient x1="28.4169408%" y1="100%" x2="28.4169408%" y2="0%" id="linearGradient-8">
            <stop stop-color="#FFCCBC" offset="0%"></stop>
            <stop stop-color="#FFB097" offset="100%"></stop>
        </linearGradient>
    </defs>
    <g id="页面-1" stroke="none" stroke-width="1" fill="none" fill-rule="evenodd">
        <g id="订单详情-自动签收" transform="translate(-247.000000, -90.000000)">
            <g id="order_ywc_ic" transform="translate(247.000000, 90.000000)">
                <mask id="mask-2" fill="white">
                    <use xlink:href="#path-1"></use>
                </mask>
                <g id="蒙版"></g>
                <g id="Page-1" mask="url(#mask-2)">
                    <g transform="translate(5.264415, 0.958333)">
                        <g id="Page-1" stroke-width="1" fill="none">
                            <g id="编组-6" transform="translate(0.291140, 4.597222)">
                                <path d="M27.6729412,0 L6.71288591,0 C5.4326168,0 4.38547552,1.00983907 4.38547552,2.24340884 C4.38547552,3.28918042 5.13865773,4.17156078 6.14747181,4.4166476 L6.08171781,4.4166476 L6.08171781,4.45427504 L6.24522375,4.45427504 C6.29409972,4.45427504 6.34262407,4.45834287 6.39079678,4.46274968 C6.42912398,4.46783447 6.46745118,4.47325825 6.50648163,4.47664811 C7.46009049,4.62478496 8.20202068,5.56547089 8.20202068,6.69734489 C8.20202068,7.72108238 7.59230174,8.58075068 6.77055252,8.84685463 L2.32705877,8.84685463 C1.04678966,8.84685463 0,9.85635471 0,11.0902635 C0,12.3238333 1.04678966,13.3333333 2.32705877,13.3333333 L22.5290091,13.3333333 C23.8089266,13.3333333 24.8557163,12.3238333 24.8557163,11.0902635 C24.8557163,9.85635471 23.8089266,8.84685463 22.5290091,8.84685463 L20.7568157,8.84685463 C19.9350665,8.58075068 19.3253475,7.72108238 19.3253475,6.69734489 C19.3253475,5.58818295 20.0373895,4.66309037 20.96322,4.4864787 L27.6729412,4.4864787 C28.9528587,4.4864787 30,3.4773176 30,2.24340884 C30,1.00983907 28.9528587,0 27.6729412,0" id="Fill-3" fill="url(#linearGradient-3)" opacity="0.30750093"></path>
                                <path d="M11.1111111,2.77752779 C11.1111111,2.77752779 10.2996517,3.10601137 10.0976618,3.30850124 C9.88317251,3.52249054 9.44419446,4.44444444 9.44419446,4.44444444 C9.44419446,4.44444444 9.16420846,3.58048764 8.95571888,3.37199807 C8.74722931,3.16350849 7.77777778,2.77752779 7.77777778,2.77752779 C7.77777778,2.77752779 8.64673433,2.45504391 8.85522391,2.24655434 C9.06321351,2.03806476 9.44419446,1.11111111 9.44419446,1.11111111 C9.44419446,1.11111111 9.85267403,2.05806376 10.1021616,2.25755379 C10.3416496,2.44854424 11.1111111,2.77752779 11.1111111,2.77752779" id="Fill-24" fill="#FFFFFF"></path>
                                <path d="M17.7777778,7.22258589 C17.7777778,7.22258589 16.9662595,7.55060974 16.7633799,7.75280626 C16.55032,7.96736732 16.1111111,8.88888889 16.1111111,8.88888889 C16.1111111,8.88888889 15.8311518,8.02555337 15.6224549,7.81681092 C15.4144852,7.60806847 14.4444444,7.22258589 14.4444444,7.22258589 C14.4444444,7.22258589 15.313409,6.90038063 15.5213787,6.69163818 C15.7308028,6.48289573 16.1111111,5.55555556 16.1111111,5.55555556 C16.1111111,5.55555556 16.5197789,6.50253352 16.7691972,6.70182074 C17.007708,6.89310738 17.7777778,7.22258589 17.7777778,7.22258589" id="Fill-31" fill="#FFFFFF"></path>
                            </g>
                            <path d="M81.9869139,47.9305556 L67.2372454,47.9305556 C66.3363153,47.9305556 65.5994381,48.6879349 65.5994381,49.6131122 C65.5994381,50.3974409 66.1294552,51.0592261 66.8393614,51.2430413 L66.7930901,51.2430413 L66.7930901,51.2712618 L66.9081498,51.2712618 C66.942544,51.2712618 66.9766908,51.2743127 67.0105901,51.2776178 C67.0375611,51.2814314 67.0645321,51.2854992 67.0919979,51.2880416 C67.763056,51.3991443 68.285155,52.1046587 68.285155,52.9535642 C68.285155,53.7213673 67.8560936,54.3661186 67.2778256,54.5656965 L64.1509226,54.5656965 C63.2499925,54.5656965 62.5133627,55.3228216 62.5133627,56.2482532 C62.5133627,57.1734305 63.2499925,57.9305556 64.1509226,57.9305556 L78.3671099,57.9305556 C79.2677925,57.9305556 80.0044223,57.1734305 80.0044223,56.2482532 C80.0044223,55.3228216 79.2677925,54.5656965 78.3671099,54.5656965 L77.1200108,54.5656965 C76.5417428,54.3661186 76.1126813,53.7213673 76.1126813,52.9535642 C76.1126813,52.1216928 76.6137479,51.4278733 77.2652582,51.2954146 L81.9869139,51.2954146 C82.8875966,51.2954146 83.6244738,50.5385438 83.6244738,49.6131122 C83.6244738,48.6879349 82.8875966,47.9305556 81.9869139,47.9305556" id="Fill-3备份" fill="url(#linearGradient-4)" opacity="0.3" transform="translate(73.068918, 52.930556) scale(-1, 1) translate(-73.068918, -52.930556) "></path>
                            <path d="M4.74310784,29.9723339 C12.5305979,27.8137376 22.8744291,29.4101393 35.7746012,34.7615391 L47.963097,41.2926387 C42.9658197,54.9140658 34.4683636,59.9728337 22.4707286,56.4689424 C4.47427624,51.2131053 -6.93812729,33.2102283 4.74310784,29.9723339 Z" id="Rectangle-5" fill="url(#linearGradient-5)" filter="url(#filter-6)"></path>
                            <g id="编组" transform="translate(20.735585, 0.000000)">
                                <path d="M5.73883636,6.91836881 L38.2683048,7.29425712 C40.7518585,7.32295537 42.7533129,9.33839705 42.7647146,11.8220904 L42.9559128,53.4717644 C42.967446,55.9840921 40.9401515,58.0300856 38.4278238,58.0416187 C38.420863,58.0416507 38.4139021,58.0416667 38.4069412,58.0416667 L5.68627451,58.0416667 C3.17392035,58.0416667 1.1372549,56.0050012 1.1372549,53.4926471 L1.1372549,11.4670847 C1.1372549,8.95473059 3.17392035,6.91806514 5.68627451,6.91806514 C5.70379557,6.91806514 5.72131648,6.91816636 5.73883636,6.91836881 Z" id="矩形" fill="url(#linearGradient-7)"></path>
                                <path d="M4.65488414,8.11080853 L36.6946302,8.85663772 C39.1650676,8.91414518 41.1377852,10.9333186 41.1377852,13.4044253 L41.1377852,53.4926471 C41.1377852,56.0050012 39.1011198,58.0416667 36.5887656,58.0416667 L4.54901961,58.0416667 C2.03666545,58.0416667 -1.46868219e-15,56.0050012 0,53.4926471 L0,12.6585961 C5.80503772e-16,10.146242 2.03666545,8.10957653 4.54901961,8.10957653 C4.58431137,8.10957653 4.61960194,8.10998722 4.65488414,8.11080853 Z" id="矩形" fill="url(#linearGradient-8)"></path>
                                <path d="M7.96078431,12.5514706 L34.1176471,12.5514706 C36.0019127,12.5514706 37.5294118,14.0789697 37.5294118,15.9632353 L37.5294118,50.0808824 C37.5294118,51.965148 36.0019127,53.4926471 34.1176471,53.4926471 L7.96078431,53.4926471 C6.0765187,53.4926471 4.54901961,51.965148 4.54901961,50.0808824 L4.54901961,15.9632353 C4.54901961,14.0789697 6.0765187,12.5514706 7.96078431,12.5514706 Z" id="矩形" fill="#FFF2F2"></path>
                                <path d="M9.09803922,15.9632353 L32.9803922,15.9632353 C33.6084807,15.9632353 34.1176471,16.4724017 34.1176471,17.1004902 L34.1176471,29.6102941 C34.1176471,30.2383827 33.6084807,30.747549 32.9803922,30.747549 L9.09803922,30.747549 C8.46995068,30.747549 7.96078431,30.2383827 7.96078431,29.6102941 L7.96078431,17.1004902 C7.96078431,16.4724017 8.46995068,15.9632353 9.09803922,15.9632353 Z" id="矩形" fill="#FFDFD5"></path>
                                <path d="M9.09803922,34.1593137 L21.6078431,34.1593137 C22.2359317,34.1593137 22.745098,34.6684801 22.745098,35.2965686 L22.745098,43.2573529 C22.745098,43.8854415 22.2359317,44.3946078 21.6078431,44.3946078 L9.09803922,44.3946078 C8.46995068,44.3946078 7.96078431,43.8854415 7.96078431,43.2573529 L7.96078431,35.2965686 C7.96078431,34.6684801 8.46995068,34.1593137 9.09803922,34.1593137 Z" id="矩形备份" fill="#FFDFD5"></path>
                                <path d="M9.09803922,46.6691176 L32.9803922,46.6691176 C33.6084807,46.6691176 34.1176471,47.178284 34.1176471,47.8063725 L34.1176471,50.0808824 C34.1176471,50.7089709 33.6084807,51.2181373 32.9803922,51.2181373 L9.09803922,51.2181373 C8.46995068,51.2181373 7.96078431,50.7089709 7.96078431,50.0808824 L7.96078431,47.8063725 C7.96078431,47.178284 8.46995068,46.6691176 9.09803922,46.6691176 Z" id="矩形备份-2" fill="#FFDFD5"></path>
                                <circle id="椭圆形" fill="#FF916F" cx="33.6666667" cy="48.375" r="9.66666667"></circle>
                                <path d="M38.1575412,44.1596942 C36.8142634,45.3979671 35.0482501,47.0402901 31.9379023,51.9842096 C31.5561218,49.6090048 30.9685704,48.2243674 30.1752482,47.8302975 C28.985265,47.2391928 26.2853712,48.3078521 27.9274443,50.1460309 C29.5695175,51.9842096 29.5695175,52.2683098 30.1752482,54.5104935 C30.780979,56.7526772 32.3383764,55.8691929 33.9857995,52.8547965 C35.6332226,49.8404002 36.5104851,48.3398209 38.7682749,45.4780864 C41.0260647,42.6163518 39.500819,42.9214213 38.1575412,44.1596942 Z" id="Path-2" fill="#FFFFFF"></path>
                                <path d="M15,3.04166667 L31,3.04166667 C32.6568542,3.04166667 34,4.38481242 34,6.04166667 L34,8.04166667 L34,8.04166667 L12,8.04166667 L12,6.04166667 C12,4.38481242 13.3431458,3.04166667 15,3.04166667 Z" id="矩形备份-3" fill="#FF916E"></path>
                                <path d="M21.5,10.0833333 C24.5375661,10.0833333 27,8.53756612 27,5.5 C27,2.46243388 24.5375661,0 21.5,0 C18.4624339,0 16,2.46243388 16,5.5 C16,8.53756612 18.4624339,10.0833333 21.5,10.0833333 Z" id="椭圆形备份" fill="#FF916E"></path>
                                <path d="M13,4.04166667 L17.0179775,4.04166667 L17.0179775,4.04166667 L20.3414472,8.45485805 L24.0455855,4.04166667 L29,4.04166667 C30.6568542,4.04166667 32,5.38481242 32,7.04166667 L32,11.0416667 L32,11.0416667 L10,11.0416667 L10,7.04166667 C10,5.38481242 11.3431458,4.04166667 13,4.04166667 Z" id="矩形" fill="#FFB097"></path>
                                <path d="M20.5,0.541666667 C22.9852814,0.541666667 25,2.55638529 25,5.04166667 C25,7.52694804 22.9852814,9.54166667 20.5,9.54166667 C18.0147186,9.54166667 16,7.52694804 16,5.04166667 C16,2.55638529 18.0147186,0.541666667 20.5,0.541666667 Z M20.5,3.04166667 C19.3954305,3.04166667 18.5,3.93709717 18.5,5.04166667 C18.5,6.14623617 19.3954305,7.04166667 20.5,7.04166667 C21.6045695,7.04166667 22.5,6.14623617 22.5,5.04166667 C22.5,3.93709717 21.6045695,3.04166667 20.5,3.04166667 Z" id="形状结合" fill="#FFB097"></path>
                            </g>
                        </g>
                        <path d="M2.57810603,22.6026976 C2.57810603,22.6026976 2.08026644,22.803967 1.95651774,22.9284269 C1.82423465,23.0599988 1.55611248,23.6246911 1.55611248,23.6246911 C1.55611248,23.6246911 1.38400222,23.0948476 1.25669752,22.9675429 C1.12868163,22.839527 0.533407719,22.6026976 0.533407719,22.6026976 C0.533407719,22.6026976 1.06680728,22.4049841 1.19482317,22.2769683 C1.32212787,22.1489524 1.55611248,21.580704 1.55611248,21.580704 C1.55611248,21.580704 1.80645467,22.1610427 1.95936254,22.2840802 C2.10586962,22.400717 2.57810603,22.6026976 2.57810603,22.6026976" id="Fill-27" fill="#FFFFFF"></path>
                    </g>
                </g>
            </g>
        </g>
    </g>
</svg>