<?xml version="1.0" encoding="UTF-8"?>
<svg width="90px" height="60px" viewBox="0 0 90 60" version="1.1" xmlns="http://www.w3.org/2000/svg" xmlns:xlink="http://www.w3.org/1999/xlink">
    <title>order_yifahuo_ic</title>
    <defs>
        <rect id="path-1" x="0" y="0" width="90" height="60"></rect>
        <linearGradient x1="93.4674235%" y1="62.1168826%" x2="10.3295262%" y2="39.0775315%" id="linearGradient-3">
            <stop stop-color="#FF5A2F" stop-opacity="0" offset="0%"></stop>
            <stop stop-color="#FFFFFF" offset="100%"></stop>
        </linearGradient>
        <linearGradient x1="93.4674235%" y1="63.7636542%" x2="10.3295262%" y2="37.5930894%" id="linearGradient-4">
            <stop stop-color="#FCD396" offset="0%"></stop>
            <stop stop-color="#FFFFFF" offset="100%"></stop>
        </linearGradient>
        <linearGradient x1="11.6436673%" y1="38.98127%" x2="63.5485688%" y2="67.4981789%" id="linearGradient-5">
            <stop stop-color="#FD8B6B" stop-opacity="0" offset="0%"></stop>
            <stop stop-color="#B33A00" offset="100%"></stop>
        </linearGradient>
        <filter x="-7.1%" y="-11.0%" width="114.1%" height="122.0%" filterUnits="objectBoundingBox" id="filter-6">
            <feGaussianBlur stdDeviation="1.11111111" in="SourceGraphic"></feGaussianBlur>
        </filter>
        <linearGradient x1="73.4684587%" y1="12.4413009%" x2="55.0240687%" y2="61.195032%" id="linearGradient-7">
            <stop stop-color="#FFDFD4" offset="0%"></stop>
            <stop stop-color="#FF946F" offset="100%"></stop>
        </linearGradient>
        <linearGradient x1="61.2051384%" y1="10.2501474%" x2="26.6151441%" y2="100%" id="linearGradient-8">
            <stop stop-color="#FFA285" offset="0%"></stop>
            <stop stop-color="#FFBDA7" offset="100%"></stop>
        </linearGradient>
        <linearGradient x1="-12.2095195%" y1="42.1685169%" x2="88.2633401%" y2="58.2403424%" id="linearGradient-9">
            <stop stop-color="#FFD5BE" offset="0%"></stop>
            <stop stop-color="#FF8B64" offset="100%"></stop>
        </linearGradient>
        <linearGradient x1="91.459791%" y1="30.5950976%" x2="20.7612457%" y2="86.336597%" id="linearGradient-10">
            <stop stop-color="#FFD6C7" offset="0%"></stop>
            <stop stop-color="#FF946F" offset="100%"></stop>
        </linearGradient>
    </defs>
    <g id="页面-1" stroke="none" stroke-width="1" fill="none" fill-rule="evenodd">
        <g id="订单详情-待收货" transform="translate(-247.000000, -90.000000)">
            <g id="order_yifahuo_ic" transform="translate(247.000000, 90.000000)">
                <mask id="mask-2" fill="white">
                    <use xlink:href="#path-1"></use>
                </mask>
                <g id="蒙版"></g>
                <g id="Page-1" mask="url(#mask-2)">
                    <g transform="translate(4.592420, 1.000000)">
                        <g id="Page-1" stroke-width="1" fill="none">
                            <g id="编组-6" transform="translate(0.963135, 4.555556)">
                                <path d="M27.6729412,0 L6.71288591,0 C5.4326168,0 4.38547552,1.00983907 4.38547552,2.24340884 C4.38547552,3.28918042 5.13865773,4.17156078 6.14747181,4.4166476 L6.08171781,4.4166476 L6.08171781,4.45427504 L6.24522375,4.45427504 C6.29409972,4.45427504 6.34262407,4.45834287 6.39079678,4.46274968 C6.42912398,4.46783447 6.46745118,4.47325825 6.50648163,4.47664811 C7.46009049,4.62478496 8.20202068,5.56547089 8.20202068,6.69734489 C8.20202068,7.72108238 7.59230174,8.58075068 6.77055252,8.84685463 L2.32705877,8.84685463 C1.04678966,8.84685463 0,9.85635471 0,11.0902635 C0,12.3238333 1.04678966,13.3333333 2.32705877,13.3333333 L22.5290091,13.3333333 C23.8089266,13.3333333 24.8557163,12.3238333 24.8557163,11.0902635 C24.8557163,9.85635471 23.8089266,8.84685463 22.5290091,8.84685463 L20.7568157,8.84685463 C19.9350665,8.58075068 19.3253475,7.72108238 19.3253475,6.69734489 C19.3253475,5.58818295 20.0373895,4.66309037 20.96322,4.4864787 L27.6729412,4.4864787 C28.9528587,4.4864787 30,3.4773176 30,2.24340884 C30,1.00983907 28.9528587,0 27.6729412,0" id="Fill-3" fill="url(#linearGradient-3)" opacity="0.30750093"></path>
                                <path d="M11.1111111,2.77752779 C11.1111111,2.77752779 10.2996517,3.10601137 10.0976618,3.30850124 C9.88317251,3.52249054 9.44419446,4.44444444 9.44419446,4.44444444 C9.44419446,4.44444444 9.16420846,3.58048764 8.95571888,3.37199807 C8.74722931,3.16350849 7.77777778,2.77752779 7.77777778,2.77752779 C7.77777778,2.77752779 8.64673433,2.45504391 8.85522391,2.24655434 C9.06321351,2.03806476 9.44419446,1.11111111 9.44419446,1.11111111 C9.44419446,1.11111111 9.85267403,2.05806376 10.1021616,2.25755379 C10.3416496,2.44854424 11.1111111,2.77752779 11.1111111,2.77752779" id="Fill-24" fill="#FFFFFF"></path>
                                <path d="M17.7777778,7.22258589 C17.7777778,7.22258589 16.9662595,7.55060974 16.7633799,7.75280626 C16.55032,7.96736732 16.1111111,8.88888889 16.1111111,8.88888889 C16.1111111,8.88888889 15.8311518,8.02555337 15.6224549,7.81681092 C15.4144852,7.60806847 14.4444444,7.22258589 14.4444444,7.22258589 C14.4444444,7.22258589 15.313409,6.90038063 15.5213787,6.69163818 C15.7308028,6.48289573 16.1111111,5.55555556 16.1111111,5.55555556 C16.1111111,5.55555556 16.5197789,6.50253352 16.7691972,6.70182074 C17.007708,6.89310738 17.7777778,7.22258589 17.7777778,7.22258589" id="Fill-31" fill="#FFFFFF"></path>
                            </g>
                            <path d="M82.6589087,47.8888889 L67.9092402,47.8888889 C67.0083101,47.8888889 66.2714329,48.6462682 66.2714329,49.5714455 C66.2714329,50.3557742 66.80145,51.0175595 67.5113562,51.2013746 L67.4650848,51.2013746 L67.4650848,51.2295952 L67.5801446,51.2295952 C67.6145388,51.2295952 67.6486855,51.232646 67.6825849,51.2359512 C67.7095559,51.2397647 67.7365269,51.2438326 67.7639927,51.246375 C68.4350508,51.3574776 68.9571498,52.0629921 68.9571498,52.9118976 C68.9571498,53.6797007 68.5280884,54.3244519 67.9498204,54.5240299 L64.8229174,54.5240299 C63.9219873,54.5240299 63.1853575,55.2811549 63.1853575,56.2065865 C63.1853575,57.1317638 63.9219873,57.8888889 64.8229174,57.8888889 L79.0391047,57.8888889 C79.9397873,57.8888889 80.6764171,57.1317638 80.6764171,56.2065865 C80.6764171,55.2811549 79.9397873,54.5240299 79.0391047,54.5240299 L77.7920056,54.5240299 C77.2137376,54.3244519 76.7846761,53.6797007 76.7846761,52.9118976 C76.7846761,52.0800261 77.2857427,51.3862067 77.937253,51.2537479 L82.6589087,51.2537479 C83.5595914,51.2537479 84.2964686,50.4968771 84.2964686,49.5714455 C84.2964686,48.6462682 83.5595914,47.8888889 82.6589087,47.8888889" id="Fill-3备份" fill="url(#linearGradient-4)" opacity="0.3" transform="translate(73.740913, 52.888889) scale(-1, 1) translate(-73.740913, -52.888889) "></path>
                            <path d="M4.00752291,21.6796951 C11.795013,19.5210988 22.1388441,21.1175006 35.0390163,26.4689004 L47.2275121,33 C45.1731432,47.8635971 38.1471413,53.54345 26.1495063,50.0395586 C8.15305394,44.7837216 -7.67371223,24.9175896 4.00752291,21.6796951 Z" id="Rectangle-5" fill="url(#linearGradient-5)" filter="url(#filter-6)"></path>
                            <g transform="translate(20.407580, 0.000000)">
                                <path d="M24.8968321,0 C22.2294971,7.58769067 22.3953277,11.1153392 13.3425426,13.937458 C4.28975747,16.7595769 3.35642434,29.4414045 6.97035889,34 C9.84527465,29.8529963 12.3897,30.5534106 14.0991199,30.0434461 C15.8085398,29.5334815 24.4172893,34.1813994 28.7039104,22.4683471 C9.50580984,27.3480314 35.5821698,21.3162049 30.2701308,11.6961322 C11.2409823,24.7002292 36.8670636,9.94706386 24.8968321,0 Z" id="路径-2备份" fill="url(#linearGradient-7)"></path>
                                <polygon id="Fill-1" fill="#FFDAC5" points="0 47.9655122 22.0298174 59 22.1020721 37.1404657 0.0712224646 26"></polygon>
                                <polygon id="Fill-2" fill="url(#linearGradient-8)" points="22 37.035744 22 59 43.9283185 47.9647948 44 26.8307946"></polygon>
                                <polygon id="Fill-3" fill="url(#linearGradient-9)" points="22.0165437 16 0 26 22 37.1404657 44 26.8307946"></polygon>
                                <polygon id="Fill-4" fill="#FFF0F0" points="14.4606064 33.3384514 14.4606064 41.3384514 13.131651 39.8885447 11.4179675 40.172747 10.4199776 38.5767032 9 39.2304903 9 30.5853924"></polygon>
                                <polygon id="Fill-4-Copy" fill="#FFF0F0" transform="translate(11.730303, 50.753911) scale(-1, -1) translate(-11.730303, -50.753911) " points="14.4606064 49.0148884 14.4606064 54.5078217 13.204055 55.2001872 11.8820718 53.4963465 10.0537149 54.1931442 9 52.8714581 9 46.3076345"></polygon>
                                <polygon id="Fill-5" fill="#FFF0F0" points="14.4606064 33.3384514 35.5752826 22.6712816 30.5452655 20.207814 9 30.5853924"></polygon>
                                <path d="M48.8968321,13 C46.2294971,20.5876907 46.3953277,24.1153392 37.3425426,26.937458 C28.2897575,29.7595769 27.3564243,42.4414045 30.9703589,47 C33.8452747,42.8529963 36.3897,43.5534106 38.0991199,43.0434461 C39.8085398,42.5334815 48.4172893,47.1813994 52.7039104,35.4683471 C33.5058098,40.3480314 59.5821698,34.3162049 54.2701308,24.6961322 C35.2409823,37.7002292 60.8670636,22.9470639 48.8968321,13 Z" id="路径-2" fill="url(#linearGradient-10)"></path>
                            </g>
                        </g>
                        <path d="M3.25010082,22.5610309 C3.25010082,22.5610309 2.75226124,22.7623004 2.62851254,22.8867602 C2.49622945,23.0183321 2.22810727,23.5830245 2.22810727,23.5830245 C2.22810727,23.5830245 2.05599701,23.0531809 1.92869231,22.9258762 C1.80067642,22.7978603 1.20540251,22.5610309 1.20540251,22.5610309 C1.20540251,22.5610309 1.73880207,22.3633175 1.86681797,22.2353016 C1.99412266,22.1072857 2.22810727,21.5390374 2.22810727,21.5390374 C2.22810727,21.5390374 2.47844946,22.1193761 2.63135734,22.2424136 C2.77786441,22.3590503 3.25010082,22.5610309 3.25010082,22.5610309" id="Fill-27" fill="#FFFFFF"></path>
                    </g>
                </g>
            </g>
        </g>
    </g>
</svg>