<?xml version="1.0" encoding="UTF-8"?>
<svg width="90px" height="60px" viewBox="0 0 90 60" version="1.1" xmlns="http://www.w3.org/2000/svg" xmlns:xlink="http://www.w3.org/1999/xlink">
    <title>切片</title>
    <defs>
        <rect id="path-1" x="0" y="0" width="90" height="60"></rect>
        <linearGradient x1="93.4674235%" y1="62.1168826%" x2="10.3295262%" y2="39.0775315%" id="linearGradient-3">
            <stop stop-color="#FF5A2F" stop-opacity="0" offset="0%"></stop>
            <stop stop-color="#FFFFFF" offset="100%"></stop>
        </linearGradient>
        <linearGradient x1="93.4674235%" y1="63.7636542%" x2="10.3295262%" y2="37.5930894%" id="linearGradient-4">
            <stop stop-color="#FCD396" offset="0%"></stop>
            <stop stop-color="#FFFFFF" offset="100%"></stop>
        </linearGradient>
        <linearGradient x1="11.6436673%" y1="38.98127%" x2="63.5485688%" y2="67.4981789%" id="linearGradient-5">
            <stop stop-color="#FD8B6B" stop-opacity="0" offset="0%"></stop>
            <stop stop-color="#B33A00" offset="100%"></stop>
        </linearGradient>
        <filter x="-7.1%" y="-11.0%" width="114.1%" height="122.0%" filterUnits="objectBoundingBox" id="filter-6">
            <feGaussianBlur stdDeviation="1.11111111" in="SourceGraphic"></feGaussianBlur>
        </filter>
        <linearGradient x1="-44.203366%" y1="-8.04629039%" x2="101.380598%" y2="100%" id="linearGradient-7">
            <stop stop-color="#FFD5BE" offset="0%"></stop>
            <stop stop-color="#FFA282" offset="100%"></stop>
        </linearGradient>
        <linearGradient x1="22.8180096%" y1="1.1889916%" x2="58.5229263%" y2="88.3396521%" id="linearGradient-8">
            <stop stop-color="#FFC7B1" offset="0%"></stop>
            <stop stop-color="#FFBAA3" offset="100%"></stop>
        </linearGradient>
        <linearGradient x1="61.4095464%" y1="10.2501474%" x2="26.1885495%" y2="100%" id="linearGradient-9">
            <stop stop-color="#FFA285" offset="0%"></stop>
            <stop stop-color="#FFBDA7" offset="100%"></stop>
        </linearGradient>
        <linearGradient x1="21.5116324%" y1="106.80883%" x2="85.2832947%" y2="50%" id="linearGradient-10">
            <stop stop-color="#FFC3AD" offset="0%"></stop>
            <stop stop-color="#FFA687" offset="100%"></stop>
        </linearGradient>
        <filter x="0.0%" y="0.0%" width="100.0%" height="100.0%" filterUnits="objectBoundingBox" id="filter-11">
            <feGaussianBlur stdDeviation="0" in="SourceGraphic"></feGaussianBlur>
        </filter>
        <linearGradient x1="-21.4331294%" y1="-52.1451871%" x2="76.4438045%" y2="82.8296342%" id="linearGradient-12">
            <stop stop-color="#FFEFE6" offset="0%"></stop>
            <stop stop-color="#FFB69F" offset="100%"></stop>
        </linearGradient>
        <linearGradient x1="37.1801129%" y1="91.4879986%" x2="86.283451%" y2="16.3000095%" id="linearGradient-13">
            <stop stop-color="#FFFFFF" stop-opacity="0" offset="0%"></stop>
            <stop stop-color="#FFFFFF" offset="100%"></stop>
        </linearGradient>
        <polygon id="path-14" points="0 0 38.0500431 0 38.0500431 26.8795447 0 26.8795447"></polygon>
        <linearGradient x1="22.1208493%" y1="71.4996609%" x2="50%" y2="11.3841681%" id="linearGradient-16">
            <stop stop-color="#FFDAC5" offset="0%"></stop>
            <stop stop-color="#FF9168" offset="100%"></stop>
        </linearGradient>
        <linearGradient x1="-16.0559106%" y1="67.0064279%" x2="106.671035%" y2="21.875%" id="linearGradient-17">
            <stop stop-color="#FFB59D" offset="0%"></stop>
            <stop stop-color="#FFDAC5" offset="100%"></stop>
        </linearGradient>
    </defs>
    <g id="页面-1" stroke="none" stroke-width="1" fill="none" fill-rule="evenodd">
        <g id="订单详情-待发货" transform="translate(-247.000000, -90.000000)">
            <g id="order_dfh_ic" transform="translate(247.000000, 90.000000)">
                <mask id="mask-2" fill="white">
                    <use xlink:href="#path-1"></use>
                </mask>
                <g id="蒙版"></g>
                <g id="Page-1" mask="url(#mask-2)">
                    <g transform="translate(5.555556, -3.547812)">
                        <g id="Page-1" stroke-width="1" fill="none">
                            <g id="编组-6" transform="translate(0.000000, 9.103368)">
                                <path d="M27.6729412,0 L6.71288591,0 C5.4326168,0 4.38547552,1.00983907 4.38547552,2.24340884 C4.38547552,3.28918042 5.13865773,4.17156078 6.14747181,4.4166476 L6.08171781,4.4166476 L6.08171781,4.45427504 L6.24522375,4.45427504 C6.29409972,4.45427504 6.34262407,4.45834287 6.39079678,4.46274968 C6.42912398,4.46783447 6.46745118,4.47325825 6.50648163,4.47664811 C7.46009049,4.62478496 8.20202068,5.56547089 8.20202068,6.69734489 C8.20202068,7.72108238 7.59230174,8.58075068 6.77055252,8.84685463 L2.32705877,8.84685463 C1.04678966,8.84685463 0,9.85635471 0,11.0902635 C0,12.3238333 1.04678966,13.3333333 2.32705877,13.3333333 L22.5290091,13.3333333 C23.8089266,13.3333333 24.8557163,12.3238333 24.8557163,11.0902635 C24.8557163,9.85635471 23.8089266,8.84685463 22.5290091,8.84685463 L20.7568157,8.84685463 C19.9350665,8.58075068 19.3253475,7.72108238 19.3253475,6.69734489 C19.3253475,5.58818295 20.0373895,4.66309037 20.96322,4.4864787 L27.6729412,4.4864787 C28.9528587,4.4864787 30,3.4773176 30,2.24340884 C30,1.00983907 28.9528587,0 27.6729412,0" id="Fill-3" fill="url(#linearGradient-3)" opacity="0.30750093"></path>
                                <path d="M11.1111111,2.77752779 C11.1111111,2.77752779 10.2996517,3.10601137 10.0976618,3.30850124 C9.88317251,3.52249054 9.44419446,4.44444444 9.44419446,4.44444444 C9.44419446,4.44444444 9.16420846,3.58048764 8.95571888,3.37199807 C8.74722931,3.16350849 7.77777778,2.77752779 7.77777778,2.77752779 C7.77777778,2.77752779 8.64673433,2.45504391 8.85522391,2.24655434 C9.06321351,2.03806476 9.44419446,1.11111111 9.44419446,1.11111111 C9.44419446,1.11111111 9.85267403,2.05806376 10.1021616,2.25755379 C10.3416496,2.44854424 11.1111111,2.77752779 11.1111111,2.77752779" id="Fill-24" fill="#FFFFFF"></path>
                                <path d="M17.7777778,7.22258589 C17.7777778,7.22258589 16.9662595,7.55060974 16.7633799,7.75280626 C16.55032,7.96736732 16.1111111,8.88888889 16.1111111,8.88888889 C16.1111111,8.88888889 15.8311518,8.02555337 15.6224549,7.81681092 C15.4144852,7.60806847 14.4444444,7.22258589 14.4444444,7.22258589 C14.4444444,7.22258589 15.313409,6.90038063 15.5213787,6.69163818 C15.7308028,6.48289573 16.1111111,5.55555556 16.1111111,5.55555556 C16.1111111,5.55555556 16.5197789,6.50253352 16.7691972,6.70182074 C17.007708,6.89310738 17.7777778,7.22258589 17.7777778,7.22258589" id="Fill-31" fill="#FFFFFF"></path>
                            </g>
                            <path d="M81.6957735,52.4367014 L66.9461049,52.4367014 C66.0451748,52.4367014 65.3082976,53.1940807 65.3082976,54.119258 C65.3082976,54.9035867 65.8383147,55.565372 66.5482209,55.7491871 L66.5019496,55.7491871 L66.5019496,55.7774076 L66.6170093,55.7774076 C66.6514035,55.7774076 66.6855503,55.7804585 66.7194496,55.7837636 C66.7464206,55.7875772 66.7733916,55.7916451 66.8008574,55.7941875 C67.4719155,55.9052901 67.9940145,56.6108045 67.9940145,57.45971 C67.9940145,58.2275132 67.5649531,58.8722644 66.9866851,59.0718423 L63.8597821,59.0718423 C62.958852,59.0718423 62.2222222,59.8289674 62.2222222,60.754399 C62.2222222,61.6795763 62.958852,62.4367014 63.8597821,62.4367014 L78.0759694,62.4367014 C78.9766521,62.4367014 79.7132818,61.6795763 79.7132818,60.754399 C79.7132818,59.8289674 78.9766521,59.0718423 78.0759694,59.0718423 L76.8288703,59.0718423 C76.2506023,58.8722644 75.8215408,58.2275132 75.8215408,57.45971 C75.8215408,56.6278386 76.3226074,55.9340191 76.9741177,55.8015604 L81.6957735,55.8015604 C82.5964561,55.8015604 83.3333333,55.0446896 83.3333333,54.119258 C83.3333333,53.1940807 82.5964561,52.4367014 81.6957735,52.4367014" id="Fill-3备份" fill="url(#linearGradient-4)" opacity="0.3" transform="translate(72.777778, 57.436701) scale(-1, 1) translate(-72.777778, -57.436701) "></path>
                            <g transform="translate(1.467333, 0.000000)">
                                <path d="M4.00752291,23.8662184 C11.795013,21.7076221 22.1388441,23.3040238 35.0390163,28.6554236 L47.2275121,35.1865232 C45.1731432,50.0501204 38.1471413,55.7299732 26.1495063,52.2260819 C8.15305394,46.9702449 -7.67371223,27.1041128 4.00752291,23.8662184 Z" id="Rectangle-5" fill="url(#linearGradient-5)" filter="url(#filter-6)"></path>
                                <polygon id="Fill-3" fill="url(#linearGradient-7)" points="41.2885873 15.8549738 19.5457055 26.9724345 41.2885873 37.5978556 41.2885873 24.903931"></polygon>
                                <polygon id="Fill-1" fill="url(#linearGradient-8)" points="41.2885873 39.2699257 65.3604088 50.6435847 66.9389028 26.9284734 41.2885873 15.8549738"></polygon>
                                <polygon id="Fill-2" fill="url(#linearGradient-9)" points="43.4628754 38.3602997 43.4628754 61.5150256 67.3021173 49.8817087 66.995573 26.9700798"></polygon>
                                <polygon id="Fill-1" fill="#FFDAC5" points="19.5457055 49.8824649 43.4628754 61.5150256 43.4628754 38.3595435 19.6231346 26.8651211"></polygon>
                                <polygon id="Fill-4-Copy" fill="#FFF5F5" transform="translate(30.960718, 52.087205) scale(-1, -1) translate(-30.960718, -52.087205) " points="33.6785786 50.050597 33.6785786 56.7922575 32.5696428 55.431291 31.3425464 55.6926381 30.0646117 54.1238129 28.2428582 55.0132944 28.2428582 47.3821524"></polygon>
                                <polygon id="Fill-8" fill="url(#linearGradient-10)" points="11.9356968 37.5978556 19.6408282 35.153669 19.6408282 26.8651211"></polygon>
                                <polygon id="Fill-7" fill="#FF9168" filter="url(#filter-11)" points="43.4628754 38.6849997 48.7897781 51.7307288 67.3800454 41.2910153 67.3800454 39.4469725"></polygon>
                                <polygon id="Fill-7" fill="url(#linearGradient-12)" points="43.4628754 38.2853923 49.2392941 49.5564406 71.7286218 38.6232045 66.9847114 26.9972538"></polygon>
                                <g id="Stroke-11" transform="translate(31.613005, 9.841449)">
                                    <mask id="mask-15" fill="white">
                                        <use xlink:href="#path-14"></use>
                                    </mask>
                                    <use id="Mask" fill="url(#linearGradient-13)" xlink:href="#path-14"></use>
                                    <path d="M27.4589904,1.11275674 C22.5007402,2.0998058 18.2471357,5.67795016 17.3568228,7.84252757 C16.4665098,10.007105 16.1923858,17.4024257 19.6807335,16.4524743 C23.1690812,15.5025229 22.555941,11.9275441 19.1065574,11.9275441 C15.6571738,11.9275441 11.0338205,18.9022845 10.468805,26.1105349" stroke="#FFF1E8" stroke-width="1.08714409" stroke-linecap="round" stroke-linejoin="round" stroke-dasharray="2.065573770491803,2.065573770491803" mask="url(#mask-15)"></path>
                                </g>
                                <g id="编组-8" transform="translate(64.217412, 8.018845) rotate(31.000000) translate(-64.217412, -8.018845) translate(57.694547, 2.583125)">
                                    <polygon id="Path" fill="url(#linearGradient-16)" points="5.43572045 7.61000863 5.43572045 10.8714409 7.61000863 8.62328777"></polygon>
                                    <polygon id="Fill-1" fill="url(#linearGradient-17)" points="0 5.58251938 4.42145457 7.31504272 10.2114294 2.93335424 5.43485916 7.69672553 7.08959198 8.3620949 10.5305034 9.78429681 13.0457291 0"></polygon>
                                </g>
                            </g>
                        </g>
                        <path d="M2.28696554,27.1088434 C2.28696554,27.1088434 1.78912595,27.3101128 1.66537726,27.4345727 C1.53309417,27.5661446 1.26497199,28.130837 1.26497199,28.130837 C1.26497199,28.130837 1.09286173,27.6009934 0.965557034,27.4736887 C0.83754114,27.3456728 0.242267231,27.1088434 0.242267231,27.1088434 C0.242267231,27.1088434 0.775666791,26.91113 0.903682685,26.7831141 C1.03098738,26.6550982 1.26497199,26.0868498 1.26497199,26.0868498 C1.26497199,26.0868498 1.51531418,26.6671886 1.66822205,26.7902261 C1.81472913,26.9068628 2.28696554,27.1088434 2.28696554,27.1088434" id="Fill-27" fill="#FFFFFF"></path>
                    </g>
                </g>
            </g>
        </g>
    </g>
</svg>