<?xml version="1.0" encoding="UTF-8"?>
<svg width="90px" height="60px" viewBox="0 0 90 60" version="1.1" xmlns="http://www.w3.org/2000/svg" xmlns:xlink="http://www.w3.org/1999/xlink">
    <title>切片</title>
    <defs>
        <rect id="path-1" x="0" y="0" width="90" height="60"></rect>
        <linearGradient x1="93.4674235%" y1="62.1168826%" x2="10.3295262%" y2="39.0775315%" id="linearGradient-3">
            <stop stop-color="#FF5A2F" stop-opacity="0" offset="0%"></stop>
            <stop stop-color="#FFFFFF" offset="100%"></stop>
        </linearGradient>
        <linearGradient x1="93.4674235%" y1="63.7636542%" x2="10.3295262%" y2="37.5930894%" id="linearGradient-4">
            <stop stop-color="#FCD396" offset="0%"></stop>
            <stop stop-color="#FFFFFF" offset="100%"></stop>
        </linearGradient>
        <linearGradient x1="11.6436673%" y1="40.5422469%" x2="63.5485688%" y2="65.0192858%" id="linearGradient-5">
            <stop stop-color="#FD8B6B" stop-opacity="0" offset="0%"></stop>
            <stop stop-color="#B33A00" offset="100%"></stop>
        </linearGradient>
        <filter x="-6.9%" y="-11.7%" width="113.9%" height="123.4%" filterUnits="objectBoundingBox" id="filter-6">
            <feGaussianBlur stdDeviation="1.11111111" in="SourceGraphic"></feGaussianBlur>
        </filter>
        <linearGradient x1="28.4169408%" y1="100%" x2="28.4169408%" y2="0%" id="linearGradient-7">
            <stop stop-color="#FFDAC5" offset="0%"></stop>
            <stop stop-color="#FF9774" offset="100%"></stop>
        </linearGradient>
    </defs>
    <g id="页面-1" stroke="none" stroke-width="1" fill="none" fill-rule="evenodd">
        <g id="退款详情-平台已同意退款" transform="translate(-247.000000, -90.000000)">
            <g id="order_tkxq_ic" transform="translate(247.000000, 90.000000)">
                <mask id="mask-2" fill="white">
                    <use xlink:href="#path-1"></use>
                </mask>
                <g id="蒙版"></g>
                <g id="Page-1" mask="url(#mask-2)">
                    <g transform="translate(-1.000000, 5.555556)">
                        <g id="Page-1" stroke-width="1" fill="none">
                            <g id="编组-6" transform="translate(6.555556, 0.000000)">
                                <path d="M27.6729412,0 L6.71288591,0 C5.4326168,0 4.38547552,1.00983907 4.38547552,2.24340884 C4.38547552,3.28918042 5.13865773,4.17156078 6.14747181,4.4166476 L6.08171781,4.4166476 L6.08171781,4.45427504 L6.24522375,4.45427504 C6.29409972,4.45427504 6.34262407,4.45834287 6.39079678,4.46274968 C6.42912398,4.46783447 6.46745118,4.47325825 6.50648163,4.47664811 C7.46009049,4.62478496 8.20202068,5.56547089 8.20202068,6.69734489 C8.20202068,7.72108238 7.59230174,8.58075068 6.77055252,8.84685463 L2.32705877,8.84685463 C1.04678966,8.84685463 0,9.85635471 0,11.0902635 C0,12.3238333 1.04678966,13.3333333 2.32705877,13.3333333 L22.5290091,13.3333333 C23.8089266,13.3333333 24.8557163,12.3238333 24.8557163,11.0902635 C24.8557163,9.85635471 23.8089266,8.84685463 22.5290091,8.84685463 L20.7568157,8.84685463 C19.9350665,8.58075068 19.3253475,7.72108238 19.3253475,6.69734489 C19.3253475,5.58818295 20.0373895,4.66309037 20.96322,4.4864787 L27.6729412,4.4864787 C28.9528587,4.4864787 30,3.4773176 30,2.24340884 C30,1.00983907 28.9528587,0 27.6729412,0" id="Fill-3" fill="url(#linearGradient-3)" opacity="0.30750093"></path>
                                <path d="M11.1111111,2.77752779 C11.1111111,2.77752779 10.2996517,3.10601137 10.0976618,3.30850124 C9.88317251,3.52249054 9.44419446,4.44444444 9.44419446,4.44444444 C9.44419446,4.44444444 9.16420846,3.58048764 8.95571888,3.37199807 C8.74722931,3.16350849 7.77777778,2.77752779 7.77777778,2.77752779 C7.77777778,2.77752779 8.64673433,2.45504391 8.85522391,2.24655434 C9.06321351,2.03806476 9.44419446,1.11111111 9.44419446,1.11111111 C9.44419446,1.11111111 9.85267403,2.05806376 10.1021616,2.25755379 C10.3416496,2.44854424 11.1111111,2.77752779 11.1111111,2.77752779" id="Fill-24" fill="#FFFFFF"></path>
                                <path d="M17.7777778,7.22258589 C17.7777778,7.22258589 16.9662595,7.55060974 16.7633799,7.75280626 C16.55032,7.96736732 16.1111111,8.88888889 16.1111111,8.88888889 C16.1111111,8.88888889 15.8311518,8.02555337 15.6224549,7.81681092 C15.4144852,7.60806847 14.4444444,7.22258589 14.4444444,7.22258589 C14.4444444,7.22258589 15.313409,6.90038063 15.5213787,6.69163818 C15.7308028,6.48289573 16.1111111,5.55555556 16.1111111,5.55555556 C16.1111111,5.55555556 16.5197789,6.50253352 16.7691972,6.70182074 C17.007708,6.89310738 17.7777778,7.22258589 17.7777778,7.22258589" id="Fill-31" fill="#FFFFFF"></path>
                            </g>
                            <path d="M88.251329,43.3333333 L73.5016605,43.3333333 C72.6007303,43.3333333 71.8638531,44.0907126 71.8638531,45.01589 C71.8638531,45.8002186 72.3938703,46.4620039 73.1037765,46.645819 L73.0575051,46.645819 L73.0575051,46.6740396 L73.1725649,46.6740396 C73.2069591,46.6740396 73.2411058,46.6770905 73.2750051,46.6803956 C73.3019761,46.6842092 73.3289471,46.688277 73.356413,46.6908194 C74.0274711,46.8019221 74.5495701,47.5074365 74.5495701,48.356342 C74.5495701,49.1241451 74.1205086,49.7688963 73.5422407,49.9684743 L70.4153377,49.9684743 C69.5144075,49.9684743 68.7777778,50.7255994 68.7777778,51.6510309 C68.7777778,52.5762083 69.5144075,53.3333333 70.4153377,53.3333333 L84.6315249,53.3333333 C85.5322076,53.3333333 86.2688374,52.5762083 86.2688374,51.6510309 C86.2688374,50.7255994 85.5322076,49.9684743 84.6315249,49.9684743 L83.3844258,49.9684743 C82.8061579,49.7688963 82.3770964,49.1241451 82.3770964,48.356342 C82.3770964,47.5244705 82.878163,46.8306511 83.5296733,46.6981924 L88.251329,46.6981924 C89.1520117,46.6981924 89.8888889,45.9413215 89.8888889,45.01589 C89.8888889,44.0907126 89.1520117,43.3333333 88.251329,43.3333333" id="Fill-3备份" fill="url(#linearGradient-4)" opacity="0.3" transform="translate(79.333333, 48.333333) scale(-1, 1) translate(-79.333333, -48.333333) "></path>
                            <path d="M4.74310784,13.3751116 C12.5305979,11.2165153 22.8744291,12.8129171 35.7746012,18.1643169 L47.963097,24.6954165 C42.9658197,38.3168436 34.4683636,43.3756115 22.4707286,39.8717201 C4.47427624,34.6158831 -6.93812729,16.6130061 4.74310784,13.3751116 Z" id="Rectangle-5" fill="url(#linearGradient-5)" filter="url(#filter-6)"></path>
                            <g id="编组-4" transform="translate(24.000000, 7.555556)">
                                <polygon id="路径" fill="url(#linearGradient-7)" fill-rule="nonzero" points="38.230636 6.23582768 16.1388434 16.8847026 16.1033388 23.2164661 11.5350717 21.8733647 11.5350717 14.9659864 34.0963148 4.36316067 24.4587703 0 0 9.46310831 0 33.6389325 24.4587703 44 47.4736842 34.406419 47.4736842 10.4224664"></polygon>
                                <path d="M41.5128452,31.2865864 L32.2421823,35.454038 C31.9860345,35.5713615 31.6848995,35.5461859 31.4530878,35.388068 C31.2212762,35.2299501 31.0943304,34.9631332 31.1204391,34.6889009 C31.1465478,34.4146686 31.3217078,34.1750675 31.5794285,34.0610501 L40.8343116,29.8935985 C42.8427166,28.9705189 43.7110689,26.645405 42.7800763,24.6835882 C41.8490837,22.7217714 39.4666576,21.8563816 37.4416434,22.7444619 L28.4274031,26.8044654 L31.2756663,28.0286063 C31.6715461,28.2029889 31.847926,28.6559396 31.6701626,29.0416885 C31.5933137,29.2135484 31.452342,29.3506775 31.2756663,29.4254317 C31.0688034,29.5165502 30.8316104,29.5165502 30.6247474,29.4254317 L26.3326277,27.5834642 C26.2106169,27.5611943 26.09573,27.5112331 25.9973059,27.4376417 L25.8631771,27.3800802 C25.4775062,27.2148703 25.2933826,26.784005 25.445011,26.401535 L27.1650149,22.0383743 C27.2606732,21.7748036 27.4960754,21.5826611 27.779526,21.5367912 C28.0629766,21.4909214 28.3496512,21.598578 28.5278827,21.8178261 C28.7061141,22.0370741 28.747717,22.333242 28.6364861,22.5909646 L27.480612,25.5266004 L36.7828346,21.343799 C39.6006602,20.0856624 42.9338405,21.2810809 44.2376696,24.017416 C45.5414987,26.7537511 44.3249484,30.0004861 41.5167901,31.2789116 L41.5128452,31.2865864 Z" id="路径" fill="#F0F6FF" fill-rule="nonzero"></path>
                                <polygon id="路径-2" fill="#F0F6FF" points="34.0963148 4.36316067 38.230636 6.23582768 16.1388434 16.8847026 16.1033388 23.2164661 11.5350717 21.8733647 11.5350717 14.9659864"></polygon>
                                <polygon id="Fill-4" fill="#F0F6FF" points="16.1388434 16.8847026 16.1388434 26.5943079 15.0976769 25.1479693 13.8982019 25.4328677 12.7483922 23.9008316 11.5350717 24.220814 11.5350717 14.9659864"></polygon>
                            </g>
                        </g>
                        <path d="M8.8425211,18.0054754 C8.8425211,18.0054754 8.34468151,18.2067448 8.22093281,18.3312047 C8.08864972,18.4627766 7.82052754,19.0274689 7.82052754,19.0274689 C7.82052754,19.0274689 7.64841728,18.4976254 7.52111259,18.3703207 C7.3930967,18.2423048 6.79782279,18.0054754 6.79782279,18.0054754 C6.79782279,18.0054754 7.33122235,17.8077619 7.45923824,17.679746 C7.58654294,17.5517301 7.82052754,16.9834818 7.82052754,16.9834818 C7.82052754,16.9834818 8.07086974,17.5638205 8.22377761,17.686858 C8.37028469,17.8034947 8.8425211,18.0054754 8.8425211,18.0054754" id="Fill-27" fill="#FFFFFF"></path>
                    </g>
                </g>
            </g>
        </g>
    </g>
</svg>