<?xml version="1.0" encoding="UTF-8"?>
<svg width="90px" height="60px" viewBox="0 0 90 60" version="1.1" xmlns="http://www.w3.org/2000/svg" xmlns:xlink="http://www.w3.org/1999/xlink">
    <title>切片</title>
    <defs>
        <rect id="path-1" x="0" y="0" width="90" height="60"></rect>
        <linearGradient x1="93.4674235%" y1="62.1168826%" x2="10.3295262%" y2="39.0775315%" id="linearGradient-3">
            <stop stop-color="#FF5A2F" stop-opacity="0" offset="0%"></stop>
            <stop stop-color="#FFFFFF" offset="100%"></stop>
        </linearGradient>
        <linearGradient x1="11.6436673%" y1="40.5540372%" x2="63.5485688%" y2="65.0005623%" id="linearGradient-4">
            <stop stop-color="#FD8B6B" stop-opacity="0" offset="0%"></stop>
            <stop stop-color="#B33A00" offset="100%"></stop>
        </linearGradient>
        <filter x="-6.6%" y="-11.1%" width="113.2%" height="122.2%" filterUnits="objectBoundingBox" id="filter-5">
            <feGaussianBlur stdDeviation="1.11111111" in="SourceGraphic"></feGaussianBlur>
        </filter>
        <linearGradient x1="93.4674235%" y1="63.7636542%" x2="10.3295262%" y2="37.5930894%" id="linearGradient-6">
            <stop stop-color="#FCD396" offset="0%"></stop>
            <stop stop-color="#FFFFFF" offset="100%"></stop>
        </linearGradient>
        <linearGradient x1="0%" y1="53.4718466%" x2="98.4442994%" y2="25.6525748%" id="linearGradient-7">
            <stop stop-color="#FFB7A0" offset="0%"></stop>
            <stop stop-color="#FFD5C8" offset="100%"></stop>
        </linearGradient>
        <linearGradient x1="100%" y1="50%" x2="0.777762277%" y2="50%" id="linearGradient-8">
            <stop stop-color="#FFD1C6" offset="0%"></stop>
            <stop stop-color="#FF9B7D" offset="100%"></stop>
        </linearGradient>
        <path d="M1.17701784,9.03554687 L1.4302203,9.16872743 C5.85566187,11.6063831 14.8834654,8.55014065 28.5136309,0 C34.0765702,11.5571629 39.2309024,18.5450847 43.9766274,20.9637655 C39.5230961,25.5570858 31.1855448,30.0867373 18.9639737,34.55272 L15.7308749,30.6472684 C2.37498066,14.4179105 -2.47630503,7.21400329 1.17701784,9.03554687 L1.17701784,9.03554687 Z" id="path-9"></path>
        <filter x="-23.1%" y="-112.5%" width="146.2%" height="325.0%" filterUnits="objectBoundingBox" id="filter-11">
            <feGaussianBlur stdDeviation="3.33333333" in="SourceGraphic"></feGaussianBlur>
        </filter>
        <linearGradient x1="0%" y1="55.1863387%" x2="100%" y2="55.1863387%" id="linearGradient-12">
            <stop stop-color="#FFB6A0" offset="0%"></stop>
            <stop stop-color="#FFE0CC" offset="100%"></stop>
        </linearGradient>
    </defs>
    <g id="页面-1" stroke="none" stroke-width="1" fill="none" fill-rule="evenodd">
        <g id="订单详情-待付款" transform="translate(-247.000000, -90.000000)">
            <g id="order_dfk_ic" transform="translate(247.000000, 90.000000)">
                <mask id="mask-2" fill="white">
                    <use xlink:href="#path-1"></use>
                </mask>
                <g id="蒙版"></g>
                <g id="Page-1" mask="url(#mask-2)">
                    <g transform="translate(0.000000, -8.306512)">
                        <g id="Page-1" stroke-width="1" fill="none">
                            <g id="编组-6" transform="translate(5.555556, 13.862068)">
                                <path d="M27.6729412,0 L6.71288591,0 C5.4326168,0 4.38547552,1.00983907 4.38547552,2.24340884 C4.38547552,3.28918042 5.13865773,4.17156078 6.14747181,4.4166476 L6.08171781,4.4166476 L6.08171781,4.45427504 L6.24522375,4.45427504 C6.29409972,4.45427504 6.34262407,4.45834287 6.39079678,4.46274968 C6.42912398,4.46783447 6.46745118,4.47325825 6.50648163,4.47664811 C7.46009049,4.62478496 8.20202068,5.56547089 8.20202068,6.69734489 C8.20202068,7.72108238 7.59230174,8.58075068 6.77055252,8.84685463 L2.32705877,8.84685463 C1.04678966,8.84685463 0,9.85635471 0,11.0902635 C0,12.3238333 1.04678966,13.3333333 2.32705877,13.3333333 L22.5290091,13.3333333 C23.8089266,13.3333333 24.8557163,12.3238333 24.8557163,11.0902635 C24.8557163,9.85635471 23.8089266,8.84685463 22.5290091,8.84685463 L20.7568157,8.84685463 C19.9350665,8.58075068 19.3253475,7.72108238 19.3253475,6.69734489 C19.3253475,5.58818295 20.0373895,4.66309037 20.96322,4.4864787 L27.6729412,4.4864787 C28.9528587,4.4864787 30,3.4773176 30,2.24340884 C30,1.00983907 28.9528587,0 27.6729412,0" id="Fill-3" fill="url(#linearGradient-3)" opacity="0.30750093"></path>
                                <path d="M11.1111111,2.77752779 C11.1111111,2.77752779 10.2996517,3.10601137 10.0976618,3.30850124 C9.88317251,3.52249054 9.44419446,4.44444444 9.44419446,4.44444444 C9.44419446,4.44444444 9.16420846,3.58048764 8.95571888,3.37199807 C8.74722931,3.16350849 7.77777778,2.77752779 7.77777778,2.77752779 C7.77777778,2.77752779 8.64673433,2.45504391 8.85522391,2.24655434 C9.06321351,2.03806476 9.44419446,1.11111111 9.44419446,1.11111111 C9.44419446,1.11111111 9.85267403,2.05806376 10.1021616,2.25755379 C10.3416496,2.44854424 11.1111111,2.77752779 11.1111111,2.77752779" id="Fill-24" fill="#FFFFFF"></path>
                                <path d="M17.7777778,7.22258589 C17.7777778,7.22258589 16.9662595,7.55060974 16.7633799,7.75280626 C16.55032,7.96736732 16.1111111,8.88888889 16.1111111,8.88888889 C16.1111111,8.88888889 15.8311518,8.02555337 15.6224549,7.81681092 C15.4144852,7.60806847 14.4444444,7.22258589 14.4444444,7.22258589 C14.4444444,7.22258589 15.313409,6.90038063 15.5213787,6.69163818 C15.7308028,6.48289573 16.1111111,5.55555556 16.1111111,5.55555556 C16.1111111,5.55555556 16.5197789,6.50253352 16.7691972,6.70182074 C17.007708,6.89310738 17.7777778,7.22258589 17.7777778,7.22258589" id="Fill-31" fill="#FFFFFF"></path>
                            </g>
                            <path d="M1.0037136,36.174554 C4.41098501,32.3013253 16.7621126,34.0395269 38.0570963,41.389159 L50.5142979,48.0642423 C48.8528554,59.5476691 41.859545,64.8901174 29.5343666,64.091587 C11.046599,62.8937915 -4.10719351,41.9843971 1.0037136,36.174554 Z" id="Rectangle-5" fill="url(#linearGradient-4)" filter="url(#filter-5)"></path>
                            <path d="M87.251329,57.1954012 L72.5016605,57.1954012 C71.6007303,57.1954012 70.8638531,57.9527805 70.8638531,58.8779579 C70.8638531,59.6622865 71.3938703,60.3240718 72.1037765,60.5078869 L72.0575051,60.5078869 L72.0575051,60.5361075 L72.1725649,60.5361075 C72.2069591,60.5361075 72.2411058,60.5391584 72.2750051,60.5424635 C72.3019761,60.5462771 72.3289471,60.5503449 72.356413,60.5528873 C73.0274711,60.6639899 73.5495701,61.3695044 73.5495701,62.2184099 C73.5495701,62.986213 73.1205086,63.6309642 72.5422407,63.8305422 L69.4153377,63.8305422 C68.5144075,63.8305422 67.7777778,64.5876673 67.7777778,65.5130988 C67.7777778,66.4382762 68.5144075,67.1954012 69.4153377,67.1954012 L83.6315249,67.1954012 C84.5322076,67.1954012 85.2688374,66.4382762 85.2688374,65.5130988 C85.2688374,64.5876673 84.5322076,63.8305422 83.6315249,63.8305422 L82.3844258,63.8305422 C81.8061579,63.6309642 81.3770964,62.986213 81.3770964,62.2184099 C81.3770964,61.3865384 81.878163,60.692719 82.5296733,60.5602602 L87.251329,60.5602602 C88.1520117,60.5602602 88.8888889,59.8033894 88.8888889,58.8779579 C88.8888889,57.9527805 88.1520117,57.1954012 87.251329,57.1954012" id="Fill-3备份" fill="url(#linearGradient-6)" opacity="0.3" transform="translate(78.333333, 62.195401) scale(-1, 1) translate(-78.333333, -62.195401) "></path>
                            <g id="编组-6" transform="translate(21.894708, 0.000000)">
                                <path d="M5.37764383,23.8620679 L40.3776438,23.8620679 C45.2868416,23.8620679 49.2665327,27.841759 49.2665327,32.7509568 L49.2665327,57.1954012 C49.2665327,60.8772996 46.2817644,63.8620679 42.599866,63.8620679 L7.04431049,63.8620679 C3.36241216,63.8620679 0.377643827,60.8772996 0.377643827,57.1954012 L0.377643827,28.8620679 C0.377643827,26.1006441 2.61622008,23.8620679 5.37764383,23.8620679 Z" id="Rectangle-28" fill="url(#linearGradient-7)"></path>
                                <path d="M4.26653272,23.8620679 L42.599866,23.8620679 L42.599866,23.8620679 L42.599866,31.6398457 L4.26653272,31.6398457 C2.11875869,31.6398457 0.377643827,29.8987308 0.377643827,27.7509568 C0.377643827,25.6031827 2.11875869,23.8620679 4.26653272,23.8620679 Z" id="矩形" fill="url(#linearGradient-8)"></path>
                                <g id="Rectangle-2-Copy" transform="translate(27.960495, 27.263948) rotate(-39.000000) translate(-27.960495, -27.263948) translate(5.972181, 9.987588)">
                                    <mask id="mask-10" fill="white">
                                        <use xlink:href="#path-9"></use>
                                    </mask>
                                    <use id="Mask" fill="#F8E8E6" xlink:href="#path-9"></use>
                                    <path d="M-0.252568949,11.1874247 C12.9317448,15.2072138 23.7763953,17.1882796 32.2813825,17.130622 C31.9354193,19.4661153 32.1569173,24.2539863 32.9458766,31.4942349 L3.32686907,27.4743863 L-0.252568949,11.1874247 Z" id="Rectangle-2" fill="#FDDAC3" mask="url(#mask-10)" transform="translate(16.346654, 21.340830) rotate(-33.000000) translate(-16.346654, -21.340830) "></path>
                                    <path d="M21.359092,6.22808016 L24.2466192,6.22666615 C25.3101394,6.22614535 26.172715,7.08787657 26.1732358,8.15139669 C26.1732361,8.15202518 26.1732361,8.15265366 26.1732358,8.15328215 C26.1727146,9.21814924 25.3095996,10.0812645 24.2447325,10.081786 L21.3572052,10.0832 C20.2936851,10.0837208 19.4311095,9.22198957 19.4305887,8.15846944 C19.4305884,8.15784095 19.4305884,8.15721247 19.4305887,8.15658399 C19.4311099,7.09171689 20.2942249,6.22860162 21.359092,6.22808016 Z" id="Rectangle-3" fill="#FDDAC3" mask="url(#mask-10)" transform="translate(22.801912, 8.154933) rotate(-30.000000) translate(-22.801912, -8.154933) "></path>
                                </g>
                                <path d="M5.93319938,31.6398457 L44.8220883,31.6398457 C47.2766872,31.6398457 49.2665327,33.6296912 49.2665327,36.0842901 L49.2665327,40.5287346 L49.2665327,40.5287346 L5.93319938,40.5287346 L5.93319938,31.6398457 Z" id="矩形" fill-opacity="0.424715909" fill="#FA6C3D" filter="url(#filter-11)"></path>
                                <path d="M0.377643827,31.6398457 L42.599866,31.6398457 C46.2817644,31.6398457 49.2665327,34.624614 49.2665327,38.3065123 L49.2665327,58.3065123 C49.2665327,61.9884107 46.2817644,64.973179 42.599866,64.973179 L7.04431049,64.973179 C3.36241216,64.973179 0.377643827,61.9884107 0.377643827,58.3065123 L0.377643827,31.6398457 L0.377643827,31.6398457 Z" id="Rectangle-28" fill="url(#linearGradient-12)"></path>
                                <path d="M37.0443105,41.6398457 L47.0443105,41.6398457 C49.4989094,41.6398457 51.4887549,43.6296912 51.4887549,46.0842901 L51.4887549,49.4176234 C51.4887549,51.8722223 49.4989094,53.8620679 47.0443105,53.8620679 L37.0443105,53.8620679 C34.5897116,53.8620679 32.599866,51.8722223 32.599866,49.4176234 L32.599866,46.0842901 C32.599866,43.6296912 34.5897116,41.6398457 37.0443105,41.6398457 Z" id="Rectangle-31" fill="#FFB19E"></path>
                                <circle id="Oval" fill="#EFF9FF" cx="37.0443105" cy="48.3065123" r="3.33333333"></circle>
                            </g>
                        </g>
                        <path d="M7.8425211,31.8675432 C7.8425211,31.8675432 7.34468151,32.0688127 7.22093281,32.1932726 C7.08864972,32.3248445 6.82052754,32.8895368 6.82052754,32.8895368 C6.82052754,32.8895368 6.64841728,32.3596932 6.52111259,32.2323885 C6.3930967,32.1043727 5.79782279,31.8675432 5.79782279,31.8675432 C5.79782279,31.8675432 6.33122235,31.6698298 6.45923824,31.5418139 C6.58654294,31.413798 6.82052754,30.8455497 6.82052754,30.8455497 C6.82052754,30.8455497 7.07086974,31.4258884 7.22377761,31.5489259 C7.37028469,31.6655626 7.8425211,31.8675432 7.8425211,31.8675432" id="Fill-27" fill="#FFFFFF"></path>
                    </g>
                </g>
            </g>
        </g>
    </g>
</svg>