<?xml version="1.0" encoding="UTF-8"?>
<svg width="18px" height="18px" viewBox="0 0 18 18" version="1.1" xmlns="http://www.w3.org/2000/svg" xmlns:xlink="http://www.w3.org/1999/xlink">
    <title>切片</title>
    <g id="页面-1" stroke="none" stroke-width="1" fill="none" fill-rule="evenodd">
        <g id="首页" transform="translate(-309.000000, -102.000000)">
            <g id="编组-11" transform="translate(309.000000, 100.000000)">
                <g id="store_lie_ic" transform="translate(0.000000, 2.000000)">
                    <rect id="矩形" stroke="#333333" stroke-width="1.5" x="0.75" y="0.75" width="6.5" height="6.5" rx="3"></rect>
                    <rect id="矩形备份" stroke="#333333" stroke-width="1.5" x="10.75" y="0.75" width="6.5" height="6.5" rx="3"></rect>
                    <rect id="矩形备份-4" stroke="#333333" stroke-width="1.5" x="0.75" y="10.75" width="6.5" height="6.5" rx="3"></rect>
                    <path d="M10.75,16 L13.25,16 C13.6642136,16 14,16.3357864 14,16.75 C14,17.1642136 13.6642136,17.5 13.25,17.5 L10.75,17.5 C10.3357864,17.5 10,17.1642136 10,16.75 C10,16.3357864 10.3357864,16 10.75,16 Z" id="矩形备份-7" fill="#333333"></path>
                    <path d="M10.75,10 L17.25,10 C17.6642136,10 18,10.3357864 18,10.75 C18,11.1642136 17.6642136,11.5 17.25,11.5 L10.75,11.5 C10.3357864,11.5 10,11.1642136 10,10.75 C10,10.3357864 10.3357864,10 10.75,10 Z" id="矩形备份-9" fill="#333333"></path>
                    <path d="M10.75,13 L15.25,13 C15.6642136,13 16,13.3357864 16,13.75 C16,14.1642136 15.6642136,14.5 15.25,14.5 L10.75,14.5 C10.3357864,14.5 10,14.1642136 10,13.75 C10,13.3357864 10.3357864,13 10.75,13 Z" id="矩形备份-10" fill="#333333"></path>
                </g>
            </g>
        </g>
    </g>
</svg>