<?xml version="1.0" encoding="UTF-8"?>
<svg width="54px" height="54px" viewBox="0 0 54 54" version="1.1" xmlns="http://www.w3.org/2000/svg" xmlns:xlink="http://www.w3.org/1999/xlink">
    <title>切片</title>
    <defs>
        <circle id="path-1" cx="23" cy="23" r="23"></circle>
        <filter x="-13.0%" y="-13.0%" width="126.1%" height="126.1%" filterUnits="objectBoundingBox" id="filter-2">
            <feOffset dx="0" dy="0" in="SourceAlpha" result="shadowOffsetOuter1"></feOffset>
            <feGaussianBlur stdDeviation="2" in="shadowOffsetOuter1" result="shadowBlurOuter1"></feGaussianBlur>
            <feColorMatrix values="0 0 0 0 0.8   0 0 0 0 0.8   0 0 0 0 0.8  0 0 0 0.5 0" type="matrix" in="shadowBlurOuter1"></feColorMatrix>
        </filter>
    </defs>
    <g id="页面-1" stroke="none" stroke-width="1" fill="none" fill-rule="evenodd">
        <g id="首页" transform="translate(-313.000000, -661.000000)">
            <g id="button_top_ic" transform="translate(313.000000, 661.000000)">
                <g id="椭圆形" transform="translate(4.000000, 2.000000)">
                    <use fill="black" fill-opacity="1" filter="url(#filter-2)" xlink:href="#path-1"></use>
                    <use fill="#FFFFFF" fill-rule="evenodd" xlink:href="#path-1"></use>
                </g>
                <g id="火箭-02" transform="translate(16.000000, 13.000000)" fill="#000000" fill-rule="nonzero">
                    <path d="M19.530086,17.3982808 L2.4756447,17.3982808 C1.10028654,17.3982808 0,16.2979943 0,14.9226361 L0,14.2074498 C0,13.4922636 0.275071642,12.8320917 0.825214899,12.3369627 L3.63094556,9.80630373 C4.07106018,9.42120345 4.67621775,9.20114613 5.28137536,9.20114613 C5.72148998,9.20114613 6.10659026,9.58624641 6.10659026,10.026361 C6.10659026,10.4664756 5.72148998,10.8515759 5.28137536,10.8515759 C5.06131806,10.8515759 4.89627508,10.9065902 4.7312321,11.0716332 L1.92550144,13.6022923 C1.76045846,13.7123209 1.6504298,13.9323782 1.6504298,14.1524355 L1.6504298,14.8676218 C1.6504298,15.3077364 2.03553008,15.6928367 2.4756447,15.6928367 L19.4750716,15.6928367 C19.9151862,15.6928367 20.3002865,15.3077364 20.3002865,14.8676218 L20.3002865,14.1524355 C20.3002865,13.9323782 20.1902579,13.7123209 20.0252149,13.5472779 L17.1644699,11.0166189 C16.9994269,10.9065902 16.8343839,10.7965616 16.6143267,10.7965616 C16.174212,10.7965616 15.7891118,10.4114613 15.7891118,9.97134671 C15.7891118,9.53123209 16.174212,9.14613181 16.6143267,9.14613181 C17.2194843,9.14613181 17.8246418,9.36618911 18.2647564,9.75128939 L21.1255014,12.2819484 C21.6756447,12.7770774 21.9507163,13.4372493 21.9507163,14.1524355 L21.9507163,14.8676218 C22.0057306,16.2429799 20.9054441,17.3982808 19.530086,17.3982808 L19.530086,17.3982808 Z" id="路径"></path>
                    <path d="M16.6143267,17.3982808 L5.39140402,17.3982808 C4.9512894,17.3982808 4.56618912,17.0131805 4.56618912,16.5730659 L4.56618912,8.37593123 C4.56618912,4.74498567 6.76676218,1.44412607 10.1776504,0.123782235 C10.6727794,-0.041260745 11.277937,-0.041260745 11.7730659,0.123782235 C15.1839542,1.44412607 17.4395415,4.74498567 17.3845272,8.37593123 L17.3845272,16.5180516 C17.4395415,17.0131805 17.0544413,17.3982808 16.6143267,17.3982808 L16.6143267,17.3982808 Z M6.21661892,15.747851 L15.7340974,15.747851 L15.7340974,8.37593123 C15.7340974,5.40515759 13.9186247,2.7094556 11.1679083,1.60916905 C11.0028653,1.55415474 10.8378224,1.55415474 10.6727794,1.60916905 C7.92206303,2.7094556 6.1616046,5.35014327 6.1616046,8.32091691 L6.21661892,15.747851 Z M11.0028653,24 C10.5627507,24 10.1776504,23.6148997 10.1776504,23.1747851 L10.1776504,19.0487106 C10.1776504,18.608596 10.5627507,18.2234957 11.0028653,18.2234957 C11.44298,18.2234957 11.8280802,18.608596 11.8280802,19.0487106 L11.8280802,23.1747851 C11.8280802,23.669914 11.4979943,24 11.0028653,24 Z M7.31690546,22.8997135 C6.87679084,22.8997135 6.49169056,22.5146132 6.49169056,22.0744986 L6.49169056,20.1489971 C6.49169056,19.7088825 6.87679084,19.3237822 7.31690546,19.3237822 C7.75702008,19.3237822 8.14212036,19.7088825 8.14212036,20.1489971 L8.14212036,22.0744986 C8.14212036,22.5696275 7.75702008,22.8997135 7.31690546,22.8997135 Z M14.6888252,22.8997135 C14.2487106,22.8997135 13.8636103,22.5146132 13.8636103,22.0744986 L13.8636103,20.1489971 C13.8636103,19.7088825 14.2487106,19.3237822 14.6888252,19.3237822 C15.1289398,19.3237822 15.5140401,19.7088825 15.5140401,20.1489971 L15.5140401,22.0744986 C15.5140401,22.5696275 15.1289398,22.8997135 14.6888252,22.8997135 Z" id="形状"></path>
                    <path d="M11.0028653,9.75128939 C9.62750718,9.75128939 8.52722064,8.65100285 8.52722064,7.27564469 C8.52722064,5.90028653 9.62750718,4.79999999 11.0028653,4.79999999 C12.3782235,4.79999999 13.47851,5.90028653 13.47851,7.27564469 C13.47851,8.65100285 12.3782235,9.75128939 11.0028653,9.75128939 Z M11.0028653,6.45042979 C10.5627507,6.45042979 10.1776504,6.83553007 10.1776504,7.27564469 C10.1776504,7.71575931 10.5627507,8.10085959 11.0028653,8.10085959 C11.44298,8.10085959 11.8280802,7.71575931 11.8280802,7.27564469 C11.8280802,6.83553007 11.4979943,6.45042979 11.0028653,6.45042979 Z" id="形状"></path>
                </g>
            </g>
        </g>
    </g>
</svg>