<?xml version="1.0" encoding="UTF-8"?>
<svg width="24px" height="24px" viewBox="0 0 24 24" version="1.1" xmlns="http://www.w3.org/2000/svg" xmlns:xlink="http://www.w3.org/1999/xlink">
    <title>切片</title>
    <g id="v1.2" stroke="none" stroke-width="1" fill="none" fill-rule="evenodd">
        <g id="确认订单-未设置收货地址-弹窗" transform="translate(-15.000000, -592.000000)" fill="#04BE02" fill-rule="nonzero">
            <g id="确认付款" transform="translate(0.000000, 459.000000)">
                <g id="编组-6" transform="translate(15.000000, 133.000000)">
                    <g id="路径-2" transform="translate(1.000000, 1.000000)">
                        <path d="M8.3871109,13.8531211 C7.07029095,14.6485369 6.87497656,13.4067618 6.87497656,13.4067618 L5.22476219,9.2355716 C4.58968424,7.25338075 5.77424641,8.34188631 5.77424641,8.34188631 C5.77424641,8.34188631 6.79065043,9.17470638 7.56211113,9.68216717 C8.3330992,10.1898858 9.21187433,9.83126869 9.21187435,9.83126869 L20.0008732,4.43716672 C18.0101316,1.75413427 14.7220993,0 10.9994598,0 C4.92432478,0 2.06703341e-13,4.66838148 2.06703341e-13,10.4274814 C2.06703341e-13,13.7404356 1.63044877,16.6884132 4.17045976,18.599233 L3.71237004,21.4514119 C3.71237004,21.4514119 3.48893261,22.2839956 4.26286403,21.8977711 C4.79009044,21.634738 6.13432443,20.6906934 6.93461719,20.1169963 C8.2340575,20.6065042 9.61141445,20.8566085 11,20.8551992 C17.0746592,20.8551992 21.9999723,16.1868177 21.9999723,10.4277178 C21.9999723,8.75964987 21.5848943,7.18422259 20.8498496,5.78574055 C17.4122216,8.02582975 9.41720046,13.232008 8.3871109,13.8531211 Z" id="路径"></path>
                    </g>
                </g>
            </g>
        </g>
    </g>
</svg>